<svg width="375" height="481" xmlns="http://www.w3.org/2000/svg">
    <defs>
        <clipPath id="clipPath1">
            <path fill="#000000" stroke="none" d="M 0 0 L 10 0 L 10 7 L 0 7 Z"/>
        </clipPath>
        <clipPath id="clipPath2">
            <path fill="#000000" stroke="none" d="M 0 0 L 10 0 L 10 7 L 0 7 Z"/>
        </clipPath>
        <clipPath id="clipPath3">
            <path fill="#000000" stroke="none" d="M 0 0 L 10 0 L 10 7 L 0 7 Z"/>
        </clipPath>
        <clipPath id="clipPath4">
            <path fill="#000000" stroke="none" d="M 0 0 L 10 0 L 10 7 L 0 7 Z"/>
        </clipPath>
        <clipPath id="clipPath5">
            <path fill="#000000" stroke="none" d="M 0 0 L 10 0 L 10 7 L 0 7 Z"/>
        </clipPath>
    </defs>
    <g>
        <path fill="#ffffff" stroke="#000000" d="M 157 30 L 279 30 L 279 54 L 157 54 Z"/>
    </g>
    <g>
        <path fill="#000000" stroke="none" d="M 192.71045 41.436035 Q 193.5376 41.347168 193.9751 41.066895 Q 194.64502 40.629395 194.64502 39.672363 L 194.65869 37.79248 Q 194.65869 36.527832 195.6499 36.069824 Q 196.22412 35.803223 197.68701 35.714355 L 197.68701 36.021973 Q 196.94873 36.104004 196.3369 36.503906 Q 195.72511 36.90381 195.72511 37.819824 L 195.72511 39.49463 Q 195.72511 40.574707 195.20557 40.978027 Q 194.68604 41.381348 193.35988 41.64795 L 193.1206 41.6958 L 193.1206 41.72998 Q 194.52197 41.839355 195.11671 42.365723 Q 195.71143 42.89209 195.72511 43.753414 L 195.7456 45.681152 Q 195.75244 46.52881 196.43604 46.952637 Q 196.82568 47.191895 197.68701 47.362797 L 197.68701 47.67041 Q 196.31299 47.67041 195.48584 47.19873 Q 194.65869 46.72705 194.65869 45.612797 L 194.64502 43.507324 Q 194.64502 42.714355 193.9341 42.311035 Q 193.53076 42.08545 192.71045 41.93506 L 192.71045 41.436035 Z M 198.81494 44.983883 Q 199.30031 44.922363 199.49513 44.74121 Q 199.68993 44.560055 199.68993 43.931152 L 199.68993 40.465332 Q 199.68993 40.027832 199.60791 39.850098 Q 199.47803 39.590332 199.0747 39.590332 Q 199.0132 39.590332 198.94824 39.597168 Q 198.8833 39.604004 198.7876 39.617676 L 198.7876 39.378418 Q 199.06787 39.296387 200.11377 38.95459 L 200.75635 38.742676 Q 200.80421 38.742676 200.81445 38.776855 Q 200.8247 38.811035 200.8247 38.87256 L 200.8247 39.87744 Q 201.45361 39.28955 201.80908 39.0708 Q 202.34227 38.73584 202.91649 38.73584 Q 203.38135 38.73584 203.76416 39.00244 Q 204.50244 39.521973 204.50244 40.85498 L 204.50244 44.047363 Q 204.50244 44.53955 204.7007 44.758305 Q 204.89893 44.97705 205.36377 44.983883 L 205.36377 45.17529 L 202.44482 45.17529 L 202.44482 44.983883 Q 202.94386 44.915527 203.14209 44.70703 Q 203.34033 44.498535 203.34033 43.801266 L 203.34033 40.882324 Q 203.34033 40.294434 203.12158 39.908203 Q 202.90283 39.521973 202.31494 39.521973 Q 201.91162 39.521973 201.49463 39.79541 Q 201.2622 39.952637 200.89307 40.31494 L 200.89307 44.143066 Q 200.89307 44.635254 201.11182 44.802734 Q 201.33057 44.970215 201.80225 44.983883 L 201.80225 45.17529 L 198.81494 45.17529 L 198.81494 44.983883 Z M 202.06885 38.73584 L 202.06885 38.73584 Z M 206.78221 39.703125 Q 207.64697 38.763184 209.00732 38.763184 Q 210.36082 38.763184 211.24953 39.651855 Q 212.13818 40.540527 212.13818 42.01709 Q 212.13818 43.377445 211.27686 44.382324 Q 210.41553 45.387207 209.04832 45.387207 Q 207.73586 45.387207 206.82666 44.423344 Q 205.91747 43.459473 205.91747 42.003418 Q 205.91747 40.643066 206.78221 39.703125 Z M 207.8794 39.52881 Q 207.19579 40.15088 207.19579 41.675293 Q 207.19579 42.89209 207.7461 43.94482 Q 208.29639 44.99756 209.27391 44.99756 Q 210.03954 44.99756 210.45311 44.293457 Q 210.86671 43.589355 210.86671 42.447754 Q 210.86671 41.265137 210.34033 40.21924 Q 209.81398 39.17334 208.81592 39.17334 Q 208.27588 39.17334 207.8794 39.52881 Z M 209.06885 38.763184 L 209.06885 38.763184 Z M 216.79346 38.934082 Q 217.06688 39.077637 217.31984 39.330566 L 217.31984 37.15674 Q 217.31984 36.739746 217.22752 36.58252 Q 217.13525 36.425293 216.78662 36.425293 Q 216.70459 36.425293 216.64307 36.43213 Q 216.58154 36.438965 216.36963 36.459473 L 216.36963 36.233887 L 216.93018 36.090332 Q 217.2378 36.0083 217.5454 35.919434 Q 217.85303 35.830566 218.08546 35.748535 Q 218.19482 35.714355 218.44775 35.618652 L 218.48877 35.632324 L 218.47508 36.350098 Q 218.46828 36.739746 218.46143 37.15332 Q 218.45459 37.566895 218.45459 37.970215 L 218.4409 43.555176 Q 218.4409 43.99951 218.5503 44.177242 Q 218.65968 44.35498 219.13135 44.35498 Q 219.20653 44.35498 219.28174 44.351566 Q 219.35693 44.348145 219.43211 44.334473 L 219.43211 44.560055 Q 219.39111 44.57373 218.4409 44.901855 L 217.36768 45.305176 L 217.31984 45.243652 L 217.31984 44.402832 Q 216.93703 44.819824 216.65674 44.99756 Q 216.15771 45.305176 215.50145 45.305176 Q 214.33936 45.305176 213.61815 44.40625 Q 212.89697 43.507324 212.89697 42.324707 Q 212.89697 40.84131 213.76172 39.77832 Q 214.62646 38.715332 215.87744 38.715332 Q 216.37646 38.715332 216.79346 38.934082 Z M 216.9917 44.25244 Q 217.31984 43.93799 217.31984 43.65771 L 217.31984 40.725098 Q 217.31984 39.836426 216.84471 39.470703 Q 216.36963 39.10498 215.91844 39.10498 Q 215.05713 39.10498 214.57861 39.867188 Q 214.1001 40.629395 214.1001 41.743652 Q 214.1001 42.84424 214.60936 43.705563 Q 215.11864 44.5669 216.13037 44.5669 Q 216.66357 44.5669 216.9917 44.25244 Z M 224.45654 39.429688 Q 225.18114 40.09619 225.18114 41.319824 L 220.84033 41.319824 Q 220.90869 42.90576 221.5581 43.63037 Q 222.20753 44.35498 223.09619 44.35498 Q 223.81396 44.35498 224.30615 43.979004 Q 224.79832 43.603027 225.21532 42.912598 L 225.45459 42.994625 Q 225.17432 43.862793 224.40527 44.601074 Q 223.63623 45.339355 222.52197 45.339355 Q 221.23682 45.339355 220.53613 44.36865 Q 219.83545 43.39795 219.83545 42.1333 Q 219.83545 40.759277 220.64893 39.76123 Q 221.4624 38.763184 222.76807 38.763184 Q 223.73193 38.763184 224.45654 39.429688 Z M 221.18213 39.952637 Q 220.96336 40.321777 220.86766 40.882324 L 223.75244 40.882324 Q 223.67726 40.19873 223.49268 39.86377 Q 223.15771 39.262207 222.37157 39.262207 Q 221.59229 39.262207 221.18213 39.952637 Z M 222.6792 38.763184 L 222.6792 38.763184 Z M 226.32275 41.57959 L 229.76123 41.57959 L 229.76123 42.45459 L 226.32275 42.45459 L 226.32275 41.57959 Z M 234.61133 35.833984 Q 234.61475 35.851074 234.61475 35.912598 L 234.61475 44.143066 Q 234.61475 44.669434 234.895 44.81299 Q 235.17531 44.956543 235.94092 44.983883 L 235.94092 45.17529 L 232.08545 45.17529 L 232.08545 44.970215 Q 232.91258 44.9292 233.16554 44.74463 Q 233.41847 44.560055 233.41847 43.94482 L 233.41847 37.614746 Q 233.41847 37.28662 233.33643 37.115723 Q 233.2544 36.944824 232.98096 36.944824 Q 232.80322 36.944824 232.51953 37.043945 Q 232.23586 37.143066 231.98975 37.25244 L 231.98975 37.061035 L 234.49854 35.782715 L 234.58057 35.782715 Q 234.60791 35.816895 234.61133 35.833984 Z M 243.28271 41.93506 Q 242.4419 42.092285 242.04543 42.31787 Q 241.35498 42.72119 241.35498 43.507324 L 241.34132 45.612797 Q 241.34132 46.720215 240.521 47.19531 Q 239.70068 47.67041 238.30617 47.67041 L 238.30617 47.362797 Q 239.16748 47.191895 239.55711 46.952637 Q 240.25441 46.52881 240.25441 45.681152 L 240.26807 43.753414 Q 240.26807 42.82373 240.93114 42.331543 Q 241.59424 41.839355 242.87938 41.72998 L 242.87938 41.6958 Q 241.396 41.401855 240.95851 41.10791 Q 240.26807 40.643066 240.26807 39.49463 L 240.26807 37.819824 Q 240.26807 36.842285 239.45459 36.370605 Q 238.99658 36.104004 238.30617 36.021973 L 238.30617 35.714355 Q 240.063 35.714355 240.70216 36.27832 Q 241.34132 36.842285 241.34132 37.79248 L 241.35498 39.672363 Q 241.35498 40.663574 242.07275 41.09424 Q 242.48291 41.347168 243.28271 41.436035 L 243.28271 41.93506 Z"/>
    </g>
    <g>
        <path fill="#ffffff" stroke="#000000" d="M 66 148 L 188 148 L 188 172 L 66 172 Z"/>
    </g>
    <g>
        <path fill="#000000" stroke="none" d="M 101.71045 159.43604 Q 102.5376 159.34717 102.9751 159.0669 Q 103.64502 158.6294 103.64502 157.67236 L 103.65869 155.79248 Q 103.65869 154.52783 104.6499 154.06982 Q 105.22412 153.80322 106.687004 153.71436 L 106.687004 154.02197 Q 105.94873 154.104 105.336914 154.5039 Q 104.7251 154.90381 104.7251 155.81982 L 104.7251 157.49463 Q 104.7251 158.5747 104.20557 158.97803 Q 103.686035 159.38135 102.359856 159.64795 L 102.1206 159.6958 L 102.1206 159.72998 Q 103.52197 159.83936 104.11669 160.36572 Q 104.711426 160.89209 104.7251 161.75342 L 104.745605 163.68115 Q 104.75245 164.52881 105.436035 164.95264 Q 105.825676 165.1919 106.687004 165.3628 L 106.687004 165.67041 Q 105.312996 165.67041 104.48584 165.19873 Q 103.65869 164.72705 103.65869 163.6128 L 103.64502 161.50732 Q 103.64502 160.71436 102.934074 160.31104 Q 102.53076 160.08545 101.71045 159.93506 L 101.71045 159.43604 Z M 107.81494 162.98389 Q 108.300285 162.92236 108.49512 162.74121 Q 108.68994 162.56006 108.68994 161.93115 L 108.68994 158.46533 Q 108.68994 158.02783 108.60791 157.8501 Q 108.47803 157.59033 108.074715 157.59033 Q 108.013176 157.59033 107.94825 157.59717 Q 107.88331 157.604 107.787605 157.61768 L 107.787605 157.37842 Q 108.06787 157.29639 109.11378 156.95459 L 109.75635 156.74268 Q 109.8042 156.74268 109.81445 156.77686 Q 109.82471 156.81104 109.82471 156.87256 L 109.82471 157.87744 Q 110.45361 157.28955 110.809074 157.0708 Q 111.342285 156.73584 111.916504 156.73584 Q 112.38135 156.73584 112.76416 157.00244 Q 113.50244 157.52197 113.50244 158.85498 L 113.50244 162.04736 Q 113.50244 162.53955 113.700676 162.7583 Q 113.898926 162.97705 114.36377 162.98389 L 114.36377 163.1753 L 111.44483 163.1753 L 111.44483 162.98389 Q 111.94384 162.91553 112.14209 162.70703 Q 112.34034 162.49854 112.34034 161.80127 L 112.34034 158.88232 Q 112.34034 158.29443 112.12158 157.9082 Q 111.90283 157.52197 111.31494 157.52197 Q 110.91162 157.52197 110.49463 157.79541 Q 110.26221 157.95264 109.89307 158.31494 L 109.89307 162.14307 Q 109.89307 162.63525 110.11182 162.80273 Q 110.33056 162.97021 110.802246 162.98389 L 110.802246 163.1753 L 107.81494 163.1753 L 107.81494 162.98389 Z M 111.06885 156.73584 L 111.06885 156.73584 Z M 115.78223 157.70313 Q 116.64697 156.76318 118.007324 156.76318 Q 119.36084 156.76318 120.249504 157.65186 Q 121.13818 158.54053 121.13818 160.01709 Q 121.13818 161.37744 120.276855 162.38232 Q 119.415535 163.3872 118.04834 163.3872 Q 116.73584 163.3872 115.82666 162.42334 Q 114.91748 161.45947 114.91748 160.00342 Q 114.91748 158.64307 115.78223 157.70313 Z M 116.879395 157.52881 Q 116.1958 158.15088 116.1958 159.6753 Q 116.1958 160.89209 116.74609 161.94482 Q 117.29639 162.99756 118.273926 162.99756 Q 119.03955 162.99756 119.453125 162.29346 Q 119.8667 161.58936 119.8667 160.44775 Q 119.8667 159.26514 119.34033 158.21924 Q 118.813965 157.17334 117.81592 157.17334 Q 117.27589 157.17334 116.879395 157.52881 Z M 118.06885 156.76318 L 118.06885 156.76318 Z M 125.79346 156.93408 Q 126.066895 157.07764 126.319824 157.33057 L 126.319824 155.15674 Q 126.319824 154.73975 126.22754 154.58252 Q 126.135254 154.4253 125.78662 154.4253 Q 125.70459 154.4253 125.64307 154.43213 Q 125.58155 154.43896 125.36963 154.45947 L 125.36963 154.23389 L 125.930176 154.09033 Q 126.237785 154.0083 126.54541 153.91943 Q 126.85303 153.83057 127.08544 153.74854 Q 127.19483 153.71436 127.447754 153.61865 L 127.48877 153.63232 L 127.4751 154.3501 Q 127.468254 154.73975 127.461426 155.15332 Q 127.45459 155.5669 127.45459 155.97021 L 127.44092 161.55518 Q 127.44092 161.99951 127.55029 162.17725 Q 127.65966 162.35498 128.13135 162.35498 Q 128.20654 162.35498 128.28174 162.35156 Q 128.35693 162.34814 128.43213 162.33447 L 128.43213 162.56006 Q 128.39111 162.57373 127.44092 162.90186 L 126.367676 163.30518 L 126.319824 163.24365 L 126.319824 162.40283 Q 125.93701 162.81982 125.65674 162.99756 Q 125.157715 163.30518 124.501465 163.30518 Q 123.339355 163.30518 122.618164 162.40625 Q 121.89697 161.50732 121.89697 160.3247 Q 121.89697 158.84131 122.76172 157.77832 Q 123.626465 156.71533 124.87744 156.71533 Q 125.37646 156.71533 125.79346 156.93408 Z M 125.9917 162.25244 Q 126.319824 161.93799 126.319824 161.65771 L 126.319824 158.7251 Q 126.319824 157.83643 125.84473 157.4707 Q 125.36963 157.10498 124.91846 157.10498 Q 124.05713 157.10498 123.57861 157.86719 Q 123.1001 158.6294 123.1001 159.74365 Q 123.1001 160.84424 123.609375 161.70557 Q 124.11865 162.5669 125.13037 162.5669 Q 125.66357 162.5669 125.9917 162.25244 Z M 133.45654 157.42969 Q 134.18115 158.09619 134.18115 159.31982 L 129.84033 159.31982 Q 129.90869 160.90576 130.5581 161.63037 Q 131.20752 162.35498 132.09619 162.35498 Q 132.81396 162.35498 133.30615 161.979 Q 133.79834 161.60303 134.21533 160.9126 L 134.45459 160.99463 Q 134.17432 161.8628 133.40527 162.60107 Q 132.63623 163.33936 131.52197 163.33936 Q 130.23682 163.33936 129.53613 162.36865 Q 128.83545 161.39795 128.83545 160.1333 Q 128.83545 158.75928 129.64893 157.76123 Q 130.4624 156.76318 131.76807 156.76318 Q 132.73193 156.76318 133.45654 157.42969 Z M 130.18213 157.95264 Q 129.96338 158.32178 129.86768 158.88232 L 132.75244 158.88232 Q 132.67725 158.19873 132.49268 157.86377 Q 132.15771 157.2622 131.37158 157.2622 Q 130.59229 157.2622 130.18213 157.95264 Z M 131.6792 156.76318 L 131.6792 156.76318 Z M 135.32275 159.57959 L 138.76123 159.57959 L 138.76123 160.45459 L 135.32275 160.45459 L 135.32275 159.57959 Z M 139.85498 163.01807 Q 142.35693 160.42041 143.25244 159.20361 Q 144.14795 157.98682 144.14795 156.83154 Q 144.14795 155.81982 143.60107 155.29004 Q 143.0542 154.76025 142.29541 154.76025 Q 141.35889 154.76025 140.77783 155.44385 Q 140.45654 155.81982 140.1626 156.59912 L 139.86865 156.5376 Q 140.21045 154.96533 141.02734 154.35352 Q 141.84424 153.7417 142.78076 153.7417 Q 143.93604 153.7417 144.65039 154.46973 Q 145.36475 155.19775 145.36475 156.25049 Q 145.36475 157.37158 144.59229 158.41064 Q 143.81982 159.4497 141.23584 162.10889 L 144.37354 162.10889 Q 145.02979 162.10889 145.29639 161.95166 Q 145.56299 161.79443 145.89795 161.18604 L 146.07568 161.26807 L 145.3169 163.1753 L 139.85498 163.1753 L 139.85498 163.01807 Z M 152.28271 159.93506 Q 151.4419 160.09229 151.04541 160.31787 Q 150.35498 160.72119 150.35498 161.50732 L 150.34131 163.6128 Q 150.34131 164.72021 149.521 165.19531 Q 148.70068 165.67041 147.30615 165.67041 L 147.30615 165.3628 Q 148.16748 165.1919 148.55713 164.95264 Q 149.2544 164.52881 149.2544 163.68115 L 149.26807 161.75342 Q 149.26807 160.82373 149.93115 160.33154 Q 150.59424 159.83936 151.8794 159.72998 L 151.8794 159.6958 Q 150.396 159.40186 149.9585 159.10791 Q 149.26807 158.64307 149.26807 157.49463 L 149.26807 155.81982 Q 149.26807 154.84229 148.45459 154.3706 Q 147.99658 154.104 147.30615 154.02197 L 147.30615 153.71436 Q 149.06299 153.71436 149.70215 154.27832 Q 150.34131 154.84229 150.34131 155.79248 L 150.35498 157.67236 Q 150.35498 158.66357 151.07275 159.09424 Q 151.48291 159.34717 152.28271 159.43604 L 152.28271 159.93506 Z"/>
    </g>
    <g>
        <path fill="#ffffff" stroke="#000000" d="M 248 148 L 370 148 L 370 172 L 248 172 Z"/>
    </g>
    <g>
        <path fill="#000000" stroke="none" d="M 283.71045 159.43604 Q 284.5376 159.34717 284.9751 159.0669 Q 285.64502 158.6294 285.64502 157.67236 L 285.6587 155.79248 Q 285.6587 154.52783 286.6499 154.06982 Q 287.22412 153.80322 288.687 153.71436 L 288.687 154.02197 Q 287.94873 154.104 287.3369 154.5039 Q 286.7251 154.90381 286.7251 155.81982 L 286.7251 157.49463 Q 286.7251 158.5747 286.20557 158.97803 Q 285.68604 159.38135 284.35986 159.64795 L 284.1206 159.6958 L 284.1206 159.72998 Q 285.52197 159.83936 286.1167 160.36572 Q 286.71143 160.89209 286.7251 161.75342 L 286.7456 163.68115 Q 286.75244 164.52881 287.43604 164.95264 Q 287.82568 165.1919 288.687 165.3628 L 288.687 165.67041 Q 287.313 165.67041 286.48584 165.19873 Q 285.6587 164.72705 285.6587 163.6128 L 285.64502 161.50732 Q 285.64502 160.71436 284.93408 160.31104 Q 284.53076 160.08545 283.71045 159.93506 L 283.71045 159.43604 Z M 289.81494 162.98389 Q 290.3003 162.92236 290.49512 162.74121 Q 290.68994 162.56006 290.68994 161.93115 L 290.68994 158.46533 Q 290.68994 158.02783 290.6079 157.8501 Q 290.47803 157.59033 290.0747 157.59033 Q 290.01318 157.59033 289.94824 157.59717 Q 289.8833 157.604 289.7876 157.61768 L 289.7876 157.37842 Q 290.06787 157.29639 291.11377 156.95459 L 291.75635 156.74268 Q 291.8042 156.74268 291.81445 156.77686 Q 291.8247 156.81104 291.8247 156.87256 L 291.8247 157.87744 Q 292.4536 157.28955 292.80908 157.0708 Q 293.3423 156.73584 293.9165 156.73584 Q 294.38135 156.73584 294.76416 157.00244 Q 295.50244 157.52197 295.50244 158.85498 L 295.50244 162.04736 Q 295.50244 162.53955 295.70068 162.7583 Q 295.89893 162.97705 296.36377 162.98389 L 296.36377 163.1753 L 293.44482 163.1753 L 293.44482 162.98389 Q 293.94385 162.91553 294.1421 162.70703 Q 294.34033 162.49854 294.34033 161.80127 L 294.34033 158.88232 Q 294.34033 158.29443 294.12158 157.9082 Q 293.90283 157.52197 293.31494 157.52197 Q 292.91162 157.52197 292.49463 157.79541 Q 292.2622 157.95264 291.89307 158.31494 L 291.89307 162.14307 Q 291.89307 162.63525 292.11182 162.80273 Q 292.33057 162.97021 292.80225 162.98389 L 292.80225 163.1753 L 289.81494 163.1753 L 289.81494 162.98389 Z M 293.06885 156.73584 L 293.06885 156.73584 Z M 297.78223 157.70313 Q 298.64697 156.76318 300.00732 156.76318 Q 301.36084 156.76318 302.2495 157.65186 Q 303.13818 158.54053 303.13818 160.01709 Q 303.13818 161.37744 302.27686 162.38232 Q 301.41553 163.3872 300.04834 163.3872 Q 298.73584 163.3872 297.82666 162.42334 Q 296.91748 161.45947 296.91748 160.00342 Q 296.91748 158.64307 297.78223 157.70313 Z M 298.8794 157.52881 Q 298.1958 158.15088 298.1958 159.6753 Q 298.1958 160.89209 298.7461 161.94482 Q 299.2964 162.99756 300.27393 162.99756 Q 301.03955 162.99756 301.45313 162.29346 Q 301.8667 161.58936 301.8667 160.44775 Q 301.8667 159.26514 301.34033 158.21924 Q 300.81396 157.17334 299.81592 157.17334 Q 299.27588 157.17334 298.8794 157.52881 Z M 300.06885 156.76318 L 300.06885 156.76318 Z M 307.79346 156.93408 Q 308.0669 157.07764 308.31982 157.33057 L 308.31982 155.15674 Q 308.31982 154.73975 308.22754 154.58252 Q 308.13525 154.4253 307.78662 154.4253 Q 307.7046 154.4253 307.64307 154.43213 Q 307.58154 154.43896 307.36963 154.45947 L 307.36963 154.23389 L 307.93018 154.09033 Q 308.2378 154.0083 308.5454 153.91943 Q 308.85303 153.83057 309.08545 153.74854 Q 309.19482 153.71436 309.44775 153.61865 L 309.48877 153.63232 L 309.4751 154.3501 Q 309.46826 154.73975 309.46143 155.15332 Q 309.4546 155.5669 309.4546 155.97021 L 309.44092 161.55518 Q 309.44092 161.99951 309.5503 162.17725 Q 309.65967 162.35498 310.13135 162.35498 Q 310.20654 162.35498 310.28174 162.35156 Q 310.35693 162.34814 310.43213 162.33447 L 310.43213 162.56006 Q 310.3911 162.57373 309.44092 162.90186 L 308.36768 163.30518 L 308.31982 163.24365 L 308.31982 162.40283 Q 307.937 162.81982 307.65674 162.99756 Q 307.1577 163.30518 306.50146 163.30518 Q 305.33936 163.30518 304.61816 162.40625 Q 303.89697 161.50732 303.89697 160.3247 Q 303.89697 158.84131 304.76172 157.77832 Q 305.62646 156.71533 306.87744 156.71533 Q 307.37646 156.71533 307.79346 156.93408 Z M 307.9917 162.25244 Q 308.31982 161.93799 308.31982 161.65771 L 308.31982 158.7251 Q 308.31982 157.83643 307.84473 157.4707 Q 307.36963 157.10498 306.91846 157.10498 Q 306.05713 157.10498 305.5786 157.86719 Q 305.1001 158.6294 305.1001 159.74365 Q 305.1001 160.84424 305.60938 161.70557 Q 306.11865 162.5669 307.13037 162.5669 Q 307.66357 162.5669 307.9917 162.25244 Z M 315.45654 157.42969 Q 316.18115 158.09619 316.18115 159.31982 L 311.84033 159.31982 Q 311.9087 160.90576 312.5581 161.63037 Q 313.20752 162.35498 314.0962 162.35498 Q 314.81396 162.35498 315.30615 161.979 Q 315.79834 161.60303 316.21533 160.9126 L 316.4546 160.99463 Q 316.17432 161.8628 315.40527 162.60107 Q 314.63623 163.33936 313.52197 163.33936 Q 312.23682 163.33936 311.53613 162.36865 Q 310.83545 161.39795 310.83545 160.1333 Q 310.83545 158.75928 311.64893 157.76123 Q 312.4624 156.76318 313.76807 156.76318 Q 314.73193 156.76318 315.45654 157.42969 Z M 312.18213 157.95264 Q 311.96338 158.32178 311.86768 158.88232 L 314.75244 158.88232 Q 314.67725 158.19873 314.49268 157.86377 Q 314.1577 157.2622 313.37158 157.2622 Q 312.5923 157.2622 312.18213 157.95264 Z M 313.6792 156.76318 L 313.6792 156.76318 Z M 317.32275 159.57959 L 320.76123 159.57959 L 320.76123 160.45459 L 317.32275 160.45459 L 317.32275 159.57959 Z M 323.50586 162.36523 Q 324.13818 162.80615 324.47998 162.80615 Q 325.2661 162.80615 325.854 162.1123 Q 326.4419 161.41846 326.4419 160.40674 Q 326.4419 158.63623 324.55518 157.85693 Q 323.50928 157.42627 322.60693 157.42627 Q 322.45654 157.42627 322.41895 157.41602 Q 322.38135 157.40576 322.32666 157.34424 Q 322.34033 157.28955 322.3506 157.25195 Q 322.36084 157.21436 322.3745 157.18018 L 323.86475 153.9126 L 326.79736 153.9126 Q 327.0161 153.9126 327.13574 153.8374 Q 327.25537 153.7622 327.44678 153.55713 L 327.55615 153.65283 L 327.02295 154.91748 Q 326.9956 154.979 326.87256 154.9961 Q 326.7495 155.01318 326.60596 155.01318 L 323.96045 155.01318 L 323.3794 156.20947 Q 324.5005 156.40088 325.02002 156.57178 Q 325.8745 156.85889 326.44873 157.41943 Q 326.94092 157.90479 327.19385 158.50977 Q 327.44678 159.11475 327.44678 159.7915 Q 327.44678 161.30225 326.37012 162.31396 Q 325.29346 163.32568 323.646 163.32568 Q 322.97607 163.32568 322.56592 163.1958 Q 321.88232 162.98389 321.88232 162.43701 Q 321.88232 162.23193 322.0293 162.07813 Q 322.17627 161.92432 322.4839 161.92432 Q 322.87354 161.92432 323.50586 162.36523 Z M 334.2827 159.93506 Q 333.4419 160.09229 333.0454 160.31787 Q 332.35498 160.72119 332.35498 161.50732 L 332.3413 163.6128 Q 332.3413 164.72021 331.521 165.19531 Q 330.70068 165.67041 329.30615 165.67041 L 329.30615 165.3628 Q 330.16748 165.1919 330.55713 164.95264 Q 331.2544 164.52881 331.2544 163.68115 L 331.26807 161.75342 Q 331.26807 160.82373 331.93115 160.33154 Q 332.59424 159.83936 333.8794 159.72998 L 333.8794 159.6958 Q 332.396 159.40186 331.9585 159.10791 Q 331.26807 158.64307 331.26807 157.49463 L 331.26807 155.81982 Q 331.26807 154.84229 330.4546 154.3706 Q 329.99658 154.104 329.30615 154.02197 L 329.30615 153.71436 Q 331.063 153.71436 331.70215 154.27832 Q 332.3413 154.84229 332.3413 155.79248 L 332.35498 157.67236 Q 332.35498 158.66357 333.07275 159.09424 Q 333.4829 159.34717 334.2827 159.43604 L 334.2827 159.93506 Z"/>
    </g>
    <g>
        <path fill="#ffffff" stroke="#000000" d="M 66 266 L 188 266 L 188 290 L 66 290 Z"/>
    </g>
    <g>
        <path fill="#000000" stroke="none" d="M 101.71045 277.43604 Q 102.5376 277.34717 102.9751 277.0669 Q 103.64502 276.6294 103.64502 275.67236 L 103.65869 273.79248 Q 103.65869 272.52783 104.6499 272.06982 Q 105.22412 271.80322 106.687004 271.71436 L 106.687004 272.02197 Q 105.94873 272.104 105.336914 272.5039 Q 104.7251 272.9038 104.7251 273.81982 L 104.7251 275.49463 Q 104.7251 276.5747 104.20557 276.97803 Q 103.686035 277.38135 102.359856 277.64795 L 102.1206 277.6958 L 102.1206 277.72998 Q 103.52197 277.83936 104.11669 278.36572 Q 104.711426 278.8921 104.7251 279.75342 L 104.745605 281.68115 Q 104.75245 282.5288 105.436035 282.95264 Q 105.825676 283.1919 106.687004 283.3628 L 106.687004 283.6704 Q 105.312996 283.6704 104.48584 283.19873 Q 103.65869 282.72705 103.65869 281.6128 L 103.64502 279.50732 Q 103.64502 278.71436 102.934074 278.31104 Q 102.53076 278.08545 101.71045 277.93506 L 101.71045 277.43604 Z M 107.81494 280.9839 Q 108.300285 280.92236 108.49512 280.7412 Q 108.68994 280.56006 108.68994 279.93115 L 108.68994 276.46533 Q 108.68994 276.02783 108.60791 275.8501 Q 108.47803 275.59033 108.074715 275.59033 Q 108.013176 275.59033 107.94825 275.59717 Q 107.88331 275.604 107.787605 275.61768 L 107.787605 275.37842 Q 108.06787 275.2964 109.11378 274.9546 L 109.75635 274.74268 Q 109.8042 274.74268 109.81445 274.77686 Q 109.82471 274.81104 109.82471 274.87256 L 109.82471 275.87744 Q 110.45361 275.28955 110.809074 275.0708 Q 111.342285 274.73584 111.916504 274.73584 Q 112.38135 274.73584 112.76416 275.00244 Q 113.50244 275.52197 113.50244 276.85498 L 113.50244 280.04736 Q 113.50244 280.53955 113.700676 280.7583 Q 113.898926 280.97705 114.36377 280.9839 L 114.36377 281.1753 L 111.44483 281.1753 L 111.44483 280.9839 Q 111.94384 280.91553 112.14209 280.70703 Q 112.34034 280.49854 112.34034 279.80127 L 112.34034 276.88232 Q 112.34034 276.29443 112.12158 275.9082 Q 111.90283 275.52197 111.31494 275.52197 Q 110.91162 275.52197 110.49463 275.7954 Q 110.26221 275.95264 109.89307 276.31494 L 109.89307 280.14307 Q 109.89307 280.63525 110.11182 280.80273 Q 110.33056 280.9702 110.802246 280.9839 L 110.802246 281.1753 L 107.81494 281.1753 L 107.81494 280.9839 Z M 111.06885 274.73584 L 111.06885 274.73584 Z M 115.78223 275.70313 Q 116.64697 274.76318 118.007324 274.76318 Q 119.36084 274.76318 120.249504 275.65186 Q 121.13818 276.54053 121.13818 278.0171 Q 121.13818 279.37744 120.276855 280.38232 Q 119.415535 281.3872 118.04834 281.3872 Q 116.73584 281.3872 115.82666 280.42334 Q 114.91748 279.45947 114.91748 278.00342 Q 114.91748 276.64307 115.78223 275.70313 Z M 116.879395 275.5288 Q 116.1958 276.15088 116.1958 277.6753 Q 116.1958 278.8921 116.74609 279.94482 Q 117.29639 280.99756 118.273926 280.99756 Q 119.03955 280.99756 119.453125 280.29346 Q 119.8667 279.58936 119.8667 278.44775 Q 119.8667 277.26514 119.34033 276.21924 Q 118.813965 275.17334 117.81592 275.17334 Q 117.27589 275.17334 116.879395 275.5288 Z M 118.06885 274.76318 L 118.06885 274.76318 Z M 125.79346 274.93408 Q 126.066895 275.07764 126.319824 275.33057 L 126.319824 273.15674 Q 126.319824 272.73975 126.22754 272.58252 Q 126.135254 272.4253 125.78662 272.4253 Q 125.70459 272.4253 125.64307 272.43213 Q 125.58155 272.43896 125.36963 272.45947 L 125.36963 272.2339 L 125.930176 272.09033 Q 126.237785 272.0083 126.54541 271.91943 Q 126.85303 271.83057 127.08544 271.74854 Q 127.19483 271.71436 127.447754 271.61865 L 127.48877 271.63232 L 127.4751 272.3501 Q 127.468254 272.73975 127.461426 273.15332 Q 127.45459 273.5669 127.45459 273.9702 L 127.44092 279.55518 Q 127.44092 279.9995 127.55029 280.17725 Q 127.65966 280.35498 128.13135 280.35498 Q 128.20654 280.35498 128.28174 280.35156 Q 128.35693 280.34814 128.43213 280.33447 L 128.43213 280.56006 Q 128.39111 280.57373 127.44092 280.90186 L 126.367676 281.30518 L 126.319824 281.24365 L 126.319824 280.40283 Q 125.93701 280.81982 125.65674 280.99756 Q 125.157715 281.30518 124.501465 281.30518 Q 123.339355 281.30518 122.618164 280.40625 Q 121.89697 279.50732 121.89697 278.3247 Q 121.89697 276.8413 122.76172 275.77832 Q 123.626465 274.71533 124.87744 274.71533 Q 125.37646 274.71533 125.79346 274.93408 Z M 125.9917 280.25244 Q 126.319824 279.938 126.319824 279.6577 L 126.319824 276.7251 Q 126.319824 275.83643 125.84473 275.4707 Q 125.36963 275.10498 124.91846 275.10498 Q 124.05713 275.10498 123.57861 275.8672 Q 123.1001 276.6294 123.1001 277.74365 Q 123.1001 278.84424 123.609375 279.70557 Q 124.11865 280.5669 125.13037 280.5669 Q 125.66357 280.5669 125.9917 280.25244 Z M 133.45654 275.4297 Q 134.18115 276.0962 134.18115 277.31982 L 129.84033 277.31982 Q 129.90869 278.90576 130.5581 279.63037 Q 131.20752 280.35498 132.09619 280.35498 Q 132.81396 280.35498 133.30615 279.979 Q 133.79834 279.60303 134.21533 278.9126 L 134.45459 278.99463 Q 134.17432 279.8628 133.40527 280.60107 Q 132.63623 281.33936 131.52197 281.33936 Q 130.23682 281.33936 129.53613 280.36865 Q 128.83545 279.39795 128.83545 278.1333 Q 128.83545 276.75928 129.64893 275.76123 Q 130.4624 274.76318 131.76807 274.76318 Q 132.73193 274.76318 133.45654 275.4297 Z M 130.18213 275.95264 Q 129.96338 276.32178 129.86768 276.88232 L 132.75244 276.88232 Q 132.67725 276.19873 132.49268 275.86377 Q 132.15771 275.2622 131.37158 275.2622 Q 130.59229 275.2622 130.18213 275.95264 Z M 131.6792 274.76318 L 131.6792 274.76318 Z M 135.32275 277.5796 L 138.76123 277.5796 L 138.76123 278.4546 L 135.32275 278.4546 L 135.32275 277.5796 Z M 141.51953 280.3755 Q 142.13818 280.76514 142.56885 280.76514 Q 143.52588 280.76514 143.99072 280.11914 Q 144.45557 279.47314 144.45557 278.71436 Q 144.45557 277.9829 144.07959 277.4292 Q 143.44385 276.49268 141.9331 276.49268 Q 141.84424 276.49268 141.7622 276.4961 Q 141.68018 276.4995 141.5708 276.51318 L 141.55713 276.33545 Q 142.65088 275.93896 143.27979 275.42627 Q 143.90869 274.91357 143.90869 274.07275 Q 143.90869 273.32764 143.41309 272.938 Q 142.91748 272.54834 142.28174 272.54834 Q 141.52979 272.54834 140.95557 273.10205 Q 140.64111 273.40283 140.27881 274.03174 L 140.0669 273.9839 Q 140.34033 272.94482 141.08545 272.32275 Q 141.83057 271.70068 142.8081 271.70068 Q 143.854 271.70068 144.4248 272.2749 Q 144.9956 272.84912 144.9956 273.60107 Q 144.9956 274.26416 144.52393 274.81787 Q 144.25732 275.13232 143.69678 275.52197 Q 144.35303 275.80225 144.74951 276.17822 Q 145.49463 276.896 145.49463 277.99658 Q 145.49463 279.2954 144.47266 280.28662 Q 143.45068 281.27783 141.56396 281.27783 Q 140.72314 281.27783 140.38477 281.02832 Q 140.04639 280.7788 140.04639 280.4917 Q 140.04639 280.31396 140.15918 280.1499 Q 140.27197 279.98584 140.5249 279.98584 Q 140.90088 279.98584 141.51953 280.3755 Z M 152.28271 277.93506 Q 151.4419 278.0923 151.04541 278.31787 Q 150.35498 278.7212 150.35498 279.50732 L 150.34131 281.6128 Q 150.34131 282.7202 149.521 283.1953 Q 148.70068 283.6704 147.30615 283.6704 L 147.30615 283.3628 Q 148.16748 283.1919 148.55713 282.95264 Q 149.2544 282.5288 149.2544 281.68115 L 149.26807 279.75342 Q 149.26807 278.82373 149.93115 278.33154 Q 150.59424 277.83936 151.8794 277.72998 L 151.8794 277.6958 Q 150.396 277.40186 149.9585 277.1079 Q 149.26807 276.64307 149.26807 275.49463 L 149.26807 273.81982 Q 149.26807 272.8423 148.45459 272.3706 Q 147.99658 272.104 147.30615 272.02197 L 147.30615 271.71436 Q 149.06299 271.71436 149.70215 272.27832 Q 150.34131 272.8423 150.34131 273.79248 L 150.35498 275.67236 Q 150.35498 276.66357 151.07275 277.09424 Q 151.48291 277.34717 152.28271 277.43604 L 152.28271 277.93506 Z"/>
    </g>
    <g>
        <path fill="#ffffff" stroke="#000000" d="M 66 384 L 188 384 L 188 408 L 66 408 Z"/>
    </g>
    <g>
        <path fill="#000000" stroke="none" d="M 101.71045 395.43604 Q 102.5376 395.34714 102.9751 395.0669 Q 103.64502 394.6294 103.64502 393.67236 L 103.65869 391.79248 Q 103.65869 390.52783 104.6499 390.06982 Q 105.22412 389.80322 106.687004 389.71436 L 106.687004 390.02197 Q 105.94873 390.10403 105.336914 390.5039 Q 104.7251 390.9038 104.7251 391.81982 L 104.7251 393.4946 Q 104.7251 394.57474 104.20557 394.97803 Q 103.686035 395.38135 102.359856 395.64795 L 102.1206 395.6958 L 102.1206 395.72995 Q 103.52197 395.83936 104.11669 396.36575 Q 104.711426 396.8921 104.7251 397.75342 L 104.745605 399.68115 Q 104.75245 400.5288 105.436035 400.95264 Q 105.825676 401.1919 106.687004 401.3628 L 106.687004 401.67038 Q 105.312996 401.67038 104.48584 401.19873 Q 103.65869 400.72705 103.65869 399.6128 L 103.64502 397.50732 Q 103.64502 396.71436 102.934074 396.311 Q 102.53076 396.08545 101.71045 395.93506 L 101.71045 395.43604 Z M 107.81494 398.98392 Q 108.300285 398.9224 108.49512 398.7412 Q 108.68994 398.56006 108.68994 397.93115 L 108.68994 394.46533 Q 108.68994 394.02783 108.60791 393.8501 Q 108.47803 393.59033 108.074715 393.59033 Q 108.013176 393.59033 107.94825 393.59717 Q 107.88331 393.604 107.787605 393.6177 L 107.787605 393.37842 Q 108.06787 393.29642 109.11378 392.9546 L 109.75635 392.74268 Q 109.8042 392.74268 109.81445 392.77686 Q 109.82471 392.81104 109.82471 392.87256 L 109.82471 393.8774 Q 110.45361 393.28955 110.809074 393.0708 Q 111.342285 392.73584 111.916504 392.73584 Q 112.38135 392.73584 112.76416 393.00244 Q 113.50244 393.52197 113.50244 394.85498 L 113.50244 398.04736 Q 113.50244 398.53958 113.700676 398.7583 Q 113.898926 398.97705 114.36377 398.98392 L 114.36377 399.17532 L 111.44483 399.17532 L 111.44483 398.98392 Q 111.94384 398.91556 112.14209 398.707 Q 112.34034 398.49854 112.34034 397.80127 L 112.34034 394.88232 Q 112.34034 394.29443 112.12158 393.90817 Q 111.90283 393.52197 111.31494 393.52197 Q 110.91162 393.52197 110.49463 393.7954 Q 110.26221 393.95264 109.89307 394.31497 L 109.89307 398.14307 Q 109.89307 398.63525 110.11182 398.80273 Q 110.33056 398.9702 110.802246 398.98392 L 110.802246 399.17532 L 107.81494 399.17532 L 107.81494 398.98392 Z M 111.06885 392.73584 L 111.06885 392.73584 Z M 115.78223 393.70313 Q 116.64697 392.76318 118.007324 392.76318 Q 119.36084 392.76318 120.249504 393.65186 Q 121.13818 394.54053 121.13818 396.0171 Q 121.13818 397.37744 120.276855 398.38232 Q 119.415535 399.3872 118.04834 399.3872 Q 116.73584 399.3872 115.82666 398.42334 Q 114.91748 397.45944 114.91748 396.00342 Q 114.91748 394.64304 115.78223 393.70313 Z M 116.879395 393.5288 Q 116.1958 394.15088 116.1958 395.6753 Q 116.1958 396.8921 116.74609 397.94482 Q 117.29639 398.99756 118.273926 398.99756 Q 119.03955 398.99756 119.453125 398.29346 Q 119.8667 397.58932 119.8667 396.44775 Q 119.8667 395.26514 119.34033 394.21924 Q 118.813965 393.1733 117.81592 393.1733 Q 117.27589 393.1733 116.879395 393.5288 Z M 118.06885 392.76318 L 118.06885 392.76318 Z M 125.79346 392.93408 Q 126.066895 393.07764 126.319824 393.33057 L 126.319824 391.15674 Q 126.319824 390.73978 126.22754 390.58252 Q 126.135254 390.42532 125.78662 390.42532 Q 125.70459 390.42532 125.64307 390.4321 Q 125.58155 390.43896 125.36963 390.45947 L 125.36963 390.23386 L 125.930176 390.09033 Q 126.237785 390.0083 126.54541 389.9194 Q 126.85303 389.83057 127.08544 389.74854 Q 127.19483 389.71436 127.447754 389.61865 L 127.48877 389.63232 L 127.4751 390.3501 Q 127.468254 390.73978 127.461426 391.15335 Q 127.45459 391.5669 127.45459 391.9702 L 127.44092 397.55518 Q 127.44092 397.9995 127.55029 398.17725 Q 127.65966 398.35495 128.13135 398.35495 Q 128.20654 398.35495 128.28174 398.35156 Q 128.35693 398.3481 128.43213 398.33447 L 128.43213 398.56006 Q 128.39111 398.57373 127.44092 398.90186 L 126.367676 399.3052 L 126.319824 399.24362 L 126.319824 398.40283 Q 125.93701 398.81982 125.65674 398.99756 Q 125.157715 399.3052 124.501465 399.3052 Q 123.339355 399.3052 122.618164 398.40625 Q 121.89697 397.50732 121.89697 396.3247 Q 121.89697 394.84128 122.76172 393.77835 Q 123.626465 392.71533 124.87744 392.71533 Q 125.37646 392.71533 125.79346 392.93408 Z M 125.9917 398.25244 Q 126.319824 397.938 126.319824 397.6577 L 126.319824 394.7251 Q 126.319824 393.83643 125.84473 393.4707 Q 125.36963 393.105 124.91846 393.105 Q 124.05713 393.105 123.57861 393.8672 Q 123.1001 394.6294 123.1001 395.74365 Q 123.1001 396.84424 123.609375 397.7056 Q 124.11865 398.5669 125.13037 398.5669 Q 125.66357 398.5669 125.9917 398.25244 Z M 133.45654 393.4297 Q 134.18115 394.0962 134.18115 395.31982 L 129.84033 395.31982 Q 129.90869 396.90576 130.5581 397.63037 Q 131.20752 398.35495 132.09619 398.35495 Q 132.81396 398.35495 133.30615 397.979 Q 133.79834 397.60303 134.21533 396.9126 L 134.45459 396.99463 Q 134.17432 397.8628 133.40527 398.6011 Q 132.63623 399.33936 131.52197 399.33936 Q 130.23682 399.33936 129.53613 398.36865 Q 128.83545 397.39795 128.83545 396.1333 Q 128.83545 394.75928 129.64893 393.76123 Q 130.4624 392.76318 131.76807 392.76318 Q 132.73193 392.76318 133.45654 393.4297 Z M 130.18213 393.95264 Q 129.96338 394.3218 129.86768 394.88232 L 132.75244 394.88232 Q 132.67725 394.1987 132.49268 393.86377 Q 132.15771 393.2622 131.37158 393.2622 Q 130.59229 393.2622 130.18213 393.95264 Z M 131.6792 392.76318 L 131.6792 392.76318 Z M 135.32275 395.5796 L 138.76123 395.5796 L 138.76123 396.4546 L 135.32275 396.4546 L 135.32275 395.5796 Z M 143.51904 391.19095 L 140.1626 395.93506 L 143.51904 395.93506 L 143.51904 391.19095 Z M 143.97021 389.78275 L 144.61963 389.78275 L 144.61963 395.93506 L 146.04834 395.93506 L 146.04834 396.84424 L 144.61963 396.84424 L 144.61963 399.17532 L 143.53271 399.17532 L 143.53271 396.84424 L 139.59521 396.84424 L 139.59521 395.93506 L 143.97021 389.78275 Z M 152.28271 395.93506 Q 151.4419 396.0923 151.04541 396.31787 Q 150.35498 396.7212 150.35498 397.50732 L 150.34131 399.6128 Q 150.34131 400.7202 149.521 401.19528 Q 148.70068 401.67038 147.30615 401.67038 L 147.30615 401.3628 Q 148.16748 401.1919 148.55713 400.95264 Q 149.2544 400.5288 149.2544 399.68115 L 149.26807 397.75342 Q 149.26807 396.82373 149.93115 396.33154 Q 150.59424 395.83936 151.8794 395.72995 L 151.8794 395.6958 Q 150.396 395.4019 149.9585 395.1079 Q 149.26807 394.64304 149.26807 393.4946 L 149.26807 391.81982 Q 149.26807 390.8423 148.45459 390.3706 Q 147.99658 390.10403 147.30615 390.02197 L 147.30615 389.71436 Q 149.06299 389.71436 149.70215 390.27832 Q 150.34131 390.8423 150.34131 391.79248 L 150.35498 393.67236 Q 150.35498 394.66357 151.07275 395.0942 Q 151.48291 395.34714 152.28271 395.43604 L 152.28271 395.93506 Z"/>
    </g>
    <g>
        <path fill="#000000" stroke="none" d="M 86.60352 100.43604 Q 87.430664 100.34717 87.86816 100.066895 Q 88.53808 99.629395 88.53808 98.67236 L 88.551765 96.79248 Q 88.551765 95.52783 89.54298 95.06983 Q 90.117195 94.80322 91.58008 94.714355 L 91.58008 95.02198 Q 90.8418 95.104 90.22999 95.50391 Q 89.618164 95.90381 89.618164 96.819824 L 89.618164 98.49463 Q 89.618164 99.5747 89.09863 99.97803 Q 88.5791 100.38135 87.25293 100.64795 L 87.01367 100.6958 L 87.01367 100.72998 Q 88.41504 100.839355 89.009766 101.36572 Q 89.60449 101.89208 89.618164 102.75341 L 89.63868 104.68115 Q 89.64551 105.52881 90.3291 105.95264 Q 90.71875 106.191895 91.58008 106.3628 L 91.58008 106.67041 Q 90.206055 106.67041 89.37891 106.19873 Q 88.551765 105.72705 88.551765 104.61279 L 88.53808 102.507324 Q 88.53808 101.71436 87.82715 101.311035 Q 87.42383 101.08545 86.60352 100.93506 L 86.60352 100.43604 Z M 97.34961 98.42969 Q 98.07421 99.09618 98.07421 100.319824 L 93.7334 100.319824 Q 93.80176 101.90577 94.45117 102.63037 Q 95.10059 103.35498 95.98926 103.35498 Q 96.70703 103.35498 97.19922 102.979004 Q 97.6914 102.60303 98.1084 101.9126 L 98.34766 101.99463 Q 98.06738 102.8628 97.29834 103.60107 Q 96.5293 104.339355 95.41504 104.339355 Q 94.12988 104.339355 93.4292 103.36865 Q 92.728516 102.39795 92.728516 101.1333 Q 92.728516 99.75928 93.54199 98.76122 Q 94.35547 97.76318 95.66114 97.76318 Q 96.625 97.76318 97.34961 98.42969 Z M 94.075195 98.95263 Q 93.85644 99.32178 93.760735 99.882324 L 96.64551 99.882324 Q 96.57032 99.19873 96.38574 98.86377 Q 96.05078 98.26221 95.26465 98.26221 Q 94.48535 98.26221 94.075195 98.95263 Z M 95.572266 97.76318 L 95.572266 97.76318 Z M 102.90039 97.93408 Q 103.17383 98.07764 103.42676 98.33056 L 103.42676 96.15673 Q 103.42676 95.73975 103.33447 95.58251 Q 103.24219 95.42529 102.893555 95.42529 Q 102.81152 95.42529 102.75 95.43213 Q 102.688484 95.43896 102.47656 95.45947 L 102.47656 95.23389 L 103.03711 95.09033 Q 103.34472 95.00829 103.65234 94.91943 Q 103.95996 94.830574 104.192375 94.748535 Q 104.301765 94.714355 104.55469 94.61865 L 104.5957 94.632324 L 104.58203 95.3501 Q 104.57519 95.73975 104.56836 96.15332 Q 104.56152 96.566895 104.56152 96.97022 L 104.54785 102.555176 Q 104.54785 102.99951 104.65723 103.177246 Q 104.766594 103.35498 105.23828 103.35498 Q 105.31348 103.35498 105.388664 103.35156 Q 105.46387 103.348145 105.53906 103.33447 L 105.53906 103.56006 Q 105.49805 103.57373 104.54785 103.90186 L 103.47461 104.305176 L 103.42676 104.24365 L 103.42676 103.40283 Q 103.043945 103.819824 102.76367 103.99757 Q 102.26465 104.305176 101.6084 104.305176 Q 100.44629 104.305176 99.7251 103.40626 Q 99.00391 102.507324 99.00391 101.32471 Q 99.00391 99.84131 99.86865 98.77832 Q 100.7334 97.71533 101.98438 97.71533 Q 102.48339 97.71533 102.90039 97.93408 Z M 103.09863 103.25244 Q 103.42676 102.93799 103.42676 102.65771 L 103.42676 99.7251 Q 103.42676 98.836426 102.95166 98.47071 Q 102.47656 98.10497 102.02539 98.10497 Q 101.16406 98.10497 100.68555 98.86719 Q 100.20703 99.629395 100.20703 100.74365 Q 100.20703 101.84423 100.71631 102.70556 Q 101.225586 103.5669 102.237305 103.5669 Q 102.7705 103.5669 103.09863 103.25244 Z M 107.68896 106.23291 Q 108.33496 106.45166 109.168945 106.45166 Q 110.30371 106.45166 111.01465 106.0586 Q 111.725586 105.66553 111.725586 105.09131 Q 111.725586 104.6333 111.15137 104.48291 Q 110.7959 104.39404 109.80469 104.38038 Q 109.55176 104.373535 109.27148 104.36328 Q 108.99121 104.35303 108.75878 104.339355 Q 108.6084 104.33253 108.27344 104.284676 Q 107.93848 104.236824 107.774414 104.20264 Q 107.69238 104.20264 107.371086 104.6333 Q 107.04297 105.07079 107.04297 105.43994 Q 107.04297 106.01416 107.68896 106.23291 Z M 106.964355 101.14697 Q 106.61913 100.620605 106.61913 99.964355 Q 106.61913 99.16455 107.25488 98.44678 Q 107.890625 97.729004 109.052734 97.729004 Q 109.55176 97.729004 110.15332 97.96484 Q 110.75489 98.20069 111.30859 98.20069 Q 111.45215 98.20069 111.742676 98.19043 Q 112.033195 98.180176 112.163086 98.180176 L 112.24512 98.180176 L 112.24512 98.73389 L 111.0625 98.73389 Q 111.185555 99.020996 111.25391 99.23291 Q 111.37012 99.629395 111.37012 99.98486 Q 111.37012 100.76416 110.72411 101.41699 Q 110.078125 102.069824 108.984375 102.069824 Q 108.81348 102.069824 108.36914 102.0083 Q 108.1709 102.0083 107.84619 102.34326 Q 107.521484 102.67822 107.521484 102.89014 Q 107.521484 103.10889 108 103.211426 Q 108.31445 103.27979 108.697266 103.27979 Q 110.4541 103.27979 111.08301 103.47803 Q 112.115234 103.79932 112.115234 104.85889 Q 112.115234 105.938965 110.90869 106.58154 Q 109.70214 107.22413 108.47167 107.22413 Q 107.350586 107.22413 106.694336 106.76953 Q 106.038086 106.31493 106.038086 105.81592 Q 106.038086 105.569824 106.2124 105.333984 Q 106.38672 105.098145 106.899414 104.6333 L 107.350586 104.22998 L 107.432625 104.14795 Q 107.118164 104.0249 106.96094 103.90869 Q 106.6875 103.69677 106.6875 103.42335 Q 106.6875 103.17041 106.92333 102.8662 Q 107.15918 102.562004 107.93164 101.87842 Q 107.30957 101.67334 106.964355 101.14697 Z M 109.85938 101.53662 Q 110.26953 101.208496 110.26953 100.39502 Q 110.26953 99.745605 109.93799 98.93213 Q 109.60644 98.11865 108.833984 98.11865 Q 108.16406 98.11865 107.91114 98.754395 Q 107.78125 99.089355 107.78125 99.58154 Q 107.78125 100.41553 108.18456 101.07861 Q 108.58789 101.7417 109.23047 101.7417 Q 109.60644 101.7417 109.85938 101.53662 Z M 109.17577 97.729004 L 109.17577 97.729004 Z M 117.56348 98.42969 Q 118.288086 99.09618 118.288086 100.319824 L 113.947266 100.319824 Q 114.01562 101.90577 114.66504 102.63037 Q 115.31445 103.35498 116.20312 103.35498 Q 116.92089 103.35498 117.413086 102.979004 Q 117.90527 102.60303 118.322266 101.9126 L 118.56152 101.99463 Q 118.28125 102.8628 117.5122 103.60107 Q 116.74317 104.339355 115.6289 104.339355 Q 114.34375 104.339355 113.64307 103.36865 Q 112.94239 102.39795 112.94239 101.1333 Q 112.94239 99.75928 113.75586 98.76122 Q 114.569336 97.76318 115.875 97.76318 Q 116.838875 97.76318 117.56348 98.42969 Z M 114.28906 98.95263 Q 114.07031 99.32178 113.97461 99.882324 L 116.859375 99.882324 Q 116.78418 99.19873 116.59962 98.86377 Q 116.264656 98.26221 115.478516 98.26221 Q 114.69923 98.26221 114.28906 98.95263 Z M 115.78614 97.76318 L 115.78614 97.76318 Z M 119.42968 100.5796 L 122.868164 100.5796 L 122.868164 101.45459 L 119.42968 101.45459 L 119.42968 100.5796 Z M 127.718254 94.833984 Q 127.72168 94.851074 127.72168 94.9126 L 127.72168 103.14307 Q 127.72168 103.66943 128.00195 103.81299 Q 128.28223 103.95654 129.04785 103.98388 L 129.04785 104.175285 L 125.19238 104.175285 L 125.19238 103.970215 Q 126.01953 103.9292 126.27246 103.74462 Q 126.52539 103.56006 126.52539 102.94482 L 126.52539 96.614746 Q 126.52539 96.28662 126.44336 96.11572 Q 126.36132 95.944824 126.0879 95.944824 Q 125.91016 95.944824 125.62646 96.04395 Q 125.34277 96.14307 125.09669 96.25243 L 125.09669 96.06103 L 127.60548 94.78271 L 127.68749 94.78271 Q 127.71484 94.816895 127.718254 94.833984 Z M 136.38965 100.93506 Q 135.54883 101.09228 135.15234 101.31787 Q 134.46191 101.72119 134.46191 102.507324 L 134.44824 104.61279 Q 134.44824 105.720215 133.62793 106.19531 Q 132.80762 106.67041 131.41309 106.67041 L 131.41309 106.3628 Q 132.27441 106.191895 132.66406 105.95264 Q 133.36133 105.52881 133.36133 104.68115 L 133.375 102.75341 Q 133.375 101.82373 134.03809 101.331535 Q 134.70117 100.839355 135.98633 100.72998 L 135.98633 100.6958 Q 134.50293 100.401855 134.06543 100.10791 Q 133.375 99.64307 133.375 98.49463 L 133.375 96.819824 Q 133.375 95.842285 132.56152 95.370605 Q 132.10352 95.104 131.41309 95.02198 L 131.41309 94.714355 Q 133.16992 94.714355 133.80908 95.27831 Q 134.44824 95.842285 134.44824 96.79248 L 134.46191 98.67236 Q 134.46191 99.663574 135.17969 100.09424 Q 135.58984 100.34717 136.38965 100.43604 L 136.38965 100.93506 Z"/>
    </g>
    <g>
        <path fill="#000000" stroke="none" d="M 223.10352 100.43604 Q 223.93065 100.34717 224.36816 100.066895 Q 225.03809 99.629395 225.03809 98.67236 L 225.05176 96.79248 Q 225.05176 95.52783 226.04297 95.06983 Q 226.61719 94.80322 228.0801 94.714355 L 228.0801 95.02198 Q 227.3418 95.104 226.72998 95.50391 Q 226.11816 95.90381 226.11816 96.819824 L 226.11816 98.49463 Q 226.11816 99.5747 225.59863 99.97803 Q 225.07912 100.38135 223.75293 100.64795 L 223.51369 100.6958 L 223.51369 100.72998 Q 224.91504 100.839355 225.50977 101.36572 Q 226.10448 101.89208 226.11816 102.75341 L 226.13867 104.68115 Q 226.14551 105.52881 226.8291 105.95264 Q 227.21877 106.191895 228.0801 106.3628 L 228.0801 106.67041 Q 226.70607 106.67041 225.87889 106.19873 Q 225.05176 105.72705 225.05176 104.61279 L 225.03809 102.507324 Q 225.03809 101.71436 224.32715 101.311035 Q 223.92383 101.08545 223.10352 100.93506 L 223.10352 100.43604 Z M 233.84961 98.42969 Q 234.57422 99.09618 234.57422 100.319824 L 230.2334 100.319824 Q 230.30176 101.90577 230.95117 102.63037 Q 231.60059 103.35498 232.48927 103.35498 Q 233.20703 103.35498 233.69922 102.979004 Q 234.1914 102.60303 234.6084 101.9126 L 234.84766 101.99463 Q 234.56737 102.8628 233.79836 103.60107 Q 233.0293 104.339355 231.91505 104.339355 Q 230.62988 104.339355 229.9292 103.36865 Q 229.22853 102.39795 229.22853 101.1333 Q 229.22853 99.75928 230.04199 98.76122 Q 230.85547 97.76318 232.16113 97.76318 Q 233.125 97.76318 233.84961 98.42969 Z M 230.57518 98.95263 Q 230.35645 99.32178 230.26074 99.882324 L 233.14551 99.882324 Q 233.07031 99.19873 232.88574 98.86377 Q 232.5508 98.26221 231.76465 98.26221 Q 230.98537 98.26221 230.57518 98.95263 Z M 232.07228 97.76318 L 232.07228 97.76318 Z M 239.40039 97.93408 Q 239.67383 98.07764 239.92676 98.33056 L 239.92676 96.15673 Q 239.92676 95.73975 239.83449 95.58251 Q 239.74217 95.42529 239.39354 95.42529 Q 239.31152 95.42529 239.25 95.43213 Q 239.18848 95.43896 238.97655 95.45947 L 238.97655 95.23389 L 239.53711 95.09033 Q 239.84473 95.00829 240.15234 94.91943 Q 240.45996 94.830574 240.69238 94.748535 Q 240.80176 94.714355 241.05467 94.61865 L 241.0957 94.632324 L 241.08205 95.3501 Q 241.0752 95.73975 241.06836 96.15332 Q 241.06152 96.566895 241.06152 96.97022 L 241.04787 102.555176 Q 241.04787 102.99951 241.15723 103.177246 Q 241.2666 103.35498 241.73828 103.35498 Q 241.81348 103.35498 241.88867 103.35156 Q 241.96387 103.348145 242.03908 103.33447 L 242.03908 103.56006 Q 241.99805 103.57373 241.04787 103.90186 L 239.97461 104.305176 L 239.92676 104.24365 L 239.92676 103.40283 Q 239.54395 103.819824 239.26366 103.99757 Q 238.76465 104.305176 238.1084 104.305176 Q 236.94629 104.305176 236.22511 103.40626 Q 235.5039 102.507324 235.5039 101.32471 Q 235.5039 99.84131 236.36865 98.77832 Q 237.2334 97.71533 238.48438 97.71533 Q 238.9834 97.71533 239.40039 97.93408 Z M 239.59863 103.25244 Q 239.92676 102.93799 239.92676 102.65771 L 239.92676 99.7251 Q 239.92676 98.836426 239.45168 98.47071 Q 238.97655 98.10497 238.5254 98.10497 Q 237.66408 98.10497 237.18556 98.86719 Q 236.70705 99.629395 236.70705 100.74365 Q 236.70705 101.84423 237.21632 102.70556 Q 237.7256 103.5669 238.7373 103.5669 Q 239.27051 103.5669 239.59863 103.25244 Z M 244.18896 106.23291 Q 244.83496 106.45166 245.66895 106.45166 Q 246.8037 106.45166 247.51465 106.0586 Q 248.22559 105.66553 248.22559 105.09131 Q 248.22559 104.6333 247.65137 104.48291 Q 247.2959 104.39404 246.30469 104.38038 Q 246.05176 104.373535 245.77148 104.36328 Q 245.49123 104.35303 245.25879 104.339355 Q 245.10841 104.33253 244.77344 104.284676 Q 244.43846 104.236824 244.27443 104.20264 Q 244.19238 104.20264 243.8711 104.6333 Q 243.54298 105.07079 243.54298 105.43994 Q 243.54298 106.01416 244.18896 106.23291 Z M 243.46436 101.14697 Q 243.11914 100.620605 243.11914 99.964355 Q 243.11914 99.16455 243.75488 98.44678 Q 244.39063 97.729004 245.55275 97.729004 Q 246.05176 97.729004 246.65332 97.96484 Q 247.25488 98.20069 247.8086 98.20069 Q 247.95213 98.20069 248.24266 98.19043 Q 248.5332 98.180176 248.66309 98.180176 L 248.74512 98.180176 L 248.74512 98.73389 L 247.5625 98.73389 Q 247.68555 99.020996 247.7539 99.23291 Q 247.87012 99.629395 247.87012 99.98486 Q 247.87012 100.76416 247.22412 101.41699 Q 246.57814 102.069824 245.48438 102.069824 Q 245.31348 102.069824 244.86914 102.0083 Q 244.6709 102.0083 244.34618 102.34326 Q 244.0215 102.67822 244.0215 102.89014 Q 244.0215 103.10889 244.50002 103.211426 Q 244.81445 103.27979 245.19727 103.27979 Q 246.9541 103.27979 247.58301 103.47803 Q 248.61523 103.79932 248.61523 104.85889 Q 248.61523 105.938965 247.4087 106.58154 Q 246.20215 107.22413 244.97168 107.22413 Q 243.85059 107.22413 243.19432 106.76953 Q 242.53809 106.31493 242.53809 105.81592 Q 242.53809 105.569824 242.71242 105.333984 Q 242.88672 105.098145 243.39941 104.6333 L 243.85059 104.22998 L 243.93262 104.14795 Q 243.61816 104.0249 243.46094 103.90869 Q 243.1875 103.69677 243.1875 103.42335 Q 243.1875 103.17041 243.42334 102.8662 Q 243.65918 102.562004 244.43164 101.87842 Q 243.80957 101.67334 243.46436 101.14697 Z M 246.35938 101.53662 Q 246.76955 101.208496 246.76955 100.39502 Q 246.76955 99.745605 246.43799 98.93213 Q 246.10645 98.11865 245.33397 98.11865 Q 244.66405 98.11865 244.41113 98.754395 Q 244.28123 99.089355 244.28123 99.58154 Q 244.28123 100.41553 244.68457 101.07861 Q 245.08789 101.7417 245.73047 101.7417 Q 246.10645 101.7417 246.35938 101.53662 Z M 245.67578 97.729004 L 245.67578 97.729004 Z M 254.06348 98.42969 Q 254.7881 99.09618 254.7881 100.319824 L 250.44725 100.319824 Q 250.51563 101.90577 251.16504 102.63037 Q 251.81447 103.35498 252.70313 103.35498 Q 253.4209 103.35498 253.91309 102.979004 Q 254.40526 102.60303 254.82225 101.9126 L 255.06152 101.99463 Q 254.78125 102.8628 254.0122 103.60107 Q 253.24316 104.339355 252.1289 104.339355 Q 250.84375 104.339355 250.14307 103.36865 Q 249.44238 102.39795 249.44238 101.1333 Q 249.44238 99.75928 250.25584 98.76122 Q 251.06934 97.76318 252.375 97.76318 Q 253.33887 97.76318 254.06348 98.42969 Z M 250.78906 98.95263 Q 250.57033 99.32178 250.47462 99.882324 L 253.35938 99.882324 Q 253.2842 99.19873 253.09961 98.86377 Q 252.76465 98.26221 251.9785 98.26221 Q 251.19922 98.26221 250.78906 98.95263 Z M 252.28613 97.76318 L 252.28613 97.76318 Z M 255.92969 100.5796 L 259.36816 100.5796 L 259.36816 101.45459 L 255.92969 101.45459 L 255.92969 100.5796 Z M 264.21826 94.833984 Q 264.22168 94.851074 264.22168 94.9126 L 264.22168 103.14307 Q 264.22168 103.66943 264.50195 103.81299 Q 264.78223 103.95654 265.54785 103.98388 L 265.54785 104.175285 L 261.69238 104.175285 L 261.69238 103.970215 Q 262.51953 103.9292 262.77246 103.74462 Q 263.0254 103.56006 263.0254 102.94482 L 263.0254 96.614746 Q 263.0254 96.28662 262.94336 96.11572 Q 262.86133 95.944824 262.5879 95.944824 Q 262.41016 95.944824 262.12646 96.04395 Q 261.84277 96.14307 261.59668 96.25243 L 261.59668 96.06103 L 264.10547 94.78271 L 264.1875 94.78271 Q 264.21484 94.816895 264.21826 94.833984 Z M 272.88965 100.93506 Q 272.04883 101.09228 271.65234 101.31787 Q 270.9619 101.72119 270.9619 102.507324 L 270.94824 104.61279 Q 270.94824 105.720215 270.12793 106.19531 Q 269.30762 106.67041 267.9131 106.67041 L 267.9131 106.3628 Q 268.7744 106.191895 269.16406 105.95264 Q 269.86133 105.52881 269.86133 104.68115 L 269.875 102.75341 Q 269.875 101.82373 270.5381 101.331535 Q 271.20117 100.839355 272.48633 100.72998 L 272.48633 100.6958 Q 271.00293 100.401855 270.56543 100.10791 Q 269.875 99.64307 269.875 98.49463 L 269.875 96.819824 Q 269.875 95.842285 269.06152 95.370605 Q 268.60352 95.104 267.9131 95.02198 L 267.9131 94.714355 Q 269.66992 94.714355 270.30908 95.27831 Q 270.94824 95.842285 270.94824 96.79248 L 270.9619 98.67236 Q 270.9619 99.663574 271.6797 100.09424 Q 272.08984 100.34717 272.88965 100.43604 L 272.88965 100.93506 Z"/>
    </g>
    <g>
        <path fill="#000000" stroke="none" d="M 41.103516 218.43604 Q 41.930664 218.34717 42.368164 218.06691 Q 43.038086 217.6294 43.038086 216.67236 L 43.051754 214.79248 Q 43.051754 213.52783 44.04297 213.06982 Q 44.617184 212.80322 46.08008 212.71436 L 46.08008 213.02199 Q 45.341797 213.104 44.72998 213.50389 Q 44.118164 213.90381 44.118164 214.81982 L 44.118164 216.49463 Q 44.118164 217.5747 43.598633 217.97803 Q 43.0791 218.38135 41.75293 218.64793 L 41.51367 218.6958 L 41.51367 218.72998 Q 42.91504 218.83934 43.509766 219.36572 Q 44.104492 219.89207 44.118164 220.7534 L 44.13867 222.68115 Q 44.145504 223.52882 44.8291 223.95264 Q 45.21875 224.1919 46.08008 224.36281 L 46.08008 224.67041 Q 44.706055 224.67041 43.878906 224.19873 Q 43.051754 223.72704 43.051754 222.6128 L 43.038086 220.50732 Q 43.038086 219.71436 42.32715 219.31104 Q 41.92383 219.08545 41.103516 218.93504 L 41.103516 218.43604 Z M 51.84961 216.42969 Q 52.57422 217.09619 52.57422 218.31982 L 48.2334 218.31982 Q 48.301758 219.90576 48.95117 220.63037 Q 49.600582 221.35498 50.489258 221.35498 Q 51.20703 221.35498 51.69922 220.97899 Q 52.191406 220.60303 52.6084 219.9126 L 52.847656 219.99463 Q 52.567383 220.8628 51.79834 221.60107 Q 51.0293 222.33936 49.91504 222.33936 Q 48.629883 222.33936 47.9292 221.36865 Q 47.22851 220.39796 47.22851 219.1333 Q 47.22851 217.75928 48.041996 216.76122 Q 48.85547 215.76318 50.161133 215.76318 Q 51.125004 215.76318 51.84961 216.42969 Z M 48.575195 216.95262 Q 48.356445 217.32178 48.260742 217.88232 L 51.145508 217.88232 Q 51.07031 217.19873 50.885746 216.86377 Q 50.550777 216.2622 49.76465 216.2622 Q 48.985348 216.2622 48.575195 216.95262 Z M 50.07226 215.76318 L 50.07226 215.76318 Z M 57.40039 215.93408 Q 57.673832 216.07764 57.926758 216.33057 L 57.926758 214.15674 Q 57.926758 213.73975 57.83447 213.58252 Q 57.742188 213.4253 57.393555 213.4253 Q 57.311523 213.4253 57.250004 213.43213 Q 57.188477 213.43895 56.976563 213.45947 L 56.976563 213.23389 L 57.53711 213.09033 Q 57.844727 213.0083 58.152344 212.91943 Q 58.45996 212.83058 58.692383 212.74854 Q 58.801758 212.71436 59.054688 212.61865 L 59.095707 212.63232 L 59.08203 213.3501 Q 59.075195 213.73975 59.06836 214.15332 Q 59.061523 214.5669 59.061523 214.97023 L 59.047855 220.55518 Q 59.047855 220.99951 59.157227 221.17725 Q 59.2666 221.35498 59.73828 221.35498 Q 59.813477 221.35498 59.88867 221.35156 Q 59.963867 221.34814 60.03906 221.33447 L 60.03906 221.56006 Q 59.99805 221.57373 59.047855 221.90187 L 57.97461 222.30518 L 57.926758 222.24365 L 57.926758 221.40283 Q 57.543945 221.81982 57.26367 221.99757 Q 56.764645 222.30518 56.108402 222.30518 Q 54.94629 222.30518 54.225094 221.40625 Q 53.503906 220.50732 53.503906 219.3247 Q 53.503906 217.84131 54.36865 216.77832 Q 55.2334 215.71533 56.48437 215.71533 Q 56.9834 215.71533 57.40039 215.93408 Z M 57.598633 221.25244 Q 57.926758 220.93799 57.926758 220.6577 L 57.926758 217.7251 Q 57.926758 216.83643 57.451656 216.47072 Q 56.976563 216.10498 56.52539 216.10498 Q 55.664063 216.10498 55.185547 216.86719 Q 54.70703 217.6294 54.70703 218.74364 Q 54.70703 219.84424 55.21631 220.70557 Q 55.72559 221.5669 56.737305 221.5669 Q 57.270508 221.5669 57.598633 221.25244 Z M 62.188965 224.23293 Q 62.83496 224.45166 63.668945 224.45166 Q 64.80371 224.45166 65.51465 224.0586 Q 66.225586 223.66553 66.225586 223.09131 Q 66.225586 222.6333 65.65137 222.48291 Q 65.2959 222.39404 64.30469 222.38039 Q 64.05176 222.37354 63.771484 222.36328 Q 63.49121 222.35301 63.25879 222.33936 Q 63.1084 222.33252 62.773438 222.28468 Q 62.438477 222.23682 62.27441 222.20264 Q 62.192383 222.20264 61.871094 222.6333 Q 61.54297 223.0708 61.54297 223.43993 Q 61.54297 224.01414 62.188965 224.23293 Z M 61.464355 219.14697 Q 61.11914 218.6206 61.11914 217.96436 Q 61.11914 217.16455 61.754887 216.44678 Q 62.390625 215.729 63.55273 215.729 Q 64.05176 215.729 64.65332 215.96483 Q 65.25488 216.20068 65.80859 216.20068 Q 65.95215 216.20068 66.242676 216.19043 Q 66.5332 216.18018 66.663086 216.18018 L 66.74512 216.18018 L 66.74512 216.73389 L 65.5625 216.73389 Q 65.68555 217.021 65.75391 217.23291 Q 65.87012 217.6294 65.87012 217.98486 Q 65.87012 218.76416 65.22412 219.41699 Q 64.578125 220.06982 63.484375 220.06982 Q 63.313473 220.06982 62.86914 220.0083 Q 62.6709 220.0083 62.346195 220.34326 Q 62.021484 220.67822 62.021484 220.89014 Q 62.021484 221.10889 62.5 221.21143 Q 62.814453 221.27979 63.197266 221.27979 Q 64.9541 221.27979 65.58301 221.47803 Q 66.615234 221.79932 66.615234 222.8589 Q 66.615234 223.93896 65.40869 224.58154 Q 64.20215 225.22414 62.97168 225.22414 Q 61.85059 225.22414 61.194336 224.76953 Q 60.538086 224.31494 60.538086 223.81593 Q 60.538086 223.56982 60.712402 223.33398 Q 60.88672 223.09814 61.399414 222.6333 L 61.85059 222.22998 L 61.932617 222.14795 Q 61.618164 222.0249 61.460938 221.90869 Q 61.187504 221.69678 61.187504 221.42336 Q 61.187504 221.1704 61.42334 220.86621 Q 61.659184 220.562 62.43164 219.87842 Q 61.80957 219.67334 61.464355 219.14697 Z M 64.359375 219.53664 Q 64.76953 219.2085 64.76953 218.39502 Q 64.76953 217.7456 64.43799 216.93213 Q 64.106445 216.11867 63.333984 216.11867 Q 62.664063 216.11867 62.41113 216.7544 Q 62.28125 217.08936 62.28125 217.58154 Q 62.28125 218.41553 62.68457 219.07861 Q 63.08789 219.7417 63.73047 219.7417 Q 64.106445 219.7417 64.359375 219.53664 Z M 63.67578 215.729 L 63.67578 215.729 Z M 72.06348 216.42969 Q 72.788086 217.09619 72.788086 218.31982 L 68.447266 218.31982 Q 68.515625 219.90576 69.16504 220.63037 Q 69.81445 221.35498 70.703125 221.35498 Q 71.4209 221.35498 71.913086 220.97899 Q 72.40527 220.60303 72.822266 219.9126 L 73.06152 219.99463 Q 72.78125 220.8628 72.01221 221.60107 Q 71.243164 222.33936 70.12891 222.33936 Q 68.84375 222.33936 68.14307 221.36865 Q 67.44238 220.39796 67.44238 219.1333 Q 67.44238 217.75928 68.25586 216.76122 Q 69.069336 215.76318 70.375 215.76318 Q 71.33887 215.76318 72.06348 216.42969 Z M 68.78906 216.95262 Q 68.57031 217.32178 68.47461 217.88232 L 71.359375 217.88232 Q 71.28418 217.19873 71.09961 216.86377 Q 70.76465 216.2622 69.978516 216.2622 Q 69.19922 216.2622 68.78906 216.95262 Z M 70.28613 215.76318 L 70.28613 215.76318 Z M 73.92969 218.5796 L 77.368164 218.5796 L 77.368164 219.45459 L 73.92969 219.45459 L 73.92969 218.5796 Z M 78.461914 222.01807 Q 80.96387 219.42041 81.859375 218.20361 Q 82.75488 216.9868 82.75488 215.83156 Q 82.75488 214.81982 82.20801 214.29004 Q 81.66113 213.76024 80.90234 213.76024 Q 79.96582 213.76024 79.384766 214.44385 Q 79.06348 214.81982 78.76953 215.59912 L 78.475586 215.5376 Q 78.81738 213.96533 79.63428 213.35352 Q 80.45117 212.7417 81.387695 212.7417 Q 82.54297 212.7417 83.257324 213.46971 Q 83.97168 214.19775 83.97168 215.25049 Q 83.97168 216.37158 83.19922 217.41064 Q 82.42676 218.44972 79.84277 221.10889 L 82.98047 221.10889 Q 83.63672 221.10889 83.90332 220.95166 Q 84.16992 220.79443 84.50488 220.18604 L 84.68262 220.26807 L 83.92383 222.1753 L 78.461914 222.1753 L 78.461914 222.01807 Z M 90.88965 218.93504 Q 90.04883 219.09227 89.65234 219.31786 Q 88.961914 219.72119 88.961914 220.50732 L 88.94824 222.6128 Q 88.94824 223.72023 88.12793 224.19531 Q 87.30761 224.67041 85.913086 224.67041 L 85.913086 224.36281 Q 86.774414 224.1919 87.164055 223.95264 Q 87.86133 223.52882 87.86133 222.68115 L 87.875 220.7534 Q 87.875 219.82375 88.53808 219.33154 Q 89.20117 218.83934 90.48632 218.72998 L 90.48632 218.6958 Q 89.00293 218.40186 88.56543 218.10791 Q 87.875 217.64307 87.875 216.49463 L 87.875 214.81982 Q 87.875 213.84229 87.06152 213.37062 Q 86.60352 213.104 85.913086 213.02199 L 85.913086 212.71436 Q 87.66992 212.71436 88.30908 213.2783 Q 88.94824 213.84229 88.94824 214.79248 L 88.961914 216.67236 Q 88.961914 217.66357 89.67969 218.09424 Q 90.08984 218.34717 90.88965 218.43604 L 90.88965 218.93504 Z"/>
    </g>
    <g>
        <path fill="#000000" stroke="none" d="M 223.10352 218.43604 Q 223.93065 218.34717 224.36816 218.06691 Q 225.03809 217.6294 225.03809 216.67236 L 225.05176 214.79248 Q 225.05176 213.52783 226.04297 213.06982 Q 226.61719 212.80322 228.0801 212.71436 L 228.0801 213.02199 Q 227.3418 213.104 226.72998 213.50389 Q 226.11816 213.90381 226.11816 214.81982 L 226.11816 216.49463 Q 226.11816 217.5747 225.59863 217.97803 Q 225.07912 218.38135 223.75293 218.64793 L 223.51369 218.6958 L 223.51369 218.72998 Q 224.91504 218.83934 225.50977 219.36572 Q 226.10448 219.89207 226.11816 220.7534 L 226.13867 222.68115 Q 226.14551 223.52882 226.8291 223.95264 Q 227.21877 224.1919 228.0801 224.36281 L 228.0801 224.67041 Q 226.70607 224.67041 225.87889 224.19873 Q 225.05176 223.72704 225.05176 222.6128 L 225.03809 220.50732 Q 225.03809 219.71436 224.32715 219.31104 Q 223.92383 219.08545 223.10352 218.93504 L 223.10352 218.43604 Z M 233.84961 216.42969 Q 234.57422 217.09619 234.57422 218.31982 L 230.2334 218.31982 Q 230.30176 219.90576 230.95117 220.63037 Q 231.60059 221.35498 232.48927 221.35498 Q 233.20703 221.35498 233.69922 220.97899 Q 234.1914 220.60303 234.6084 219.9126 L 234.84766 219.99463 Q 234.56737 220.8628 233.79836 221.60107 Q 233.0293 222.33936 231.91505 222.33936 Q 230.62988 222.33936 229.9292 221.36865 Q 229.22853 220.39796 229.22853 219.1333 Q 229.22853 217.75928 230.04199 216.76122 Q 230.85547 215.76318 232.16113 215.76318 Q 233.125 215.76318 233.84961 216.42969 Z M 230.57518 216.95262 Q 230.35645 217.32178 230.26074 217.88232 L 233.14551 217.88232 Q 233.07031 217.19873 232.88574 216.86377 Q 232.5508 216.2622 231.76465 216.2622 Q 230.98537 216.2622 230.57518 216.95262 Z M 232.07228 215.76318 L 232.07228 215.76318 Z M 239.40039 215.93408 Q 239.67383 216.07764 239.92676 216.33057 L 239.92676 214.15674 Q 239.92676 213.73975 239.83449 213.58252 Q 239.74217 213.4253 239.39354 213.4253 Q 239.31152 213.4253 239.25 213.43213 Q 239.18848 213.43895 238.97655 213.45947 L 238.97655 213.23389 L 239.53711 213.09033 Q 239.84473 213.0083 240.15234 212.91943 Q 240.45996 212.83058 240.69238 212.74854 Q 240.80176 212.71436 241.05467 212.61865 L 241.0957 212.63232 L 241.08205 213.3501 Q 241.0752 213.73975 241.06836 214.15332 Q 241.06152 214.5669 241.06152 214.97023 L 241.04787 220.55518 Q 241.04787 220.99951 241.15723 221.17725 Q 241.2666 221.35498 241.73828 221.35498 Q 241.81348 221.35498 241.88867 221.35156 Q 241.96387 221.34814 242.03908 221.33447 L 242.03908 221.56006 Q 241.99805 221.57373 241.04787 221.90187 L 239.97461 222.30518 L 239.92676 222.24365 L 239.92676 221.40283 Q 239.54395 221.81982 239.26366 221.99757 Q 238.76465 222.30518 238.1084 222.30518 Q 236.94629 222.30518 236.22511 221.40625 Q 235.5039 220.50732 235.5039 219.3247 Q 235.5039 217.84131 236.36865 216.77832 Q 237.2334 215.71533 238.48438 215.71533 Q 238.9834 215.71533 239.40039 215.93408 Z M 239.59863 221.25244 Q 239.92676 220.93799 239.92676 220.6577 L 239.92676 217.7251 Q 239.92676 216.83643 239.45168 216.47072 Q 238.97655 216.10498 238.5254 216.10498 Q 237.66408 216.10498 237.18556 216.86719 Q 236.70705 217.6294 236.70705 218.74364 Q 236.70705 219.84424 237.21632 220.70557 Q 237.7256 221.5669 238.7373 221.5669 Q 239.27051 221.5669 239.59863 221.25244 Z M 244.18896 224.23293 Q 244.83496 224.45166 245.66895 224.45166 Q 246.8037 224.45166 247.51465 224.0586 Q 248.22559 223.66553 248.22559 223.09131 Q 248.22559 222.6333 247.65137 222.48291 Q 247.2959 222.39404 246.30469 222.38039 Q 246.05176 222.37354 245.77148 222.36328 Q 245.49123 222.35301 245.25879 222.33936 Q 245.10841 222.33252 244.77344 222.28468 Q 244.43846 222.23682 244.27443 222.20264 Q 244.19238 222.20264 243.8711 222.6333 Q 243.54298 223.0708 243.54298 223.43993 Q 243.54298 224.01414 244.18896 224.23293 Z M 243.46436 219.14697 Q 243.11914 218.6206 243.11914 217.96436 Q 243.11914 217.16455 243.75488 216.44678 Q 244.39063 215.729 245.55275 215.729 Q 246.05176 215.729 246.65332 215.96483 Q 247.25488 216.20068 247.8086 216.20068 Q 247.95213 216.20068 248.24266 216.19043 Q 248.5332 216.18018 248.66309 216.18018 L 248.74512 216.18018 L 248.74512 216.73389 L 247.5625 216.73389 Q 247.68555 217.021 247.7539 217.23291 Q 247.87012 217.6294 247.87012 217.98486 Q 247.87012 218.76416 247.22412 219.41699 Q 246.57814 220.06982 245.48438 220.06982 Q 245.31348 220.06982 244.86914 220.0083 Q 244.6709 220.0083 244.34618 220.34326 Q 244.0215 220.67822 244.0215 220.89014 Q 244.0215 221.10889 244.50002 221.21143 Q 244.81445 221.27979 245.19727 221.27979 Q 246.9541 221.27979 247.58301 221.47803 Q 248.61523 221.79932 248.61523 222.8589 Q 248.61523 223.93896 247.4087 224.58154 Q 246.20215 225.22414 244.97168 225.22414 Q 243.85059 225.22414 243.19432 224.76953 Q 242.53809 224.31494 242.53809 223.81593 Q 242.53809 223.56982 242.71242 223.33398 Q 242.88672 223.09814 243.39941 222.6333 L 243.85059 222.22998 L 243.93262 222.14795 Q 243.61816 222.0249 243.46094 221.90869 Q 243.1875 221.69678 243.1875 221.42336 Q 243.1875 221.1704 243.42334 220.86621 Q 243.65918 220.562 244.43164 219.87842 Q 243.80957 219.67334 243.46436 219.14697 Z M 246.35938 219.53664 Q 246.76955 219.2085 246.76955 218.39502 Q 246.76955 217.7456 246.43799 216.93213 Q 246.10645 216.11867 245.33397 216.11867 Q 244.66405 216.11867 244.41113 216.7544 Q 244.28123 217.08936 244.28123 217.58154 Q 244.28123 218.41553 244.68457 219.07861 Q 245.08789 219.7417 245.73047 219.7417 Q 246.10645 219.7417 246.35938 219.53664 Z M 245.67578 215.729 L 245.67578 215.729 Z M 254.06348 216.42969 Q 254.7881 217.09619 254.7881 218.31982 L 250.44725 218.31982 Q 250.51563 219.90576 251.16504 220.63037 Q 251.81447 221.35498 252.70313 221.35498 Q 253.4209 221.35498 253.91309 220.97899 Q 254.40526 220.60303 254.82225 219.9126 L 255.06152 219.99463 Q 254.78125 220.8628 254.0122 221.60107 Q 253.24316 222.33936 252.1289 222.33936 Q 250.84375 222.33936 250.14307 221.36865 Q 249.44238 220.39796 249.44238 219.1333 Q 249.44238 217.75928 250.25584 216.76122 Q 251.06934 215.76318 252.375 215.76318 Q 253.33887 215.76318 254.06348 216.42969 Z M 250.78906 216.95262 Q 250.57033 217.32178 250.47462 217.88232 L 253.35938 217.88232 Q 253.2842 217.19873 253.09961 216.86377 Q 252.76465 216.2622 251.9785 216.2622 Q 251.19922 216.2622 250.78906 216.95262 Z M 252.28613 215.76318 L 252.28613 215.76318 Z M 255.92969 218.5796 L 259.36816 218.5796 L 259.36816 219.45459 L 255.92969 219.45459 L 255.92969 218.5796 Z M 260.4619 222.01807 Q 262.96387 219.42041 263.85938 218.20361 Q 264.75488 216.9868 264.75488 215.83156 Q 264.75488 214.81982 264.208 214.29004 Q 263.66113 213.76024 262.90234 213.76024 Q 261.96582 213.76024 261.38477 214.44385 Q 261.06348 214.81982 260.76953 215.59912 L 260.4756 215.5376 Q 260.81738 213.96533 261.63428 213.35352 Q 262.45117 212.7417 263.3877 212.7417 Q 264.54297 212.7417 265.25732 213.46971 Q 265.97168 214.19775 265.97168 215.25049 Q 265.97168 216.37158 265.19922 217.41064 Q 264.42676 218.44972 261.84277 221.10889 L 264.98047 221.10889 Q 265.63672 221.10889 265.90332 220.95166 Q 266.16992 220.79443 266.50488 220.18604 L 266.68262 220.26807 L 265.92383 222.1753 L 260.4619 222.1753 L 260.4619 222.01807 Z M 272.88965 218.93504 Q 272.04883 219.09227 271.65234 219.31786 Q 270.9619 219.72119 270.9619 220.50732 L 270.94824 222.6128 Q 270.94824 223.72023 270.12793 224.19531 Q 269.30762 224.67041 267.9131 224.67041 L 267.9131 224.36281 Q 268.7744 224.1919 269.16406 223.95264 Q 269.86133 223.52882 269.86133 222.68115 L 269.875 220.7534 Q 269.875 219.82375 270.5381 219.33154 Q 271.20117 218.83934 272.48633 218.72998 L 272.48633 218.6958 Q 271.00293 218.40186 270.56543 218.10791 Q 269.875 217.64307 269.875 216.49463 L 269.875 214.81982 Q 269.875 213.84229 269.06152 213.37062 Q 268.60352 213.104 267.9131 213.02199 L 267.9131 212.71436 Q 269.66992 212.71436 270.30908 213.2783 Q 270.94824 213.84229 270.94824 214.79248 L 270.9619 216.67236 Q 270.9619 217.66357 271.6797 218.09424 Q 272.08984 218.34717 272.88965 218.43604 L 272.88965 218.93504 Z"/>
    </g>
    <g>
        <path fill="#000000" stroke="none" d="M 41.103516 336.43604 Q 41.930664 336.34717 42.368164 336.0669 Q 43.038086 335.6294 43.038086 334.67236 L 43.051754 332.79248 Q 43.051754 331.52783 44.04297 331.06982 Q 44.617184 330.80322 46.08008 330.71436 L 46.08008 331.02197 Q 45.341797 331.104 44.72998 331.5039 Q 44.118164 331.9038 44.118164 332.81982 L 44.118164 334.49463 Q 44.118164 335.5747 43.598633 335.97803 Q 43.0791 336.38135 41.75293 336.64795 L 41.51367 336.6958 L 41.51367 336.72998 Q 42.91504 336.83936 43.509766 337.36572 Q 44.104492 337.8921 44.118164 338.75342 L 44.13867 340.68115 Q 44.145504 341.5288 44.8291 341.95264 Q 45.21875 342.1919 46.08008 342.3628 L 46.08008 342.6704 Q 44.706055 342.6704 43.878906 342.19873 Q 43.051754 341.72705 43.051754 340.6128 L 43.038086 338.50732 Q 43.038086 337.71436 42.32715 337.31104 Q 41.92383 337.08545 41.103516 336.93506 L 41.103516 336.43604 Z M 51.84961 334.4297 Q 52.57422 335.0962 52.57422 336.31982 L 48.2334 336.31982 Q 48.301758 337.90576 48.95117 338.63037 Q 49.600582 339.35498 50.489258 339.35498 Q 51.20703 339.35498 51.69922 338.979 Q 52.191406 338.60303 52.6084 337.9126 L 52.847656 337.99463 Q 52.567383 338.8628 51.79834 339.60107 Q 51.0293 340.33936 49.91504 340.33936 Q 48.629883 340.33936 47.9292 339.36865 Q 47.22851 338.39795 47.22851 337.1333 Q 47.22851 335.75928 48.041996 334.76123 Q 48.85547 333.76318 50.161133 333.76318 Q 51.125004 333.76318 51.84961 334.4297 Z M 48.575195 334.95264 Q 48.356445 335.32178 48.260742 335.88232 L 51.145508 335.88232 Q 51.07031 335.19873 50.885746 334.86377 Q 50.550777 334.2622 49.76465 334.2622 Q 48.985348 334.2622 48.575195 334.95264 Z M 50.07226 333.76318 L 50.07226 333.76318 Z M 57.40039 333.93408 Q 57.673832 334.07764 57.926758 334.33057 L 57.926758 332.15674 Q 57.926758 331.73975 57.83447 331.58252 Q 57.742188 331.4253 57.393555 331.4253 Q 57.311523 331.4253 57.250004 331.43213 Q 57.188477 331.43896 56.976563 331.45947 L 56.976563 331.2339 L 57.53711 331.09033 Q 57.844727 331.0083 58.152344 330.91943 Q 58.45996 330.83057 58.692383 330.74854 Q 58.801758 330.71436 59.054688 330.61865 L 59.095707 330.63232 L 59.08203 331.3501 Q 59.075195 331.73975 59.06836 332.15332 Q 59.061523 332.5669 59.061523 332.9702 L 59.047855 338.55518 Q 59.047855 338.9995 59.157227 339.17725 Q 59.2666 339.35498 59.73828 339.35498 Q 59.813477 339.35498 59.88867 339.35156 Q 59.963867 339.34814 60.03906 339.33447 L 60.03906 339.56006 Q 59.99805 339.57373 59.047855 339.90186 L 57.97461 340.30518 L 57.926758 340.24365 L 57.926758 339.40283 Q 57.543945 339.81982 57.26367 339.99756 Q 56.764645 340.30518 56.108402 340.30518 Q 54.94629 340.30518 54.225094 339.40625 Q 53.503906 338.50732 53.503906 337.3247 Q 53.503906 335.8413 54.36865 334.77832 Q 55.2334 333.71533 56.48437 333.71533 Q 56.9834 333.71533 57.40039 333.93408 Z M 57.598633 339.25244 Q 57.926758 338.938 57.926758 338.6577 L 57.926758 335.7251 Q 57.926758 334.83643 57.451656 334.4707 Q 56.976563 334.10498 56.52539 334.10498 Q 55.664063 334.10498 55.185547 334.8672 Q 54.70703 335.6294 54.70703 336.74365 Q 54.70703 337.84424 55.21631 338.70557 Q 55.72559 339.5669 56.737305 339.5669 Q 57.270508 339.5669 57.598633 339.25244 Z M 62.188965 342.2329 Q 62.83496 342.45166 63.668945 342.45166 Q 64.80371 342.45166 65.51465 342.0586 Q 66.225586 341.66553 66.225586 341.0913 Q 66.225586 340.6333 65.65137 340.4829 Q 65.2959 340.39404 64.30469 340.38037 Q 64.05176 340.37354 63.771484 340.36328 Q 63.49121 340.35303 63.25879 340.33936 Q 63.1084 340.33252 62.773438 340.28467 Q 62.438477 340.23682 62.27441 340.20264 Q 62.192383 340.20264 61.871094 340.6333 Q 61.54297 341.0708 61.54297 341.43994 Q 61.54297 342.01416 62.188965 342.2329 Z M 61.464355 337.14697 Q 61.11914 336.6206 61.11914 335.96436 Q 61.11914 335.16455 61.754887 334.44678 Q 62.390625 333.729 63.55273 333.729 Q 64.05176 333.729 64.65332 333.96484 Q 65.25488 334.20068 65.80859 334.20068 Q 65.95215 334.20068 66.242676 334.19043 Q 66.5332 334.18018 66.663086 334.18018 L 66.74512 334.18018 L 66.74512 334.7339 L 65.5625 334.7339 Q 65.68555 335.021 65.75391 335.2329 Q 65.87012 335.6294 65.87012 335.98486 Q 65.87012 336.76416 65.22412 337.417 Q 64.578125 338.06982 63.484375 338.06982 Q 63.313473 338.06982 62.86914 338.0083 Q 62.6709 338.0083 62.346195 338.34326 Q 62.021484 338.67822 62.021484 338.89014 Q 62.021484 339.1089 62.5 339.21143 Q 62.814453 339.2798 63.197266 339.2798 Q 64.9541 339.2798 65.58301 339.47803 Q 66.615234 339.79932 66.615234 340.8589 Q 66.615234 341.93896 65.40869 342.58154 Q 64.20215 343.22412 62.97168 343.22412 Q 61.85059 343.22412 61.194336 342.76953 Q 60.538086 342.31494 60.538086 341.81592 Q 60.538086 341.56982 60.712402 341.33398 Q 60.88672 341.09814 61.399414 340.6333 L 61.85059 340.22998 L 61.932617 340.14795 Q 61.618164 340.0249 61.460938 339.9087 Q 61.187504 339.69678 61.187504 339.42334 Q 61.187504 339.1704 61.42334 338.8662 Q 61.659184 338.562 62.43164 337.87842 Q 61.80957 337.67334 61.464355 337.14697 Z M 64.359375 337.53662 Q 64.76953 337.2085 64.76953 336.39502 Q 64.76953 335.7456 64.43799 334.93213 Q 64.106445 334.11865 63.333984 334.11865 Q 62.664063 334.11865 62.41113 334.7544 Q 62.28125 335.08936 62.28125 335.58154 Q 62.28125 336.41553 62.68457 337.0786 Q 63.08789 337.7417 63.73047 337.7417 Q 64.106445 337.7417 64.359375 337.53662 Z M 63.67578 333.729 L 63.67578 333.729 Z M 72.06348 334.4297 Q 72.788086 335.0962 72.788086 336.31982 L 68.447266 336.31982 Q 68.515625 337.90576 69.16504 338.63037 Q 69.81445 339.35498 70.703125 339.35498 Q 71.4209 339.35498 71.913086 338.979 Q 72.40527 338.60303 72.822266 337.9126 L 73.06152 337.99463 Q 72.78125 338.8628 72.01221 339.60107 Q 71.243164 340.33936 70.12891 340.33936 Q 68.84375 340.33936 68.14307 339.36865 Q 67.44238 338.39795 67.44238 337.1333 Q 67.44238 335.75928 68.25586 334.76123 Q 69.069336 333.76318 70.375 333.76318 Q 71.33887 333.76318 72.06348 334.4297 Z M 68.78906 334.95264 Q 68.57031 335.32178 68.47461 335.88232 L 71.359375 335.88232 Q 71.28418 335.19873 71.09961 334.86377 Q 70.76465 334.2622 69.978516 334.2622 Q 69.19922 334.2622 68.78906 334.95264 Z M 70.28613 333.76318 L 70.28613 333.76318 Z M 73.92969 336.5796 L 77.368164 336.5796 L 77.368164 337.4546 L 73.92969 337.4546 L 73.92969 336.5796 Z M 78.461914 340.01807 Q 80.96387 337.4204 81.859375 336.2036 Q 82.75488 334.98682 82.75488 333.83154 Q 82.75488 332.81982 82.20801 332.29004 Q 81.66113 331.76025 80.90234 331.76025 Q 79.96582 331.76025 79.384766 332.44385 Q 79.06348 332.81982 78.76953 333.59912 L 78.475586 333.5376 Q 78.81738 331.96533 79.63428 331.35352 Q 80.45117 330.7417 81.387695 330.7417 Q 82.54297 330.7417 83.257324 331.46973 Q 83.97168 332.19775 83.97168 333.2505 Q 83.97168 334.37158 83.19922 335.41064 Q 82.42676 336.4497 79.84277 339.1089 L 82.98047 339.1089 Q 83.63672 339.1089 83.90332 338.95166 Q 84.16992 338.79443 84.50488 338.18604 L 84.68262 338.26807 L 83.92383 340.1753 L 78.461914 340.1753 L 78.461914 340.01807 Z M 90.88965 336.93506 Q 90.04883 337.0923 89.65234 337.31787 Q 88.961914 337.7212 88.961914 338.50732 L 88.94824 340.6128 Q 88.94824 341.7202 88.12793 342.1953 Q 87.30761 342.6704 85.913086 342.6704 L 85.913086 342.3628 Q 86.774414 342.1919 87.164055 341.95264 Q 87.86133 341.5288 87.86133 340.68115 L 87.875 338.75342 Q 87.875 337.82373 88.53808 337.33154 Q 89.20117 336.83936 90.48632 336.72998 L 90.48632 336.6958 Q 89.00293 336.40186 88.56543 336.1079 Q 87.875 335.64307 87.875 334.49463 L 87.875 332.81982 Q 87.875 331.8423 87.06152 331.3706 Q 86.60352 331.104 85.913086 331.02197 L 85.913086 330.71436 Q 87.66992 330.71436 88.30908 331.27832 Q 88.94824 331.8423 88.94824 332.79248 L 88.961914 334.67236 Q 88.961914 335.66357 89.67969 336.09424 Q 90.08984 336.34717 90.88965 336.43604 L 90.88965 336.93506 Z"/>
    </g>
    <g>
        <path id="arrow0" fill="#000000" fill-opacity="0" stroke="#000000" d="M 208.74576 54 C 190.42528 77.75625 190.8205 77.24375 172.50002 101 C 154.1795 124.75624 154.57474 124.24375 136.25424 148"/>
        <g>
            <g clip-path="url(#clipPath1)" transform="matrix(-0.6106833 0.79187495 -0.79187495 -0.6106833 145.13263 142.21864)">
                <path fill="#000000" stroke="none" d="M 0 0 L 10 3.5 L 0 7 Z"/>
            </g>
        </g>
    </g>
    <g>
        <path id="arrow1" fill="#000000" fill-opacity="0" stroke="#000000" d="M 260.80508 54 C 282.28287 74.94528 309 71 309 101 C 309 131 309 118 309 148"/>
        <g>
            <g clip-path="url(#clipPath2)" transform="matrix(-0.00000004 1 -1 -0.00000004 312.5 138)">
                <path fill="#000000" stroke="none" d="M 0 0 L 10 3.5 L 0 7 Z"/>
            </g>
        </g>
    </g>
    <g>
        <path id="arrow2" fill="#000000" fill-opacity="0" stroke="#000000" d="M 127 172 C 127 202 127 189 127 219 C 127 249 127 236 127 266"/>
        <g>
            <g clip-path="url(#clipPath3)" transform="matrix(-0.00000004 1 -1 -0.00000004 130.5 256)">
                <path fill="#000000" stroke="none" d="M 0 0 L 10 3.5 L 0 7 Z"/>
            </g>
        </g>
    </g>
    <g>
        <path id="arrow3" fill="#000000" fill-opacity="0" stroke="#000000" d="M 309 172 C 309 202 309 189 309 219 C 309 249 215.95494 255.23535 188 266.1221"/>
        <g>
            <g clip-path="url(#clipPath4)" transform="matrix(-0.9318314 0.36289123 -0.36289123 -0.9318314 198.58844 265.7546)">
                <path fill="#000000" stroke="none" d="M 0 0 L 10 3.5 L 0 7 Z"/>
            </g>
        </g>
    </g>
    <g>
        <path id="arrow4" fill="#000000" fill-opacity="0" stroke="#000000" d="M 127 290 C 127 320 127 307 127 337 C 127 367 127 354 127 384"/>
        <g>
            <g clip-path="url(#clipPath5)" transform="matrix(-0.00000004 1 -1 -0.00000004 130.5 374)">
                <path fill="#000000" stroke="none" d="M 0 0 L 10 3.5 L 0 7 Z"/>
            </g>
        </g>
    </g>
</svg>
