<svg width="193" height="481" xmlns="http://www.w3.org/2000/svg">
    <defs>
        <clipPath id="clipPath1">
            <path fill="#000000" stroke="none" d="M 0 0 L 10 0 L 10 7 L 0 7 Z"/>
        </clipPath>
        <clipPath id="clipPath2">
            <path fill="#000000" stroke="none" d="M 0 0 L 10 0 L 10 7 L 0 7 Z"/>
        </clipPath>
        <clipPath id="clipPath3">
            <path fill="#000000" stroke="none" d="M 0 0 L 10 0 L 10 7 L 0 7 Z"/>
        </clipPath>
    </defs>
    <g>
        <path fill="#ffffff" stroke="#000000" d="M 66 30 L 188 30 L 188 54 L 66 54 Z"/>
    </g>
    <g>
        <path fill="#000000" stroke="none" d="M 101.71045 41.436035 Q 102.5376 41.347168 102.9751 41.066895 Q 103.64502 40.629395 103.64502 39.672363 L 103.65869 37.79248 Q 103.65869 36.527832 104.6499 36.069824 Q 105.22412 35.803223 106.687004 35.714355 L 106.687004 36.021973 Q 105.94873 36.104004 105.336914 36.503906 Q 104.7251 36.90381 104.7251 37.819824 L 104.7251 39.49463 Q 104.7251 40.574707 104.20557 40.978027 Q 103.686035 41.381348 102.359856 41.64795 L 102.1206 41.6958 L 102.1206 41.72998 Q 103.52197 41.839355 104.11669 42.365723 Q 104.711426 42.89209 104.7251 43.753414 L 104.745605 45.681152 Q 104.75245 46.52881 105.436035 46.952637 Q 105.825676 47.191895 106.687004 47.362797 L 106.687004 47.67041 Q 105.312996 47.67041 104.48584 47.19873 Q 103.65869 46.72705 103.65869 45.612797 L 103.64502 43.507324 Q 103.64502 42.714355 102.934074 42.311035 Q 102.53076 42.08545 101.71045 41.93506 L 101.71045 41.436035 Z M 107.81494 44.983883 Q 108.300285 44.922363 108.49512 44.74121 Q 108.68994 44.560055 108.68994 43.931152 L 108.68994 40.465332 Q 108.68994 40.027832 108.60791 39.850098 Q 108.47803 39.590332 108.074715 39.590332 Q 108.013176 39.590332 107.94825 39.597168 Q 107.88331 39.604004 107.787605 39.617676 L 107.787605 39.378418 Q 108.06787 39.296387 109.11378 38.95459 L 109.75635 38.742676 Q 109.8042 38.742676 109.81445 38.776855 Q 109.82471 38.811035 109.82471 38.87256 L 109.82471 39.87744 Q 110.45361 39.28955 110.809074 39.0708 Q 111.342285 38.73584 111.916504 38.73584 Q 112.38135 38.73584 112.76416 39.00244 Q 113.50244 39.521973 113.50244 40.85498 L 113.50244 44.047363 Q 113.50244 44.53955 113.700676 44.758305 Q 113.898926 44.97705 114.36377 44.983883 L 114.36377 45.17529 L 111.44483 45.17529 L 111.44483 44.983883 Q 111.94384 44.915527 112.14209 44.70703 Q 112.34034 44.498535 112.34034 43.801266 L 112.34034 40.882324 Q 112.34034 40.294434 112.12158 39.908203 Q 111.90283 39.521973 111.31494 39.521973 Q 110.91162 39.521973 110.49463 39.79541 Q 110.26221 39.952637 109.89307 40.31494 L 109.89307 44.143066 Q 109.89307 44.635254 110.11182 44.802734 Q 110.33056 44.970215 110.802246 44.983883 L 110.802246 45.17529 L 107.81494 45.17529 L 107.81494 44.983883 Z M 111.06885 38.73584 L 111.06885 38.73584 Z M 115.78223 39.703125 Q 116.64697 38.763184 118.007324 38.763184 Q 119.36084 38.763184 120.249504 39.651855 Q 121.13818 40.540527 121.13818 42.01709 Q 121.13818 43.377445 120.276855 44.382324 Q 119.415535 45.387207 118.04834 45.387207 Q 116.73584 45.387207 115.82666 44.423344 Q 114.91748 43.459473 114.91748 42.003418 Q 114.91748 40.643066 115.78223 39.703125 Z M 116.879395 39.52881 Q 116.1958 40.15088 116.1958 41.675293 Q 116.1958 42.89209 116.74609 43.94482 Q 117.29639 44.99756 118.273926 44.99756 Q 119.03955 44.99756 119.453125 44.293457 Q 119.8667 43.589355 119.8667 42.447754 Q 119.8667 41.265137 119.34033 40.21924 Q 118.813965 39.17334 117.81592 39.17334 Q 117.27589 39.17334 116.879395 39.52881 Z M 118.06885 38.763184 L 118.06885 38.763184 Z M 125.79346 38.934082 Q 126.066895 39.077637 126.319824 39.330566 L 126.319824 37.15674 Q 126.319824 36.739746 126.22754 36.58252 Q 126.135254 36.425293 125.78662 36.425293 Q 125.70459 36.425293 125.64307 36.43213 Q 125.58155 36.438965 125.36963 36.459473 L 125.36963 36.233887 L 125.930176 36.090332 Q 126.237785 36.0083 126.54541 35.919434 Q 126.85303 35.830566 127.08544 35.748535 Q 127.19483 35.714355 127.447754 35.618652 L 127.48877 35.632324 L 127.4751 36.350098 Q 127.468254 36.739746 127.461426 37.15332 Q 127.45459 37.566895 127.45459 37.970215 L 127.44092 43.555176 Q 127.44092 43.99951 127.55029 44.177242 Q 127.65966 44.35498 128.13135 44.35498 Q 128.20654 44.35498 128.28174 44.351566 Q 128.35693 44.348145 128.43213 44.334473 L 128.43213 44.560055 Q 128.39111 44.57373 127.44092 44.901855 L 126.367676 45.305176 L 126.319824 45.243652 L 126.319824 44.402832 Q 125.93701 44.819824 125.65674 44.99756 Q 125.157715 45.305176 124.501465 45.305176 Q 123.339355 45.305176 122.618164 44.40625 Q 121.89697 43.507324 121.89697 42.324707 Q 121.89697 40.84131 122.76172 39.77832 Q 123.626465 38.715332 124.87744 38.715332 Q 125.37646 38.715332 125.79346 38.934082 Z M 125.9917 44.25244 Q 126.319824 43.93799 126.319824 43.65771 L 126.319824 40.725098 Q 126.319824 39.836426 125.84473 39.470703 Q 125.36963 39.10498 124.91846 39.10498 Q 124.05713 39.10498 123.57861 39.867188 Q 123.1001 40.629395 123.1001 41.743652 Q 123.1001 42.84424 123.609375 43.705563 Q 124.11865 44.5669 125.13037 44.5669 Q 125.66357 44.5669 125.9917 44.25244 Z M 133.45654 39.429688 Q 134.18115 40.09619 134.18115 41.319824 L 129.84033 41.319824 Q 129.90869 42.90576 130.5581 43.63037 Q 131.20752 44.35498 132.09619 44.35498 Q 132.81396 44.35498 133.30615 43.979004 Q 133.79834 43.603027 134.21533 42.912598 L 134.45459 42.994625 Q 134.17432 43.862793 133.40527 44.601074 Q 132.63623 45.339355 131.52197 45.339355 Q 130.23682 45.339355 129.53613 44.36865 Q 128.83545 43.39795 128.83545 42.1333 Q 128.83545 40.759277 129.64893 39.76123 Q 130.4624 38.763184 131.76807 38.763184 Q 132.73193 38.763184 133.45654 39.429688 Z M 130.18213 39.952637 Q 129.96338 40.321777 129.86768 40.882324 L 132.75244 40.882324 Q 132.67725 40.19873 132.49268 39.86377 Q 132.15771 39.262207 131.37158 39.262207 Q 130.59229 39.262207 130.18213 39.952637 Z M 131.6792 38.763184 L 131.6792 38.763184 Z M 135.32275 41.57959 L 138.76123 41.57959 L 138.76123 42.45459 L 135.32275 42.45459 L 135.32275 41.57959 Z M 143.61133 35.833984 Q 143.61475 35.851074 143.61475 35.912598 L 143.61475 44.143066 Q 143.61475 44.669434 143.89502 44.81299 Q 144.1753 44.956543 144.94092 44.983883 L 144.94092 45.17529 L 141.08545 45.17529 L 141.08545 44.970215 Q 141.9126 44.9292 142.16553 44.74463 Q 142.41846 44.560055 142.41846 43.94482 L 142.41846 37.614746 Q 142.41846 37.28662 142.33643 37.115723 Q 142.2544 36.944824 141.98096 36.944824 Q 141.80322 36.944824 141.51953 37.043945 Q 141.23584 37.143066 140.98975 37.25244 L 140.98975 37.061035 L 143.49854 35.782715 L 143.58057 35.782715 Q 143.60791 35.816895 143.61133 35.833984 Z M 152.28271 41.93506 Q 151.4419 42.092285 151.04541 42.31787 Q 150.35498 42.72119 150.35498 43.507324 L 150.34131 45.612797 Q 150.34131 46.720215 149.521 47.19531 Q 148.70068 47.67041 147.30615 47.67041 L 147.30615 47.362797 Q 148.16748 47.191895 148.55713 46.952637 Q 149.2544 46.52881 149.2544 45.681152 L 149.26807 43.753414 Q 149.26807 42.82373 149.93115 42.331543 Q 150.59424 41.839355 151.8794 41.72998 L 151.8794 41.6958 Q 150.396 41.401855 149.9585 41.10791 Q 149.26807 40.643066 149.26807 39.49463 L 149.26807 37.819824 Q 149.26807 36.842285 148.45459 36.370605 Q 147.99658 36.104004 147.30615 36.021973 L 147.30615 35.714355 Q 149.06299 35.714355 149.70215 36.27832 Q 150.34131 36.842285 150.34131 37.79248 L 150.35498 39.672363 Q 150.35498 40.663574 151.07275 41.09424 Q 151.48291 41.347168 152.28271 41.436035 L 152.28271 41.93506 Z"/>
    </g>
    <g>
        <path fill="#ffffff" stroke="#000000" d="M 66 148 L 188 148 L 188 172 L 66 172 Z"/>
    </g>
    <g>
        <path fill="#000000" stroke="none" d="M 101.71045 159.43604 Q 102.5376 159.34717 102.9751 159.0669 Q 103.64502 158.6294 103.64502 157.67236 L 103.65869 155.79248 Q 103.65869 154.52783 104.6499 154.06982 Q 105.22412 153.80322 106.687004 153.71436 L 106.687004 154.02197 Q 105.94873 154.104 105.336914 154.5039 Q 104.7251 154.90381 104.7251 155.81982 L 104.7251 157.49463 Q 104.7251 158.5747 104.20557 158.97803 Q 103.686035 159.38135 102.359856 159.64795 L 102.1206 159.6958 L 102.1206 159.72998 Q 103.52197 159.83936 104.11669 160.36572 Q 104.711426 160.89209 104.7251 161.75342 L 104.745605 163.68115 Q 104.75245 164.52881 105.436035 164.95264 Q 105.825676 165.1919 106.687004 165.3628 L 106.687004 165.67041 Q 105.312996 165.67041 104.48584 165.19873 Q 103.65869 164.72705 103.65869 163.6128 L 103.64502 161.50732 Q 103.64502 160.71436 102.934074 160.31104 Q 102.53076 160.08545 101.71045 159.93506 L 101.71045 159.43604 Z M 107.81494 162.98389 Q 108.300285 162.92236 108.49512 162.74121 Q 108.68994 162.56006 108.68994 161.93115 L 108.68994 158.46533 Q 108.68994 158.02783 108.60791 157.8501 Q 108.47803 157.59033 108.074715 157.59033 Q 108.013176 157.59033 107.94825 157.59717 Q 107.88331 157.604 107.787605 157.61768 L 107.787605 157.37842 Q 108.06787 157.29639 109.11378 156.95459 L 109.75635 156.74268 Q 109.8042 156.74268 109.81445 156.77686 Q 109.82471 156.81104 109.82471 156.87256 L 109.82471 157.87744 Q 110.45361 157.28955 110.809074 157.0708 Q 111.342285 156.73584 111.916504 156.73584 Q 112.38135 156.73584 112.76416 157.00244 Q 113.50244 157.52197 113.50244 158.85498 L 113.50244 162.04736 Q 113.50244 162.53955 113.700676 162.7583 Q 113.898926 162.97705 114.36377 162.98389 L 114.36377 163.1753 L 111.44483 163.1753 L 111.44483 162.98389 Q 111.94384 162.91553 112.14209 162.70703 Q 112.34034 162.49854 112.34034 161.80127 L 112.34034 158.88232 Q 112.34034 158.29443 112.12158 157.9082 Q 111.90283 157.52197 111.31494 157.52197 Q 110.91162 157.52197 110.49463 157.79541 Q 110.26221 157.95264 109.89307 158.31494 L 109.89307 162.14307 Q 109.89307 162.63525 110.11182 162.80273 Q 110.33056 162.97021 110.802246 162.98389 L 110.802246 163.1753 L 107.81494 163.1753 L 107.81494 162.98389 Z M 111.06885 156.73584 L 111.06885 156.73584 Z M 115.78223 157.70313 Q 116.64697 156.76318 118.007324 156.76318 Q 119.36084 156.76318 120.249504 157.65186 Q 121.13818 158.54053 121.13818 160.01709 Q 121.13818 161.37744 120.276855 162.38232 Q 119.415535 163.3872 118.04834 163.3872 Q 116.73584 163.3872 115.82666 162.42334 Q 114.91748 161.45947 114.91748 160.00342 Q 114.91748 158.64307 115.78223 157.70313 Z M 116.879395 157.52881 Q 116.1958 158.15088 116.1958 159.6753 Q 116.1958 160.89209 116.74609 161.94482 Q 117.29639 162.99756 118.273926 162.99756 Q 119.03955 162.99756 119.453125 162.29346 Q 119.8667 161.58936 119.8667 160.44775 Q 119.8667 159.26514 119.34033 158.21924 Q 118.813965 157.17334 117.81592 157.17334 Q 117.27589 157.17334 116.879395 157.52881 Z M 118.06885 156.76318 L 118.06885 156.76318 Z M 125.79346 156.93408 Q 126.066895 157.07764 126.319824 157.33057 L 126.319824 155.15674 Q 126.319824 154.73975 126.22754 154.58252 Q 126.135254 154.4253 125.78662 154.4253 Q 125.70459 154.4253 125.64307 154.43213 Q 125.58155 154.43896 125.36963 154.45947 L 125.36963 154.23389 L 125.930176 154.09033 Q 126.237785 154.0083 126.54541 153.91943 Q 126.85303 153.83057 127.08544 153.74854 Q 127.19483 153.71436 127.447754 153.61865 L 127.48877 153.63232 L 127.4751 154.3501 Q 127.468254 154.73975 127.461426 155.15332 Q 127.45459 155.5669 127.45459 155.97021 L 127.44092 161.55518 Q 127.44092 161.99951 127.55029 162.17725 Q 127.65966 162.35498 128.13135 162.35498 Q 128.20654 162.35498 128.28174 162.35156 Q 128.35693 162.34814 128.43213 162.33447 L 128.43213 162.56006 Q 128.39111 162.57373 127.44092 162.90186 L 126.367676 163.30518 L 126.319824 163.24365 L 126.319824 162.40283 Q 125.93701 162.81982 125.65674 162.99756 Q 125.157715 163.30518 124.501465 163.30518 Q 123.339355 163.30518 122.618164 162.40625 Q 121.89697 161.50732 121.89697 160.3247 Q 121.89697 158.84131 122.76172 157.77832 Q 123.626465 156.71533 124.87744 156.71533 Q 125.37646 156.71533 125.79346 156.93408 Z M 125.9917 162.25244 Q 126.319824 161.93799 126.319824 161.65771 L 126.319824 158.7251 Q 126.319824 157.83643 125.84473 157.4707 Q 125.36963 157.10498 124.91846 157.10498 Q 124.05713 157.10498 123.57861 157.86719 Q 123.1001 158.6294 123.1001 159.74365 Q 123.1001 160.84424 123.609375 161.70557 Q 124.11865 162.5669 125.13037 162.5669 Q 125.66357 162.5669 125.9917 162.25244 Z M 133.45654 157.42969 Q 134.18115 158.09619 134.18115 159.31982 L 129.84033 159.31982 Q 129.90869 160.90576 130.5581 161.63037 Q 131.20752 162.35498 132.09619 162.35498 Q 132.81396 162.35498 133.30615 161.979 Q 133.79834 161.60303 134.21533 160.9126 L 134.45459 160.99463 Q 134.17432 161.8628 133.40527 162.60107 Q 132.63623 163.33936 131.52197 163.33936 Q 130.23682 163.33936 129.53613 162.36865 Q 128.83545 161.39795 128.83545 160.1333 Q 128.83545 158.75928 129.64893 157.76123 Q 130.4624 156.76318 131.76807 156.76318 Q 132.73193 156.76318 133.45654 157.42969 Z M 130.18213 157.95264 Q 129.96338 158.32178 129.86768 158.88232 L 132.75244 158.88232 Q 132.67725 158.19873 132.49268 157.86377 Q 132.15771 157.2622 131.37158 157.2622 Q 130.59229 157.2622 130.18213 157.95264 Z M 131.6792 156.76318 L 131.6792 156.76318 Z M 135.32275 159.57959 L 138.76123 159.57959 L 138.76123 160.45459 L 135.32275 160.45459 L 135.32275 159.57959 Z M 139.85498 163.01807 Q 142.35693 160.42041 143.25244 159.20361 Q 144.14795 157.98682 144.14795 156.83154 Q 144.14795 155.81982 143.60107 155.29004 Q 143.0542 154.76025 142.29541 154.76025 Q 141.35889 154.76025 140.77783 155.44385 Q 140.45654 155.81982 140.1626 156.59912 L 139.86865 156.5376 Q 140.21045 154.96533 141.02734 154.35352 Q 141.84424 153.7417 142.78076 153.7417 Q 143.93604 153.7417 144.65039 154.46973 Q 145.36475 155.19775 145.36475 156.25049 Q 145.36475 157.37158 144.59229 158.41064 Q 143.81982 159.4497 141.23584 162.10889 L 144.37354 162.10889 Q 145.02979 162.10889 145.29639 161.95166 Q 145.56299 161.79443 145.89795 161.18604 L 146.07568 161.26807 L 145.3169 163.1753 L 139.85498 163.1753 L 139.85498 163.01807 Z M 152.28271 159.93506 Q 151.4419 160.09229 151.04541 160.31787 Q 150.35498 160.72119 150.35498 161.50732 L 150.34131 163.6128 Q 150.34131 164.72021 149.521 165.19531 Q 148.70068 165.67041 147.30615 165.67041 L 147.30615 165.3628 Q 148.16748 165.1919 148.55713 164.95264 Q 149.2544 164.52881 149.2544 163.68115 L 149.26807 161.75342 Q 149.26807 160.82373 149.93115 160.33154 Q 150.59424 159.83936 151.8794 159.72998 L 151.8794 159.6958 Q 150.396 159.40186 149.9585 159.10791 Q 149.26807 158.64307 149.26807 157.49463 L 149.26807 155.81982 Q 149.26807 154.84229 148.45459 154.3706 Q 147.99658 154.104 147.30615 154.02197 L 147.30615 153.71436 Q 149.06299 153.71436 149.70215 154.27832 Q 150.34131 154.84229 150.34131 155.79248 L 150.35498 157.67236 Q 150.35498 158.66357 151.07275 159.09424 Q 151.48291 159.34717 152.28271 159.43604 L 152.28271 159.93506 Z"/>
    </g>
    <g>
        <path fill="#ffffff" stroke="#000000" d="M 66 266 L 188 266 L 188 290 L 66 290 Z"/>
    </g>
    <g>
        <path fill="#000000" stroke="none" d="M 101.71045 277.43604 Q 102.5376 277.34717 102.9751 277.0669 Q 103.64502 276.6294 103.64502 275.67236 L 103.65869 273.79248 Q 103.65869 272.52783 104.6499 272.06982 Q 105.22412 271.80322 106.687004 271.71436 L 106.687004 272.02197 Q 105.94873 272.104 105.336914 272.5039 Q 104.7251 272.9038 104.7251 273.81982 L 104.7251 275.49463 Q 104.7251 276.5747 104.20557 276.97803 Q 103.686035 277.38135 102.359856 277.64795 L 102.1206 277.6958 L 102.1206 277.72998 Q 103.52197 277.83936 104.11669 278.36572 Q 104.711426 278.8921 104.7251 279.75342 L 104.745605 281.68115 Q 104.75245 282.5288 105.436035 282.95264 Q 105.825676 283.1919 106.687004 283.3628 L 106.687004 283.6704 Q 105.312996 283.6704 104.48584 283.19873 Q 103.65869 282.72705 103.65869 281.6128 L 103.64502 279.50732 Q 103.64502 278.71436 102.934074 278.31104 Q 102.53076 278.08545 101.71045 277.93506 L 101.71045 277.43604 Z M 107.81494 280.9839 Q 108.300285 280.92236 108.49512 280.7412 Q 108.68994 280.56006 108.68994 279.93115 L 108.68994 276.46533 Q 108.68994 276.02783 108.60791 275.8501 Q 108.47803 275.59033 108.074715 275.59033 Q 108.013176 275.59033 107.94825 275.59717 Q 107.88331 275.604 107.787605 275.61768 L 107.787605 275.37842 Q 108.06787 275.2964 109.11378 274.9546 L 109.75635 274.74268 Q 109.8042 274.74268 109.81445 274.77686 Q 109.82471 274.81104 109.82471 274.87256 L 109.82471 275.87744 Q 110.45361 275.28955 110.809074 275.0708 Q 111.342285 274.73584 111.916504 274.73584 Q 112.38135 274.73584 112.76416 275.00244 Q 113.50244 275.52197 113.50244 276.85498 L 113.50244 280.04736 Q 113.50244 280.53955 113.700676 280.7583 Q 113.898926 280.97705 114.36377 280.9839 L 114.36377 281.1753 L 111.44483 281.1753 L 111.44483 280.9839 Q 111.94384 280.91553 112.14209 280.70703 Q 112.34034 280.49854 112.34034 279.80127 L 112.34034 276.88232 Q 112.34034 276.29443 112.12158 275.9082 Q 111.90283 275.52197 111.31494 275.52197 Q 110.91162 275.52197 110.49463 275.7954 Q 110.26221 275.95264 109.89307 276.31494 L 109.89307 280.14307 Q 109.89307 280.63525 110.11182 280.80273 Q 110.33056 280.9702 110.802246 280.9839 L 110.802246 281.1753 L 107.81494 281.1753 L 107.81494 280.9839 Z M 111.06885 274.73584 L 111.06885 274.73584 Z M 115.78223 275.70313 Q 116.64697 274.76318 118.007324 274.76318 Q 119.36084 274.76318 120.249504 275.65186 Q 121.13818 276.54053 121.13818 278.0171 Q 121.13818 279.37744 120.276855 280.38232 Q 119.415535 281.3872 118.04834 281.3872 Q 116.73584 281.3872 115.82666 280.42334 Q 114.91748 279.45947 114.91748 278.00342 Q 114.91748 276.64307 115.78223 275.70313 Z M 116.879395 275.5288 Q 116.1958 276.15088 116.1958 277.6753 Q 116.1958 278.8921 116.74609 279.94482 Q 117.29639 280.99756 118.273926 280.99756 Q 119.03955 280.99756 119.453125 280.29346 Q 119.8667 279.58936 119.8667 278.44775 Q 119.8667 277.26514 119.34033 276.21924 Q 118.813965 275.17334 117.81592 275.17334 Q 117.27589 275.17334 116.879395 275.5288 Z M 118.06885 274.76318 L 118.06885 274.76318 Z M 125.79346 274.93408 Q 126.066895 275.07764 126.319824 275.33057 L 126.319824 273.15674 Q 126.319824 272.73975 126.22754 272.58252 Q 126.135254 272.4253 125.78662 272.4253 Q 125.70459 272.4253 125.64307 272.43213 Q 125.58155 272.43896 125.36963 272.45947 L 125.36963 272.2339 L 125.930176 272.09033 Q 126.237785 272.0083 126.54541 271.91943 Q 126.85303 271.83057 127.08544 271.74854 Q 127.19483 271.71436 127.447754 271.61865 L 127.48877 271.63232 L 127.4751 272.3501 Q 127.468254 272.73975 127.461426 273.15332 Q 127.45459 273.5669 127.45459 273.9702 L 127.44092 279.55518 Q 127.44092 279.9995 127.55029 280.17725 Q 127.65966 280.35498 128.13135 280.35498 Q 128.20654 280.35498 128.28174 280.35156 Q 128.35693 280.34814 128.43213 280.33447 L 128.43213 280.56006 Q 128.39111 280.57373 127.44092 280.90186 L 126.367676 281.30518 L 126.319824 281.24365 L 126.319824 280.40283 Q 125.93701 280.81982 125.65674 280.99756 Q 125.157715 281.30518 124.501465 281.30518 Q 123.339355 281.30518 122.618164 280.40625 Q 121.89697 279.50732 121.89697 278.3247 Q 121.89697 276.8413 122.76172 275.77832 Q 123.626465 274.71533 124.87744 274.71533 Q 125.37646 274.71533 125.79346 274.93408 Z M 125.9917 280.25244 Q 126.319824 279.938 126.319824 279.6577 L 126.319824 276.7251 Q 126.319824 275.83643 125.84473 275.4707 Q 125.36963 275.10498 124.91846 275.10498 Q 124.05713 275.10498 123.57861 275.8672 Q 123.1001 276.6294 123.1001 277.74365 Q 123.1001 278.84424 123.609375 279.70557 Q 124.11865 280.5669 125.13037 280.5669 Q 125.66357 280.5669 125.9917 280.25244 Z M 133.45654 275.4297 Q 134.18115 276.0962 134.18115 277.31982 L 129.84033 277.31982 Q 129.90869 278.90576 130.5581 279.63037 Q 131.20752 280.35498 132.09619 280.35498 Q 132.81396 280.35498 133.30615 279.979 Q 133.79834 279.60303 134.21533 278.9126 L 134.45459 278.99463 Q 134.17432 279.8628 133.40527 280.60107 Q 132.63623 281.33936 131.52197 281.33936 Q 130.23682 281.33936 129.53613 280.36865 Q 128.83545 279.39795 128.83545 278.1333 Q 128.83545 276.75928 129.64893 275.76123 Q 130.4624 274.76318 131.76807 274.76318 Q 132.73193 274.76318 133.45654 275.4297 Z M 130.18213 275.95264 Q 129.96338 276.32178 129.86768 276.88232 L 132.75244 276.88232 Q 132.67725 276.19873 132.49268 275.86377 Q 132.15771 275.2622 131.37158 275.2622 Q 130.59229 275.2622 130.18213 275.95264 Z M 131.6792 274.76318 L 131.6792 274.76318 Z M 135.32275 277.5796 L 138.76123 277.5796 L 138.76123 278.4546 L 135.32275 278.4546 L 135.32275 277.5796 Z M 141.51953 280.3755 Q 142.13818 280.76514 142.56885 280.76514 Q 143.52588 280.76514 143.99072 280.11914 Q 144.45557 279.47314 144.45557 278.71436 Q 144.45557 277.9829 144.07959 277.4292 Q 143.44385 276.49268 141.9331 276.49268 Q 141.84424 276.49268 141.7622 276.4961 Q 141.68018 276.4995 141.5708 276.51318 L 141.55713 276.33545 Q 142.65088 275.93896 143.27979 275.42627 Q 143.90869 274.91357 143.90869 274.07275 Q 143.90869 273.32764 143.41309 272.938 Q 142.91748 272.54834 142.28174 272.54834 Q 141.52979 272.54834 140.95557 273.10205 Q 140.64111 273.40283 140.27881 274.03174 L 140.0669 273.9839 Q 140.34033 272.94482 141.08545 272.32275 Q 141.83057 271.70068 142.8081 271.70068 Q 143.854 271.70068 144.4248 272.2749 Q 144.9956 272.84912 144.9956 273.60107 Q 144.9956 274.26416 144.52393 274.81787 Q 144.25732 275.13232 143.69678 275.52197 Q 144.35303 275.80225 144.74951 276.17822 Q 145.49463 276.896 145.49463 277.99658 Q 145.49463 279.2954 144.47266 280.28662 Q 143.45068 281.27783 141.56396 281.27783 Q 140.72314 281.27783 140.38477 281.02832 Q 140.04639 280.7788 140.04639 280.4917 Q 140.04639 280.31396 140.15918 280.1499 Q 140.27197 279.98584 140.5249 279.98584 Q 140.90088 279.98584 141.51953 280.3755 Z M 152.28271 277.93506 Q 151.4419 278.0923 151.04541 278.31787 Q 150.35498 278.7212 150.35498 279.50732 L 150.34131 281.6128 Q 150.34131 282.7202 149.521 283.1953 Q 148.70068 283.6704 147.30615 283.6704 L 147.30615 283.3628 Q 148.16748 283.1919 148.55713 282.95264 Q 149.2544 282.5288 149.2544 281.68115 L 149.26807 279.75342 Q 149.26807 278.82373 149.93115 278.33154 Q 150.59424 277.83936 151.8794 277.72998 L 151.8794 277.6958 Q 150.396 277.40186 149.9585 277.1079 Q 149.26807 276.64307 149.26807 275.49463 L 149.26807 273.81982 Q 149.26807 272.8423 148.45459 272.3706 Q 147.99658 272.104 147.30615 272.02197 L 147.30615 271.71436 Q 149.06299 271.71436 149.70215 272.27832 Q 150.34131 272.8423 150.34131 273.79248 L 150.35498 275.67236 Q 150.35498 276.66357 151.07275 277.09424 Q 151.48291 277.34717 152.28271 277.43604 L 152.28271 277.93506 Z"/>
    </g>
    <g>
        <path fill="#ffffff" stroke="#000000" d="M 66 384 L 188 384 L 188 408 L 66 408 Z"/>
    </g>
    <g>
        <path fill="#000000" stroke="none" d="M 101.71045 395.43604 Q 102.5376 395.34714 102.9751 395.0669 Q 103.64502 394.6294 103.64502 393.67236 L 103.65869 391.79248 Q 103.65869 390.52783 104.6499 390.06982 Q 105.22412 389.80322 106.687004 389.71436 L 106.687004 390.02197 Q 105.94873 390.10403 105.336914 390.5039 Q 104.7251 390.9038 104.7251 391.81982 L 104.7251 393.4946 Q 104.7251 394.57474 104.20557 394.97803 Q 103.686035 395.38135 102.359856 395.64795 L 102.1206 395.6958 L 102.1206 395.72995 Q 103.52197 395.83936 104.11669 396.36575 Q 104.711426 396.8921 104.7251 397.75342 L 104.745605 399.68115 Q 104.75245 400.5288 105.436035 400.95264 Q 105.825676 401.1919 106.687004 401.3628 L 106.687004 401.67038 Q 105.312996 401.67038 104.48584 401.19873 Q 103.65869 400.72705 103.65869 399.6128 L 103.64502 397.50732 Q 103.64502 396.71436 102.934074 396.311 Q 102.53076 396.08545 101.71045 395.93506 L 101.71045 395.43604 Z M 107.81494 398.98392 Q 108.300285 398.9224 108.49512 398.7412 Q 108.68994 398.56006 108.68994 397.93115 L 108.68994 394.46533 Q 108.68994 394.02783 108.60791 393.8501 Q 108.47803 393.59033 108.074715 393.59033 Q 108.013176 393.59033 107.94825 393.59717 Q 107.88331 393.604 107.787605 393.6177 L 107.787605 393.37842 Q 108.06787 393.29642 109.11378 392.9546 L 109.75635 392.74268 Q 109.8042 392.74268 109.81445 392.77686 Q 109.82471 392.81104 109.82471 392.87256 L 109.82471 393.8774 Q 110.45361 393.28955 110.809074 393.0708 Q 111.342285 392.73584 111.916504 392.73584 Q 112.38135 392.73584 112.76416 393.00244 Q 113.50244 393.52197 113.50244 394.85498 L 113.50244 398.04736 Q 113.50244 398.53958 113.700676 398.7583 Q 113.898926 398.97705 114.36377 398.98392 L 114.36377 399.17532 L 111.44483 399.17532 L 111.44483 398.98392 Q 111.94384 398.91556 112.14209 398.707 Q 112.34034 398.49854 112.34034 397.80127 L 112.34034 394.88232 Q 112.34034 394.29443 112.12158 393.90817 Q 111.90283 393.52197 111.31494 393.52197 Q 110.91162 393.52197 110.49463 393.7954 Q 110.26221 393.95264 109.89307 394.31497 L 109.89307 398.14307 Q 109.89307 398.63525 110.11182 398.80273 Q 110.33056 398.9702 110.802246 398.98392 L 110.802246 399.17532 L 107.81494 399.17532 L 107.81494 398.98392 Z M 111.06885 392.73584 L 111.06885 392.73584 Z M 115.78223 393.70313 Q 116.64697 392.76318 118.007324 392.76318 Q 119.36084 392.76318 120.249504 393.65186 Q 121.13818 394.54053 121.13818 396.0171 Q 121.13818 397.37744 120.276855 398.38232 Q 119.415535 399.3872 118.04834 399.3872 Q 116.73584 399.3872 115.82666 398.42334 Q 114.91748 397.45944 114.91748 396.00342 Q 114.91748 394.64304 115.78223 393.70313 Z M 116.879395 393.5288 Q 116.1958 394.15088 116.1958 395.6753 Q 116.1958 396.8921 116.74609 397.94482 Q 117.29639 398.99756 118.273926 398.99756 Q 119.03955 398.99756 119.453125 398.29346 Q 119.8667 397.58932 119.8667 396.44775 Q 119.8667 395.26514 119.34033 394.21924 Q 118.813965 393.1733 117.81592 393.1733 Q 117.27589 393.1733 116.879395 393.5288 Z M 118.06885 392.76318 L 118.06885 392.76318 Z M 125.79346 392.93408 Q 126.066895 393.07764 126.319824 393.33057 L 126.319824 391.15674 Q 126.319824 390.73978 126.22754 390.58252 Q 126.135254 390.42532 125.78662 390.42532 Q 125.70459 390.42532 125.64307 390.4321 Q 125.58155 390.43896 125.36963 390.45947 L 125.36963 390.23386 L 125.930176 390.09033 Q 126.237785 390.0083 126.54541 389.9194 Q 126.85303 389.83057 127.08544 389.74854 Q 127.19483 389.71436 127.447754 389.61865 L 127.48877 389.63232 L 127.4751 390.3501 Q 127.468254 390.73978 127.461426 391.15335 Q 127.45459 391.5669 127.45459 391.9702 L 127.44092 397.55518 Q 127.44092 397.9995 127.55029 398.17725 Q 127.65966 398.35495 128.13135 398.35495 Q 128.20654 398.35495 128.28174 398.35156 Q 128.35693 398.3481 128.43213 398.33447 L 128.43213 398.56006 Q 128.39111 398.57373 127.44092 398.90186 L 126.367676 399.3052 L 126.319824 399.24362 L 126.319824 398.40283 Q 125.93701 398.81982 125.65674 398.99756 Q 125.157715 399.3052 124.501465 399.3052 Q 123.339355 399.3052 122.618164 398.40625 Q 121.89697 397.50732 121.89697 396.3247 Q 121.89697 394.84128 122.76172 393.77835 Q 123.626465 392.71533 124.87744 392.71533 Q 125.37646 392.71533 125.79346 392.93408 Z M 125.9917 398.25244 Q 126.319824 397.938 126.319824 397.6577 L 126.319824 394.7251 Q 126.319824 393.83643 125.84473 393.4707 Q 125.36963 393.105 124.91846 393.105 Q 124.05713 393.105 123.57861 393.8672 Q 123.1001 394.6294 123.1001 395.74365 Q 123.1001 396.84424 123.609375 397.7056 Q 124.11865 398.5669 125.13037 398.5669 Q 125.66357 398.5669 125.9917 398.25244 Z M 133.45654 393.4297 Q 134.18115 394.0962 134.18115 395.31982 L 129.84033 395.31982 Q 129.90869 396.90576 130.5581 397.63037 Q 131.20752 398.35495 132.09619 398.35495 Q 132.81396 398.35495 133.30615 397.979 Q 133.79834 397.60303 134.21533 396.9126 L 134.45459 396.99463 Q 134.17432 397.8628 133.40527 398.6011 Q 132.63623 399.33936 131.52197 399.33936 Q 130.23682 399.33936 129.53613 398.36865 Q 128.83545 397.39795 128.83545 396.1333 Q 128.83545 394.75928 129.64893 393.76123 Q 130.4624 392.76318 131.76807 392.76318 Q 132.73193 392.76318 133.45654 393.4297 Z M 130.18213 393.95264 Q 129.96338 394.3218 129.86768 394.88232 L 132.75244 394.88232 Q 132.67725 394.1987 132.49268 393.86377 Q 132.15771 393.2622 131.37158 393.2622 Q 130.59229 393.2622 130.18213 393.95264 Z M 131.6792 392.76318 L 131.6792 392.76318 Z M 135.32275 395.5796 L 138.76123 395.5796 L 138.76123 396.4546 L 135.32275 396.4546 L 135.32275 395.5796 Z M 143.51904 391.19095 L 140.1626 395.93506 L 143.51904 395.93506 L 143.51904 391.19095 Z M 143.97021 389.78275 L 144.61963 389.78275 L 144.61963 395.93506 L 146.04834 395.93506 L 146.04834 396.84424 L 144.61963 396.84424 L 144.61963 399.17532 L 143.53271 399.17532 L 143.53271 396.84424 L 139.59521 396.84424 L 139.59521 395.93506 L 143.97021 389.78275 Z M 152.28271 395.93506 Q 151.4419 396.0923 151.04541 396.31787 Q 150.35498 396.7212 150.35498 397.50732 L 150.34131 399.6128 Q 150.34131 400.7202 149.521 401.19528 Q 148.70068 401.67038 147.30615 401.67038 L 147.30615 401.3628 Q 148.16748 401.1919 148.55713 400.95264 Q 149.2544 400.5288 149.2544 399.68115 L 149.26807 397.75342 Q 149.26807 396.82373 149.93115 396.33154 Q 150.59424 395.83936 151.8794 395.72995 L 151.8794 395.6958 Q 150.396 395.4019 149.9585 395.1079 Q 149.26807 394.64304 149.26807 393.4946 L 149.26807 391.81982 Q 149.26807 390.8423 148.45459 390.3706 Q 147.99658 390.10403 147.30615 390.02197 L 147.30615 389.71436 Q 149.06299 389.71436 149.70215 390.27832 Q 150.34131 390.8423 150.34131 391.79248 L 150.35498 393.67236 Q 150.35498 394.66357 151.07275 395.0942 Q 151.48291 395.34714 152.28271 395.43604 L 152.28271 395.93506 Z"/>
    </g>
    <g>
        <path fill="#000000" stroke="none" d="M 41.103516 100.43604 Q 41.930664 100.34717 42.368164 100.066895 Q 43.038086 99.629395 43.038086 98.67236 L 43.051754 96.79248 Q 43.051754 95.52783 44.04297 95.06983 Q 44.617184 94.80322 46.08008 94.714355 L 46.08008 95.02198 Q 45.341797 95.104 44.72998 95.50391 Q 44.118164 95.90381 44.118164 96.819824 L 44.118164 98.49463 Q 44.118164 99.5747 43.598633 99.97803 Q 43.0791 100.38135 41.75293 100.64795 L 41.51367 100.6958 L 41.51367 100.72998 Q 42.91504 100.839355 43.509766 101.36572 Q 44.104492 101.89208 44.118164 102.75341 L 44.13867 104.68115 Q 44.145504 105.52881 44.8291 105.95264 Q 45.21875 106.191895 46.08008 106.3628 L 46.08008 106.67041 Q 44.706055 106.67041 43.878906 106.19873 Q 43.051754 105.72705 43.051754 104.61279 L 43.038086 102.507324 Q 43.038086 101.71436 42.32715 101.311035 Q 41.92383 101.08545 41.103516 100.93506 L 41.103516 100.43604 Z M 51.84961 98.42969 Q 52.57422 99.09618 52.57422 100.319824 L 48.2334 100.319824 Q 48.301758 101.90577 48.95117 102.63037 Q 49.600582 103.35498 50.489258 103.35498 Q 51.20703 103.35498 51.69922 102.979004 Q 52.191406 102.60303 52.6084 101.9126 L 52.847656 101.99463 Q 52.567383 102.8628 51.79834 103.60107 Q 51.0293 104.339355 49.91504 104.339355 Q 48.629883 104.339355 47.9292 103.36865 Q 47.22851 102.39795 47.22851 101.1333 Q 47.22851 99.75928 48.041996 98.76122 Q 48.85547 97.76318 50.161133 97.76318 Q 51.125004 97.76318 51.84961 98.42969 Z M 48.575195 98.95263 Q 48.356445 99.32178 48.260742 99.882324 L 51.145508 99.882324 Q 51.07031 99.19873 50.885746 98.86377 Q 50.550777 98.26221 49.76465 98.26221 Q 48.985348 98.26221 48.575195 98.95263 Z M 50.07226 97.76318 L 50.07226 97.76318 Z M 57.40039 97.93408 Q 57.673832 98.07764 57.926758 98.33056 L 57.926758 96.15673 Q 57.926758 95.73975 57.83447 95.58251 Q 57.742188 95.42529 57.393555 95.42529 Q 57.311523 95.42529 57.250004 95.43213 Q 57.188477 95.43896 56.976563 95.45947 L 56.976563 95.23389 L 57.53711 95.09033 Q 57.844727 95.00829 58.152344 94.91943 Q 58.45996 94.830574 58.692383 94.748535 Q 58.801758 94.714355 59.054688 94.61865 L 59.095707 94.632324 L 59.08203 95.3501 Q 59.075195 95.73975 59.06836 96.15332 Q 59.061523 96.566895 59.061523 96.97022 L 59.047855 102.555176 Q 59.047855 102.99951 59.157227 103.177246 Q 59.2666 103.35498 59.73828 103.35498 Q 59.813477 103.35498 59.88867 103.35156 Q 59.963867 103.348145 60.03906 103.33447 L 60.03906 103.56006 Q 59.99805 103.57373 59.047855 103.90186 L 57.97461 104.305176 L 57.926758 104.24365 L 57.926758 103.40283 Q 57.543945 103.819824 57.26367 103.99757 Q 56.764645 104.305176 56.108402 104.305176 Q 54.94629 104.305176 54.225094 103.40626 Q 53.503906 102.507324 53.503906 101.32471 Q 53.503906 99.84131 54.36865 98.77832 Q 55.2334 97.71533 56.48437 97.71533 Q 56.9834 97.71533 57.40039 97.93408 Z M 57.598633 103.25244 Q 57.926758 102.93799 57.926758 102.65771 L 57.926758 99.7251 Q 57.926758 98.836426 57.451656 98.47071 Q 56.976563 98.10497 56.52539 98.10497 Q 55.664063 98.10497 55.185547 98.86719 Q 54.70703 99.629395 54.70703 100.74365 Q 54.70703 101.84423 55.21631 102.70556 Q 55.72559 103.5669 56.737305 103.5669 Q 57.270508 103.5669 57.598633 103.25244 Z M 62.188965 106.23291 Q 62.83496 106.45166 63.668945 106.45166 Q 64.80371 106.45166 65.51465 106.0586 Q 66.225586 105.66553 66.225586 105.09131 Q 66.225586 104.6333 65.65137 104.48291 Q 65.2959 104.39404 64.30469 104.38038 Q 64.05176 104.373535 63.771484 104.36328 Q 63.49121 104.35303 63.25879 104.339355 Q 63.1084 104.33253 62.773438 104.284676 Q 62.438477 104.236824 62.27441 104.20264 Q 62.192383 104.20264 61.871094 104.6333 Q 61.54297 105.07079 61.54297 105.43994 Q 61.54297 106.01416 62.188965 106.23291 Z M 61.464355 101.14697 Q 61.11914 100.620605 61.11914 99.964355 Q 61.11914 99.16455 61.754887 98.44678 Q 62.390625 97.729004 63.55273 97.729004 Q 64.05176 97.729004 64.65332 97.96484 Q 65.25488 98.20069 65.80859 98.20069 Q 65.95215 98.20069 66.242676 98.19043 Q 66.5332 98.180176 66.663086 98.180176 L 66.74512 98.180176 L 66.74512 98.73389 L 65.5625 98.73389 Q 65.68555 99.020996 65.75391 99.23291 Q 65.87012 99.629395 65.87012 99.98486 Q 65.87012 100.76416 65.22412 101.41699 Q 64.578125 102.069824 63.484375 102.069824 Q 63.313473 102.069824 62.86914 102.0083 Q 62.6709 102.0083 62.346195 102.34326 Q 62.021484 102.67822 62.021484 102.89014 Q 62.021484 103.10889 62.5 103.211426 Q 62.814453 103.27979 63.197266 103.27979 Q 64.9541 103.27979 65.58301 103.47803 Q 66.615234 103.79932 66.615234 104.85889 Q 66.615234 105.938965 65.40869 106.58154 Q 64.20215 107.22413 62.97168 107.22413 Q 61.85059 107.22413 61.194336 106.76953 Q 60.538086 106.31493 60.538086 105.81592 Q 60.538086 105.569824 60.712402 105.333984 Q 60.88672 105.098145 61.399414 104.6333 L 61.85059 104.22998 L 61.932617 104.14795 Q 61.618164 104.0249 61.460938 103.90869 Q 61.187504 103.69677 61.187504 103.42335 Q 61.187504 103.17041 61.42334 102.8662 Q 61.659184 102.562004 62.43164 101.87842 Q 61.80957 101.67334 61.464355 101.14697 Z M 64.359375 101.53662 Q 64.76953 101.208496 64.76953 100.39502 Q 64.76953 99.745605 64.43799 98.93213 Q 64.106445 98.11865 63.333984 98.11865 Q 62.664063 98.11865 62.41113 98.754395 Q 62.28125 99.089355 62.28125 99.58154 Q 62.28125 100.41553 62.68457 101.07861 Q 63.08789 101.7417 63.73047 101.7417 Q 64.106445 101.7417 64.359375 101.53662 Z M 63.67578 97.729004 L 63.67578 97.729004 Z M 72.06348 98.42969 Q 72.788086 99.09618 72.788086 100.319824 L 68.447266 100.319824 Q 68.515625 101.90577 69.16504 102.63037 Q 69.81445 103.35498 70.703125 103.35498 Q 71.4209 103.35498 71.913086 102.979004 Q 72.40527 102.60303 72.822266 101.9126 L 73.06152 101.99463 Q 72.78125 102.8628 72.01221 103.60107 Q 71.243164 104.339355 70.12891 104.339355 Q 68.84375 104.339355 68.14307 103.36865 Q 67.44238 102.39795 67.44238 101.1333 Q 67.44238 99.75928 68.25586 98.76122 Q 69.069336 97.76318 70.375 97.76318 Q 71.33887 97.76318 72.06348 98.42969 Z M 68.78906 98.95263 Q 68.57031 99.32178 68.47461 99.882324 L 71.359375 99.882324 Q 71.28418 99.19873 71.09961 98.86377 Q 70.76465 98.26221 69.978516 98.26221 Q 69.19922 98.26221 68.78906 98.95263 Z M 70.28613 97.76318 L 70.28613 97.76318 Z M 73.92969 100.5796 L 77.368164 100.5796 L 77.368164 101.45459 L 73.92969 101.45459 L 73.92969 100.5796 Z M 82.21826 94.833984 Q 82.22168 94.851074 82.22168 94.9126 L 82.22168 103.14307 Q 82.22168 103.66943 82.50195 103.81299 Q 82.78223 103.95654 83.54785 103.98388 L 83.54785 104.175285 L 79.69238 104.175285 L 79.69238 103.970215 Q 80.51953 103.9292 80.77246 103.74462 Q 81.02539 103.56006 81.02539 102.94482 L 81.02539 96.614746 Q 81.02539 96.28662 80.94336 96.11572 Q 80.86133 95.944824 80.58789 95.944824 Q 80.41016 95.944824 80.126465 96.04395 Q 79.84277 96.14307 79.59668 96.25243 L 79.59668 96.06103 L 82.10547 94.78271 L 82.1875 94.78271 Q 82.21484 94.816895 82.21826 94.833984 Z M 90.88965 100.93506 Q 90.04883 101.09228 89.65234 101.31787 Q 88.961914 101.72119 88.961914 102.507324 L 88.94824 104.61279 Q 88.94824 105.720215 88.12793 106.19531 Q 87.30761 106.67041 85.913086 106.67041 L 85.913086 106.3628 Q 86.774414 106.191895 87.164055 105.95264 Q 87.86133 105.52881 87.86133 104.68115 L 87.875 102.75341 Q 87.875 101.82373 88.53808 101.331535 Q 89.20117 100.839355 90.48632 100.72998 L 90.48632 100.6958 Q 89.00293 100.401855 88.56543 100.10791 Q 87.875 99.64307 87.875 98.49463 L 87.875 96.819824 Q 87.875 95.842285 87.06152 95.370605 Q 86.60352 95.104 85.913086 95.02198 L 85.913086 94.714355 Q 87.66992 94.714355 88.30908 95.27831 Q 88.94824 95.842285 88.94824 96.79248 L 88.961914 98.67236 Q 88.961914 99.663574 89.67969 100.09424 Q 90.08984 100.34717 90.88965 100.43604 L 90.88965 100.93506 Z"/>
    </g>
    <g>
        <path fill="#000000" stroke="none" d="M 41.103516 218.43604 Q 41.930664 218.34717 42.368164 218.06691 Q 43.038086 217.6294 43.038086 216.67236 L 43.051754 214.79248 Q 43.051754 213.52783 44.04297 213.06982 Q 44.617184 212.80322 46.08008 212.71436 L 46.08008 213.02199 Q 45.341797 213.104 44.72998 213.50389 Q 44.118164 213.90381 44.118164 214.81982 L 44.118164 216.49463 Q 44.118164 217.5747 43.598633 217.97803 Q 43.0791 218.38135 41.75293 218.64793 L 41.51367 218.6958 L 41.51367 218.72998 Q 42.91504 218.83934 43.509766 219.36572 Q 44.104492 219.89207 44.118164 220.7534 L 44.13867 222.68115 Q 44.145504 223.52882 44.8291 223.95264 Q 45.21875 224.1919 46.08008 224.36281 L 46.08008 224.67041 Q 44.706055 224.67041 43.878906 224.19873 Q 43.051754 223.72704 43.051754 222.6128 L 43.038086 220.50732 Q 43.038086 219.71436 42.32715 219.31104 Q 41.92383 219.08545 41.103516 218.93504 L 41.103516 218.43604 Z M 51.84961 216.42969 Q 52.57422 217.09619 52.57422 218.31982 L 48.2334 218.31982 Q 48.301758 219.90576 48.95117 220.63037 Q 49.600582 221.35498 50.489258 221.35498 Q 51.20703 221.35498 51.69922 220.97899 Q 52.191406 220.60303 52.6084 219.9126 L 52.847656 219.99463 Q 52.567383 220.8628 51.79834 221.60107 Q 51.0293 222.33936 49.91504 222.33936 Q 48.629883 222.33936 47.9292 221.36865 Q 47.22851 220.39796 47.22851 219.1333 Q 47.22851 217.75928 48.041996 216.76122 Q 48.85547 215.76318 50.161133 215.76318 Q 51.125004 215.76318 51.84961 216.42969 Z M 48.575195 216.95262 Q 48.356445 217.32178 48.260742 217.88232 L 51.145508 217.88232 Q 51.07031 217.19873 50.885746 216.86377 Q 50.550777 216.2622 49.76465 216.2622 Q 48.985348 216.2622 48.575195 216.95262 Z M 50.07226 215.76318 L 50.07226 215.76318 Z M 57.40039 215.93408 Q 57.673832 216.07764 57.926758 216.33057 L 57.926758 214.15674 Q 57.926758 213.73975 57.83447 213.58252 Q 57.742188 213.4253 57.393555 213.4253 Q 57.311523 213.4253 57.250004 213.43213 Q 57.188477 213.43895 56.976563 213.45947 L 56.976563 213.23389 L 57.53711 213.09033 Q 57.844727 213.0083 58.152344 212.91943 Q 58.45996 212.83058 58.692383 212.74854 Q 58.801758 212.71436 59.054688 212.61865 L 59.095707 212.63232 L 59.08203 213.3501 Q 59.075195 213.73975 59.06836 214.15332 Q 59.061523 214.5669 59.061523 214.97023 L 59.047855 220.55518 Q 59.047855 220.99951 59.157227 221.17725 Q 59.2666 221.35498 59.73828 221.35498 Q 59.813477 221.35498 59.88867 221.35156 Q 59.963867 221.34814 60.03906 221.33447 L 60.03906 221.56006 Q 59.99805 221.57373 59.047855 221.90187 L 57.97461 222.30518 L 57.926758 222.24365 L 57.926758 221.40283 Q 57.543945 221.81982 57.26367 221.99757 Q 56.764645 222.30518 56.108402 222.30518 Q 54.94629 222.30518 54.225094 221.40625 Q 53.503906 220.50732 53.503906 219.3247 Q 53.503906 217.84131 54.36865 216.77832 Q 55.2334 215.71533 56.48437 215.71533 Q 56.9834 215.71533 57.40039 215.93408 Z M 57.598633 221.25244 Q 57.926758 220.93799 57.926758 220.6577 L 57.926758 217.7251 Q 57.926758 216.83643 57.451656 216.47072 Q 56.976563 216.10498 56.52539 216.10498 Q 55.664063 216.10498 55.185547 216.86719 Q 54.70703 217.6294 54.70703 218.74364 Q 54.70703 219.84424 55.21631 220.70557 Q 55.72559 221.5669 56.737305 221.5669 Q 57.270508 221.5669 57.598633 221.25244 Z M 62.188965 224.23293 Q 62.83496 224.45166 63.668945 224.45166 Q 64.80371 224.45166 65.51465 224.0586 Q 66.225586 223.66553 66.225586 223.09131 Q 66.225586 222.6333 65.65137 222.48291 Q 65.2959 222.39404 64.30469 222.38039 Q 64.05176 222.37354 63.771484 222.36328 Q 63.49121 222.35301 63.25879 222.33936 Q 63.1084 222.33252 62.773438 222.28468 Q 62.438477 222.23682 62.27441 222.20264 Q 62.192383 222.20264 61.871094 222.6333 Q 61.54297 223.0708 61.54297 223.43993 Q 61.54297 224.01414 62.188965 224.23293 Z M 61.464355 219.14697 Q 61.11914 218.6206 61.11914 217.96436 Q 61.11914 217.16455 61.754887 216.44678 Q 62.390625 215.729 63.55273 215.729 Q 64.05176 215.729 64.65332 215.96483 Q 65.25488 216.20068 65.80859 216.20068 Q 65.95215 216.20068 66.242676 216.19043 Q 66.5332 216.18018 66.663086 216.18018 L 66.74512 216.18018 L 66.74512 216.73389 L 65.5625 216.73389 Q 65.68555 217.021 65.75391 217.23291 Q 65.87012 217.6294 65.87012 217.98486 Q 65.87012 218.76416 65.22412 219.41699 Q 64.578125 220.06982 63.484375 220.06982 Q 63.313473 220.06982 62.86914 220.0083 Q 62.6709 220.0083 62.346195 220.34326 Q 62.021484 220.67822 62.021484 220.89014 Q 62.021484 221.10889 62.5 221.21143 Q 62.814453 221.27979 63.197266 221.27979 Q 64.9541 221.27979 65.58301 221.47803 Q 66.615234 221.79932 66.615234 222.8589 Q 66.615234 223.93896 65.40869 224.58154 Q 64.20215 225.22414 62.97168 225.22414 Q 61.85059 225.22414 61.194336 224.76953 Q 60.538086 224.31494 60.538086 223.81593 Q 60.538086 223.56982 60.712402 223.33398 Q 60.88672 223.09814 61.399414 222.6333 L 61.85059 222.22998 L 61.932617 222.14795 Q 61.618164 222.0249 61.460938 221.90869 Q 61.187504 221.69678 61.187504 221.42336 Q 61.187504 221.1704 61.42334 220.86621 Q 61.659184 220.562 62.43164 219.87842 Q 61.80957 219.67334 61.464355 219.14697 Z M 64.359375 219.53664 Q 64.76953 219.2085 64.76953 218.39502 Q 64.76953 217.7456 64.43799 216.93213 Q 64.106445 216.11867 63.333984 216.11867 Q 62.664063 216.11867 62.41113 216.7544 Q 62.28125 217.08936 62.28125 217.58154 Q 62.28125 218.41553 62.68457 219.07861 Q 63.08789 219.7417 63.73047 219.7417 Q 64.106445 219.7417 64.359375 219.53664 Z M 63.67578 215.729 L 63.67578 215.729 Z M 72.06348 216.42969 Q 72.788086 217.09619 72.788086 218.31982 L 68.447266 218.31982 Q 68.515625 219.90576 69.16504 220.63037 Q 69.81445 221.35498 70.703125 221.35498 Q 71.4209 221.35498 71.913086 220.97899 Q 72.40527 220.60303 72.822266 219.9126 L 73.06152 219.99463 Q 72.78125 220.8628 72.01221 221.60107 Q 71.243164 222.33936 70.12891 222.33936 Q 68.84375 222.33936 68.14307 221.36865 Q 67.44238 220.39796 67.44238 219.1333 Q 67.44238 217.75928 68.25586 216.76122 Q 69.069336 215.76318 70.375 215.76318 Q 71.33887 215.76318 72.06348 216.42969 Z M 68.78906 216.95262 Q 68.57031 217.32178 68.47461 217.88232 L 71.359375 217.88232 Q 71.28418 217.19873 71.09961 216.86377 Q 70.76465 216.2622 69.978516 216.2622 Q 69.19922 216.2622 68.78906 216.95262 Z M 70.28613 215.76318 L 70.28613 215.76318 Z M 73.92969 218.5796 L 77.368164 218.5796 L 77.368164 219.45459 L 73.92969 219.45459 L 73.92969 218.5796 Z M 78.461914 222.01807 Q 80.96387 219.42041 81.859375 218.20361 Q 82.75488 216.9868 82.75488 215.83156 Q 82.75488 214.81982 82.20801 214.29004 Q 81.66113 213.76024 80.90234 213.76024 Q 79.96582 213.76024 79.384766 214.44385 Q 79.06348 214.81982 78.76953 215.59912 L 78.475586 215.5376 Q 78.81738 213.96533 79.63428 213.35352 Q 80.45117 212.7417 81.387695 212.7417 Q 82.54297 212.7417 83.257324 213.46971 Q 83.97168 214.19775 83.97168 215.25049 Q 83.97168 216.37158 83.19922 217.41064 Q 82.42676 218.44972 79.84277 221.10889 L 82.98047 221.10889 Q 83.63672 221.10889 83.90332 220.95166 Q 84.16992 220.79443 84.50488 220.18604 L 84.68262 220.26807 L 83.92383 222.1753 L 78.461914 222.1753 L 78.461914 222.01807 Z M 90.88965 218.93504 Q 90.04883 219.09227 89.65234 219.31786 Q 88.961914 219.72119 88.961914 220.50732 L 88.94824 222.6128 Q 88.94824 223.72023 88.12793 224.19531 Q 87.30761 224.67041 85.913086 224.67041 L 85.913086 224.36281 Q 86.774414 224.1919 87.164055 223.95264 Q 87.86133 223.52882 87.86133 222.68115 L 87.875 220.7534 Q 87.875 219.82375 88.53808 219.33154 Q 89.20117 218.83934 90.48632 218.72998 L 90.48632 218.6958 Q 89.00293 218.40186 88.56543 218.10791 Q 87.875 217.64307 87.875 216.49463 L 87.875 214.81982 Q 87.875 213.84229 87.06152 213.37062 Q 86.60352 213.104 85.913086 213.02199 L 85.913086 212.71436 Q 87.66992 212.71436 88.30908 213.2783 Q 88.94824 213.84229 88.94824 214.79248 L 88.961914 216.67236 Q 88.961914 217.66357 89.67969 218.09424 Q 90.08984 218.34717 90.88965 218.43604 L 90.88965 218.93504 Z"/>
    </g>
    <g>
        <path fill="#000000" stroke="none" d="M 41.103516 336.43604 Q 41.930664 336.34717 42.368164 336.0669 Q 43.038086 335.6294 43.038086 334.67236 L 43.051754 332.79248 Q 43.051754 331.52783 44.04297 331.06982 Q 44.617184 330.80322 46.08008 330.71436 L 46.08008 331.02197 Q 45.341797 331.104 44.72998 331.5039 Q 44.118164 331.9038 44.118164 332.81982 L 44.118164 334.49463 Q 44.118164 335.5747 43.598633 335.97803 Q 43.0791 336.38135 41.75293 336.64795 L 41.51367 336.6958 L 41.51367 336.72998 Q 42.91504 336.83936 43.509766 337.36572 Q 44.104492 337.8921 44.118164 338.75342 L 44.13867 340.68115 Q 44.145504 341.5288 44.8291 341.95264 Q 45.21875 342.1919 46.08008 342.3628 L 46.08008 342.6704 Q 44.706055 342.6704 43.878906 342.19873 Q 43.051754 341.72705 43.051754 340.6128 L 43.038086 338.50732 Q 43.038086 337.71436 42.32715 337.31104 Q 41.92383 337.08545 41.103516 336.93506 L 41.103516 336.43604 Z M 51.84961 334.4297 Q 52.57422 335.0962 52.57422 336.31982 L 48.2334 336.31982 Q 48.301758 337.90576 48.95117 338.63037 Q 49.600582 339.35498 50.489258 339.35498 Q 51.20703 339.35498 51.69922 338.979 Q 52.191406 338.60303 52.6084 337.9126 L 52.847656 337.99463 Q 52.567383 338.8628 51.79834 339.60107 Q 51.0293 340.33936 49.91504 340.33936 Q 48.629883 340.33936 47.9292 339.36865 Q 47.22851 338.39795 47.22851 337.1333 Q 47.22851 335.75928 48.041996 334.76123 Q 48.85547 333.76318 50.161133 333.76318 Q 51.125004 333.76318 51.84961 334.4297 Z M 48.575195 334.95264 Q 48.356445 335.32178 48.260742 335.88232 L 51.145508 335.88232 Q 51.07031 335.19873 50.885746 334.86377 Q 50.550777 334.2622 49.76465 334.2622 Q 48.985348 334.2622 48.575195 334.95264 Z M 50.07226 333.76318 L 50.07226 333.76318 Z M 57.40039 333.93408 Q 57.673832 334.07764 57.926758 334.33057 L 57.926758 332.15674 Q 57.926758 331.73975 57.83447 331.58252 Q 57.742188 331.4253 57.393555 331.4253 Q 57.311523 331.4253 57.250004 331.43213 Q 57.188477 331.43896 56.976563 331.45947 L 56.976563 331.2339 L 57.53711 331.09033 Q 57.844727 331.0083 58.152344 330.91943 Q 58.45996 330.83057 58.692383 330.74854 Q 58.801758 330.71436 59.054688 330.61865 L 59.095707 330.63232 L 59.08203 331.3501 Q 59.075195 331.73975 59.06836 332.15332 Q 59.061523 332.5669 59.061523 332.9702 L 59.047855 338.55518 Q 59.047855 338.9995 59.157227 339.17725 Q 59.2666 339.35498 59.73828 339.35498 Q 59.813477 339.35498 59.88867 339.35156 Q 59.963867 339.34814 60.03906 339.33447 L 60.03906 339.56006 Q 59.99805 339.57373 59.047855 339.90186 L 57.97461 340.30518 L 57.926758 340.24365 L 57.926758 339.40283 Q 57.543945 339.81982 57.26367 339.99756 Q 56.764645 340.30518 56.108402 340.30518 Q 54.94629 340.30518 54.225094 339.40625 Q 53.503906 338.50732 53.503906 337.3247 Q 53.503906 335.8413 54.36865 334.77832 Q 55.2334 333.71533 56.48437 333.71533 Q 56.9834 333.71533 57.40039 333.93408 Z M 57.598633 339.25244 Q 57.926758 338.938 57.926758 338.6577 L 57.926758 335.7251 Q 57.926758 334.83643 57.451656 334.4707 Q 56.976563 334.10498 56.52539 334.10498 Q 55.664063 334.10498 55.185547 334.8672 Q 54.70703 335.6294 54.70703 336.74365 Q 54.70703 337.84424 55.21631 338.70557 Q 55.72559 339.5669 56.737305 339.5669 Q 57.270508 339.5669 57.598633 339.25244 Z M 62.188965 342.2329 Q 62.83496 342.45166 63.668945 342.45166 Q 64.80371 342.45166 65.51465 342.0586 Q 66.225586 341.66553 66.225586 341.0913 Q 66.225586 340.6333 65.65137 340.4829 Q 65.2959 340.39404 64.30469 340.38037 Q 64.05176 340.37354 63.771484 340.36328 Q 63.49121 340.35303 63.25879 340.33936 Q 63.1084 340.33252 62.773438 340.28467 Q 62.438477 340.23682 62.27441 340.20264 Q 62.192383 340.20264 61.871094 340.6333 Q 61.54297 341.0708 61.54297 341.43994 Q 61.54297 342.01416 62.188965 342.2329 Z M 61.464355 337.14697 Q 61.11914 336.6206 61.11914 335.96436 Q 61.11914 335.16455 61.754887 334.44678 Q 62.390625 333.729 63.55273 333.729 Q 64.05176 333.729 64.65332 333.96484 Q 65.25488 334.20068 65.80859 334.20068 Q 65.95215 334.20068 66.242676 334.19043 Q 66.5332 334.18018 66.663086 334.18018 L 66.74512 334.18018 L 66.74512 334.7339 L 65.5625 334.7339 Q 65.68555 335.021 65.75391 335.2329 Q 65.87012 335.6294 65.87012 335.98486 Q 65.87012 336.76416 65.22412 337.417 Q 64.578125 338.06982 63.484375 338.06982 Q 63.313473 338.06982 62.86914 338.0083 Q 62.6709 338.0083 62.346195 338.34326 Q 62.021484 338.67822 62.021484 338.89014 Q 62.021484 339.1089 62.5 339.21143 Q 62.814453 339.2798 63.197266 339.2798 Q 64.9541 339.2798 65.58301 339.47803 Q 66.615234 339.79932 66.615234 340.8589 Q 66.615234 341.93896 65.40869 342.58154 Q 64.20215 343.22412 62.97168 343.22412 Q 61.85059 343.22412 61.194336 342.76953 Q 60.538086 342.31494 60.538086 341.81592 Q 60.538086 341.56982 60.712402 341.33398 Q 60.88672 341.09814 61.399414 340.6333 L 61.85059 340.22998 L 61.932617 340.14795 Q 61.618164 340.0249 61.460938 339.9087 Q 61.187504 339.69678 61.187504 339.42334 Q 61.187504 339.1704 61.42334 338.8662 Q 61.659184 338.562 62.43164 337.87842 Q 61.80957 337.67334 61.464355 337.14697 Z M 64.359375 337.53662 Q 64.76953 337.2085 64.76953 336.39502 Q 64.76953 335.7456 64.43799 334.93213 Q 64.106445 334.11865 63.333984 334.11865 Q 62.664063 334.11865 62.41113 334.7544 Q 62.28125 335.08936 62.28125 335.58154 Q 62.28125 336.41553 62.68457 337.0786 Q 63.08789 337.7417 63.73047 337.7417 Q 64.106445 337.7417 64.359375 337.53662 Z M 63.67578 333.729 L 63.67578 333.729 Z M 72.06348 334.4297 Q 72.788086 335.0962 72.788086 336.31982 L 68.447266 336.31982 Q 68.515625 337.90576 69.16504 338.63037 Q 69.81445 339.35498 70.703125 339.35498 Q 71.4209 339.35498 71.913086 338.979 Q 72.40527 338.60303 72.822266 337.9126 L 73.06152 337.99463 Q 72.78125 338.8628 72.01221 339.60107 Q 71.243164 340.33936 70.12891 340.33936 Q 68.84375 340.33936 68.14307 339.36865 Q 67.44238 338.39795 67.44238 337.1333 Q 67.44238 335.75928 68.25586 334.76123 Q 69.069336 333.76318 70.375 333.76318 Q 71.33887 333.76318 72.06348 334.4297 Z M 68.78906 334.95264 Q 68.57031 335.32178 68.47461 335.88232 L 71.359375 335.88232 Q 71.28418 335.19873 71.09961 334.86377 Q 70.76465 334.2622 69.978516 334.2622 Q 69.19922 334.2622 68.78906 334.95264 Z M 70.28613 333.76318 L 70.28613 333.76318 Z M 73.92969 336.5796 L 77.368164 336.5796 L 77.368164 337.4546 L 73.92969 337.4546 L 73.92969 336.5796 Z M 78.461914 340.01807 Q 80.96387 337.4204 81.859375 336.2036 Q 82.75488 334.98682 82.75488 333.83154 Q 82.75488 332.81982 82.20801 332.29004 Q 81.66113 331.76025 80.90234 331.76025 Q 79.96582 331.76025 79.384766 332.44385 Q 79.06348 332.81982 78.76953 333.59912 L 78.475586 333.5376 Q 78.81738 331.96533 79.63428 331.35352 Q 80.45117 330.7417 81.387695 330.7417 Q 82.54297 330.7417 83.257324 331.46973 Q 83.97168 332.19775 83.97168 333.2505 Q 83.97168 334.37158 83.19922 335.41064 Q 82.42676 336.4497 79.84277 339.1089 L 82.98047 339.1089 Q 83.63672 339.1089 83.90332 338.95166 Q 84.16992 338.79443 84.50488 338.18604 L 84.68262 338.26807 L 83.92383 340.1753 L 78.461914 340.1753 L 78.461914 340.01807 Z M 90.88965 336.93506 Q 90.04883 337.0923 89.65234 337.31787 Q 88.961914 337.7212 88.961914 338.50732 L 88.94824 340.6128 Q 88.94824 341.7202 88.12793 342.1953 Q 87.30761 342.6704 85.913086 342.6704 L 85.913086 342.3628 Q 86.774414 342.1919 87.164055 341.95264 Q 87.86133 341.5288 87.86133 340.68115 L 87.875 338.75342 Q 87.875 337.82373 88.53808 337.33154 Q 89.20117 336.83936 90.48632 336.72998 L 90.48632 336.6958 Q 89.00293 336.40186 88.56543 336.1079 Q 87.875 335.64307 87.875 334.49463 L 87.875 332.81982 Q 87.875 331.8423 87.06152 331.3706 Q 86.60352 331.104 85.913086 331.02197 L 85.913086 330.71436 Q 87.66992 330.71436 88.30908 331.27832 Q 88.94824 331.8423 88.94824 332.79248 L 88.961914 334.67236 Q 88.961914 335.66357 89.67969 336.09424 Q 90.08984 336.34717 90.88965 336.43604 L 90.88965 336.93506 Z"/>
    </g>
    <g>
        <path id="arrow0" fill="#000000" fill-opacity="0" stroke="#000000" d="M 127 54 C 127 84 127 71 127 101 C 127 131 127 118 127 148"/>
        <g>
            <g clip-path="url(#clipPath1)" transform="matrix(-0.00000004 1 -1 -0.00000004 130.5 138)">
                <path fill="#000000" stroke="none" d="M 0 0 L 10 3.5 L 0 7 Z"/>
            </g>
        </g>
    </g>
    <g>
        <path id="arrow1" fill="#000000" fill-opacity="0" stroke="#000000" d="M 127 172 C 127 202 127 189 127 219 C 127 249 127 236 127 266"/>
        <g>
            <g clip-path="url(#clipPath2)" transform="matrix(-0.00000004 1 -1 -0.00000004 130.5 256)">
                <path fill="#000000" stroke="none" d="M 0 0 L 10 3.5 L 0 7 Z"/>
            </g>
        </g>
    </g>
    <g>
        <path id="arrow2" fill="#000000" fill-opacity="0" stroke="#000000" d="M 127 290 C 127 320 127 307 127 337 C 127 367 127 354 127 384"/>
        <g>
            <g clip-path="url(#clipPath3)" transform="matrix(-0.00000004 1 -1 -0.00000004 130.5 374)">
                <path fill="#000000" stroke="none" d="M 0 0 L 10 3.5 L 0 7 Z"/>
            </g>
        </g>
    </g>
</svg>
