<svg width="333" height="785" xmlns="http://www.w3.org/2000/svg">
    <defs>
        <clipPath id="clipPath1">
            <path fill="#000000" stroke="none" d="M 0 0 L 10 0 L 10 7 L 0 7 Z"/>
        </clipPath>
        <clipPath id="clipPath2">
            <path fill="#000000" stroke="none" d="M 0 0 L 10 0 L 10 7 L 0 7 Z"/>
        </clipPath>
        <clipPath id="clipPath3">
            <path fill="#000000" stroke="none" d="M 0 0 L 10 0 L 10 7 L 0 7 Z"/>
        </clipPath>
        <clipPath id="clipPath4">
            <path fill="#000000" stroke="none" d="M 0 0 L 10 0 L 10 7 L 0 7 Z"/>
        </clipPath>
        <clipPath id="clipPath5">
            <path fill="#000000" stroke="none" d="M 0 0 L 10 0 L 10 7 L 0 7 Z"/>
        </clipPath>
        <clipPath id="clipPath6">
            <path fill="#000000" stroke="none" d="M 0 0 L 10 0 L 10 7 L 0 7 Z"/>
        </clipPath>
        <clipPath id="clipPath7">
            <path fill="#000000" stroke="none" d="M 0 0 L 10 0 L 10 7 L 0 7 Z"/>
        </clipPath>
        <clipPath id="clipPath8">
            <path fill="#000000" stroke="none" d="M 0 0 L 10 0 L 10 7 L 0 7 Z"/>
        </clipPath>
        <clipPath id="clipPath9">
            <path fill="#000000" stroke="none" d="M 0 0 L 10 0 L 10 7 L 0 7 Z"/>
        </clipPath>
        <clipPath id="clipPath10">
            <path fill="#000000" stroke="none" d="M 0 0 L 10 0 L 10 7 L 0 7 Z"/>
        </clipPath>
    </defs>
    <g>
        <path fill="#ffffff" stroke="#000000" d="M 153.5 30 L 247.5 30 L 247.5 54 L 153.5 54 Z"/>
    </g>
    <g>
        <path fill="#000000" stroke="none" d="M 184.54152 41.436035 Q 185.36865 41.347168 185.80615 41.066895 Q 186.47607 40.629395 186.47607 39.672363 L 186.48975 37.79248 Q 186.48975 36.527832 187.48097 36.069824 Q 188.05518 35.803223 189.51807 35.714355 L 189.51807 36.021973 Q 188.77979 36.104004 188.16797 36.503906 Q 187.55615 36.90381 187.55615 37.819824 L 187.55615 39.49463 Q 187.55615 40.574707 187.03664 40.978027 Q 186.51709 41.381348 185.19092 41.64795 L 184.95166 41.6958 L 184.95166 41.72998 Q 186.35303 41.839355 186.94775 42.365723 Q 187.54248 42.89209 187.55615 43.753414 L 187.57668 45.681152 Q 187.58348 46.52881 188.26709 46.952637 Q 188.65674 47.191895 189.51807 47.362797 L 189.51807 47.67041 Q 188.14404 47.67041 187.3169 47.19873 Q 186.48975 46.72705 186.48975 45.612797 L 186.47607 43.507324 Q 186.47607 42.714355 185.76514 42.311035 Q 185.36182 42.08545 184.54152 41.93506 L 184.54152 41.436035 Z M 194.40576 41.388184 Q 193.61961 41.64795 193.10692 41.962402 Q 192.12256 42.5708 192.12256 43.34326 Q 192.12256 43.965332 192.5327 44.259277 Q 192.79932 44.450684 193.12744 44.450684 Q 193.57861 44.450684 193.99219 44.197754 Q 194.40576 43.94482 194.40576 43.555176 L 194.40576 41.388184 Z M 191.89697 42.160645 Q 192.52588 41.75049 194.40576 41.046387 L 194.40576 40.465332 Q 194.40576 39.768066 194.26904 39.49463 Q 194.0366 39.03662 193.30518 39.03662 Q 192.95654 39.03662 192.64209 39.214355 Q 192.32764 39.398926 192.32764 39.720215 Q 192.32764 39.802246 192.36182 39.99707 Q 192.396 40.191895 192.396 40.246582 Q 192.396 40.629395 192.14307 40.779785 Q 191.99951 40.868652 191.80127 40.868652 Q 191.49365 40.868652 191.32959 40.666992 Q 191.16553 40.465332 191.16553 40.21924 Q 191.16553 39.740723 191.75684 39.217773 Q 192.34814 38.694824 193.48976 38.694824 Q 194.81592 38.694824 195.2876 39.556152 Q 195.54053 40.027832 195.54053 40.930176 L 195.54053 43.671387 Q 195.54053 44.06787 195.59523 44.21826 Q 195.68408 44.484863 195.96436 44.484863 Q 196.12158 44.484863 196.22412 44.43701 Q 196.32666 44.38916 196.57959 44.20459 L 196.57959 44.560055 Q 196.36084 44.82666 196.10793 44.99756 Q 195.72511 45.257324 195.32861 45.257324 Q 194.86375 45.257324 194.65527 44.956543 Q 194.4468 44.655758 194.42627 44.23877 Q 193.90672 44.68994 193.5376 44.90869 Q 192.91551 45.277836 192.35498 45.277836 Q 191.76707 45.277836 191.33643 44.864258 Q 190.90575 44.450684 190.90575 43.81494 Q 190.90575 42.82373 191.89697 42.160645 Z M 193.51025 38.694824 L 193.51025 38.694824 Z M 199.53955 46.31689 Q 199.04053 46.91162 198.46631 47.171383 L 198.33643 46.89795 Q 198.99268 46.52881 199.24217 46.098145 Q 199.49171 45.66748 199.49171 45.38037 Q 199.49171 45.284668 199.43019 45.257324 Q 199.36864 45.229984 199.30031 45.229984 L 198.84229 45.277836 Q 198.55518 45.277836 198.3159 45.089844 Q 198.07666 44.901855 198.07666 44.546387 Q 198.07666 44.272945 198.2749 44.013184 Q 198.47316 43.753414 198.9243 43.753414 Q 199.35498 43.753414 199.69678 44.091797 Q 200.03859 44.430176 200.03859 45.031734 Q 200.03859 45.722168 199.53955 46.31689 Z M 203.65479 36.47998 L 203.65479 36.24756 Q 204.43408 36.069824 205.05614 35.851074 Q 205.67822 35.632324 205.72606 35.632324 Q 205.73975 35.67334 205.73975 35.714355 L 205.73975 39.87744 Q 205.91747 39.549316 206.27295 39.25537 Q 206.90186 38.742676 207.72217 38.742676 Q 208.72707 38.742676 209.43799 39.590332 Q 210.14893 40.43799 210.14893 41.791504 Q 210.14893 43.240723 209.22607 44.272945 Q 208.30322 45.305176 206.79932 45.305176 Q 206.04054 45.305176 205.3091 45.004395 Q 204.57762 44.70361 204.57762 44.402832 L 204.57762 37.177246 Q 204.57762 36.78076 204.46826 36.61328 Q 204.35889 36.4458 203.9624 36.4458 L 203.65479 36.47998 Z M 206.2456 44.686527 Q 206.71727 44.840332 207.07275 44.840332 Q 208.02979 44.840332 208.49121 44.12256 Q 208.95262 43.404785 208.95262 42.38623 Q 208.95262 41.367676 208.52197 40.50293 Q 208.0913 39.638184 207.12746 39.638184 Q 206.64209 39.638184 206.17725 39.935547 Q 205.7124 40.23291 205.7124 40.690918 L 205.7124 44.177242 Q 205.77393 44.532715 206.2456 44.686527 Z M 216.45166 41.93506 Q 215.61084 42.092285 215.21434 42.31787 Q 214.52393 42.72119 214.52393 43.507324 L 214.51024 45.612797 Q 214.51024 46.720215 213.68994 47.19531 Q 212.86963 47.67041 211.47511 47.67041 L 211.47511 47.362797 Q 212.33644 47.191895 212.72607 46.952637 Q 213.42336 46.52881 213.42336 45.681152 L 213.43701 43.753414 Q 213.43701 42.82373 214.1001 42.331543 Q 214.7632 41.839355 216.04834 41.72998 L 216.04834 41.6958 Q 214.56494 41.401855 214.12743 41.10791 Q 213.43701 40.643066 213.43701 39.49463 L 213.43701 37.819824 Q 213.43701 36.842285 212.62355 36.370605 Q 212.16553 36.104004 211.47511 36.021973 L 211.47511 35.714355 Q 213.23195 35.714355 213.87108 36.27832 Q 214.51024 36.842285 214.51024 37.79248 L 214.52393 39.672363 Q 214.52393 40.663574 215.24171 41.09424 Q 215.65186 41.347168 216.45166 41.436035 L 216.45166 41.93506 Z"/>
    </g>
    <g>
        <path fill="#ffffff" stroke="#000000" d="M 122 148 L 174 148 L 174 172 L 122 172 Z"/>
    </g>
    <g>
        <path fill="#000000" stroke="none" d="M 138.64844 159.43604 Q 139.47559 159.34717 139.91309 159.0669 Q 140.58301 158.6294 140.58301 157.67236 L 140.59668 155.79248 Q 140.59668 154.52783 141.58789 154.06982 Q 142.16211 153.80322 143.625 153.71436 L 143.625 154.02197 Q 142.88672 154.104 142.2749 154.5039 Q 141.66309 154.90381 141.66309 155.81982 L 141.66309 157.49463 Q 141.66309 158.5747 141.14355 158.97803 Q 140.62402 159.38135 139.29785 159.64795 L 139.0586 159.6958 L 139.0586 159.72998 Q 140.45996 159.83936 141.05469 160.36572 Q 141.64941 160.89209 141.66309 161.75342 L 141.6836 163.68115 Q 141.69043 164.52881 142.37402 164.95264 Q 142.76367 165.1919 143.625 165.3628 L 143.625 165.67041 Q 142.25098 165.67041 141.42383 165.19873 Q 140.59668 164.72705 140.59668 163.6128 L 140.58301 161.50732 Q 140.58301 160.71436 139.87207 160.31104 Q 139.46875 160.08545 138.64844 159.93506 L 138.64844 159.43604 Z M 144.54785 154.47998 L 144.54785 154.24756 Q 145.32715 154.06982 145.94922 153.85107 Q 146.57129 153.63232 146.61914 153.63232 Q 146.63281 153.67334 146.63281 153.71436 L 146.63281 157.87744 Q 146.81055 157.54932 147.16602 157.25537 Q 147.79492 156.74268 148.61523 156.74268 Q 149.62012 156.74268 150.33105 157.59033 Q 151.04199 158.43799 151.04199 159.7915 Q 151.04199 161.24072 150.11914 162.27295 Q 149.19629 163.30518 147.69238 163.30518 Q 146.9336 163.30518 146.20215 163.0044 Q 145.4707 162.70361 145.4707 162.40283 L 145.4707 155.17725 Q 145.4707 154.78076 145.36133 154.61328 Q 145.25195 154.4458 144.85547 154.4458 L 144.54785 154.47998 Z M 147.13867 162.68652 Q 147.61035 162.84033 147.96582 162.84033 Q 148.92285 162.84033 149.38428 162.12256 Q 149.8457 161.40479 149.8457 160.38623 Q 149.8457 159.36768 149.41504 158.50293 Q 148.98438 157.63818 148.02051 157.63818 Q 147.53516 157.63818 147.07031 157.93555 Q 146.60547 158.23291 146.60547 158.69092 L 146.60547 162.17725 Q 146.66699 162.53271 147.13867 162.68652 Z M 157.34473 159.93506 Q 156.5039 160.09229 156.10742 160.31787 Q 155.41699 160.72119 155.41699 161.50732 L 155.40332 163.6128 Q 155.40332 164.72021 154.58301 165.19531 Q 153.7627 165.67041 152.36816 165.67041 L 152.36816 165.3628 Q 153.22949 165.1919 153.61914 164.95264 Q 154.3164 164.52881 154.3164 163.68115 L 154.33008 161.75342 Q 154.33008 160.82373 154.99316 160.33154 Q 155.65625 159.83936 156.9414 159.72998 L 156.9414 159.6958 Q 155.45801 159.40186 155.02051 159.10791 Q 154.33008 158.64307 154.33008 157.49463 L 154.33008 155.81982 Q 154.33008 154.84229 153.5166 154.3706 Q 153.0586 154.104 152.36816 154.02197 L 152.36816 153.71436 Q 154.125 153.71436 154.76416 154.27832 Q 155.40332 154.84229 155.40332 155.79248 L 155.41699 157.67236 Q 155.41699 158.66357 156.13477 159.09424 Q 156.54492 159.34717 157.34473 159.43604 L 157.34473 159.93506 Z"/>
    </g>
    <g>
        <path fill="#ffffff" stroke="#000000" d="M 276 502 L 328 502 L 328 526 L 276 526 Z"/>
    </g>
    <g>
        <path fill="#000000" stroke="none" d="M 292.64844 513.43604 Q 293.4756 513.34717 293.9131 513.0669 Q 294.583 512.6294 294.583 511.67236 L 294.59668 509.79245 Q 294.59668 508.52783 295.5879 508.0698 Q 296.1621 507.80325 297.625 507.71436 L 297.625 508.02197 Q 296.88672 508.104 296.2749 508.5039 Q 295.6631 508.90378 295.6631 509.81982 L 295.6631 511.49463 Q 295.6631 512.5747 295.14355 512.978 Q 294.62402 513.38135 293.29785 513.64795 L 293.0586 513.6958 L 293.0586 513.73 Q 294.45996 513.83936 295.0547 514.3657 Q 295.6494 514.8921 295.6631 515.7534 L 295.6836 517.68115 Q 295.69043 518.5288 296.37402 518.95264 Q 296.76367 519.1919 297.625 519.3628 L 297.625 519.6704 Q 296.25098 519.6704 295.42383 519.1987 Q 294.59668 518.72705 294.59668 517.6128 L 294.583 515.5073 Q 294.583 514.71436 293.87207 514.31104 Q 293.46875 514.08545 292.64844 513.93506 L 292.64844 513.43604 Z M 298.54785 508.47998 L 298.54785 508.24756 Q 299.32715 508.0698 299.94922 507.85107 Q 300.5713 507.63232 300.61914 507.63232 Q 300.6328 507.67334 300.6328 507.71436 L 300.6328 511.87744 Q 300.81055 511.54932 301.16602 511.2554 Q 301.79492 510.7427 302.61523 510.7427 Q 303.62012 510.7427 304.33105 511.59033 Q 305.042 512.438 305.042 513.7915 Q 305.042 515.2407 304.11914 516.27295 Q 303.1963 517.3052 301.69238 517.3052 Q 300.9336 517.3052 300.20215 517.0044 Q 299.4707 516.7036 299.4707 516.40283 L 299.4707 509.17725 Q 299.4707 508.78076 299.36133 508.61325 Q 299.25195 508.44583 298.85547 508.44583 L 298.54785 508.47998 Z M 301.13867 516.6865 Q 301.61035 516.84033 301.96582 516.84033 Q 302.92285 516.84033 303.38428 516.12256 Q 303.8457 515.4048 303.8457 514.3862 Q 303.8457 513.3677 303.41504 512.5029 Q 302.98438 511.6382 302.0205 511.6382 Q 301.53516 511.6382 301.0703 511.93552 Q 300.60547 512.2329 300.60547 512.6909 L 300.60547 516.17725 Q 300.667 516.5327 301.13867 516.6865 Z M 311.34473 513.93506 Q 310.5039 514.0923 310.10742 514.3179 Q 309.417 514.7212 309.417 515.5073 L 309.40332 517.6128 Q 309.40332 518.7202 308.583 519.1953 Q 307.7627 519.6704 306.36816 519.6704 L 306.36816 519.3628 Q 307.2295 519.1919 307.61914 518.95264 Q 308.3164 518.5288 308.3164 517.68115 L 308.33008 515.7534 Q 308.33008 514.8237 308.99316 514.33154 Q 309.65625 513.83936 310.9414 513.73 L 310.9414 513.6958 Q 309.458 513.40186 309.0205 513.1079 Q 308.33008 512.64307 308.33008 511.49463 L 308.33008 509.81982 Q 308.33008 508.8423 307.5166 508.3706 Q 307.0586 508.104 306.36816 508.02197 L 306.36816 507.71436 Q 308.125 507.71436 308.76416 508.27832 Q 309.40332 508.8423 309.40332 509.79245 L 309.417 511.67236 Q 309.417 512.6636 310.13477 513.09424 Q 310.54492 513.34717 311.34473 513.43604 L 311.34473 513.93506 Z"/>
    </g>
    <g>
        <path fill="#ffffff" stroke="#000000" d="M 122 266 L 174 266 L 174 290 L 122 290 Z"/>
    </g>
    <g>
        <path fill="#000000" stroke="none" d="M 138.64844 277.43604 Q 139.47559 277.34717 139.91309 277.0669 Q 140.58301 276.6294 140.58301 275.67236 L 140.59668 273.79248 Q 140.59668 272.52783 141.58789 272.06982 Q 142.16211 271.80322 143.625 271.71436 L 143.625 272.02197 Q 142.88672 272.104 142.2749 272.5039 Q 141.66309 272.9038 141.66309 273.81982 L 141.66309 275.49463 Q 141.66309 276.5747 141.14355 276.97803 Q 140.62402 277.38135 139.29785 277.64795 L 139.0586 277.6958 L 139.0586 277.72998 Q 140.45996 277.83936 141.05469 278.36572 Q 141.64941 278.8921 141.66309 279.75342 L 141.6836 281.68115 Q 141.69043 282.5288 142.37402 282.95264 Q 142.76367 283.1919 143.625 283.3628 L 143.625 283.6704 Q 142.25098 283.6704 141.42383 283.19873 Q 140.59668 282.72705 140.59668 281.6128 L 140.58301 279.50732 Q 140.58301 278.71436 139.87207 278.31104 Q 139.46875 278.08545 138.64844 277.93506 L 138.64844 277.43604 Z M 144.54785 272.47998 L 144.54785 272.24756 Q 145.32715 272.06982 145.94922 271.85107 Q 146.57129 271.63232 146.61914 271.63232 Q 146.63281 271.67334 146.63281 271.71436 L 146.63281 275.87744 Q 146.81055 275.54932 147.16602 275.25537 Q 147.79492 274.74268 148.61523 274.74268 Q 149.62012 274.74268 150.33105 275.59033 Q 151.04199 276.438 151.04199 277.7915 Q 151.04199 279.24072 150.11914 280.27295 Q 149.19629 281.30518 147.69238 281.30518 Q 146.9336 281.30518 146.20215 281.0044 Q 145.4707 280.7036 145.4707 280.40283 L 145.4707 273.17725 Q 145.4707 272.78076 145.36133 272.61328 Q 145.25195 272.4458 144.85547 272.4458 L 144.54785 272.47998 Z M 147.13867 280.68652 Q 147.61035 280.84033 147.96582 280.84033 Q 148.92285 280.84033 149.38428 280.12256 Q 149.8457 279.4048 149.8457 278.38623 Q 149.8457 277.36768 149.41504 276.50293 Q 148.98438 275.63818 148.02051 275.63818 Q 147.53516 275.63818 147.07031 275.93555 Q 146.60547 276.2329 146.60547 276.69092 L 146.60547 280.17725 Q 146.66699 280.5327 147.13867 280.68652 Z M 157.34473 277.93506 Q 156.5039 278.0923 156.10742 278.31787 Q 155.41699 278.7212 155.41699 279.50732 L 155.40332 281.6128 Q 155.40332 282.7202 154.58301 283.1953 Q 153.7627 283.6704 152.36816 283.6704 L 152.36816 283.3628 Q 153.22949 283.1919 153.61914 282.95264 Q 154.3164 282.5288 154.3164 281.68115 L 154.33008 279.75342 Q 154.33008 278.82373 154.99316 278.33154 Q 155.65625 277.83936 156.9414 277.72998 L 156.9414 277.6958 Q 155.45801 277.40186 155.02051 277.1079 Q 154.33008 276.64307 154.33008 275.49463 L 154.33008 273.81982 Q 154.33008 272.8423 153.5166 272.3706 Q 153.0586 272.104 152.36816 272.02197 L 152.36816 271.71436 Q 154.125 271.71436 154.76416 272.27832 Q 155.40332 272.8423 155.40332 273.79248 L 155.41699 275.67236 Q 155.41699 276.66357 156.13477 277.09424 Q 156.54492 277.34717 157.34473 277.43604 L 157.34473 277.93506 Z"/>
    </g>
    <g>
        <path fill="#ffffff" stroke="#000000" d="M 276 620 L 328 620 L 328 644 L 276 644 Z"/>
    </g>
    <g>
        <path fill="#000000" stroke="none" d="M 292.64844 631.43604 Q 293.4756 631.34717 293.9131 631.0669 Q 294.583 630.6294 294.583 629.67236 L 294.59668 627.7925 Q 294.59668 626.52783 295.5879 626.0698 Q 296.1621 625.8032 297.625 625.71436 L 297.625 626.022 Q 296.88672 626.104 296.2749 626.5039 Q 295.6631 626.9038 295.6631 627.8198 L 295.6631 629.4946 Q 295.6631 630.5747 295.14355 630.978 Q 294.62402 631.38135 293.29785 631.64795 L 293.0586 631.6958 L 293.0586 631.73 Q 294.45996 631.83936 295.0547 632.3657 Q 295.6494 632.8921 295.6631 633.7534 L 295.6836 635.68115 Q 295.69043 636.5288 296.37402 636.95264 Q 296.76367 637.1919 297.625 637.3628 L 297.625 637.6704 Q 296.25098 637.6704 295.42383 637.1987 Q 294.59668 636.72705 294.59668 635.6128 L 294.583 633.5073 Q 294.583 632.71436 293.87207 632.31104 Q 293.46875 632.08545 292.64844 631.93506 L 292.64844 631.43604 Z M 298.54785 626.48 L 298.54785 626.24756 Q 299.32715 626.0698 299.94922 625.8511 Q 300.5713 625.6323 300.61914 625.6323 Q 300.6328 625.67334 300.6328 625.71436 L 300.6328 629.87744 Q 300.81055 629.5493 301.16602 629.2554 Q 301.79492 628.7427 302.61523 628.7427 Q 303.62012 628.7427 304.33105 629.59033 Q 305.042 630.438 305.042 631.7915 Q 305.042 633.2407 304.11914 634.27295 Q 303.1963 635.3052 301.69238 635.3052 Q 300.9336 635.3052 300.20215 635.0044 Q 299.4707 634.7036 299.4707 634.40283 L 299.4707 627.17725 Q 299.4707 626.78076 299.36133 626.6133 Q 299.25195 626.4458 298.85547 626.4458 L 298.54785 626.48 Z M 301.13867 634.6865 Q 301.61035 634.84033 301.96582 634.84033 Q 302.92285 634.84033 303.38428 634.12256 Q 303.8457 633.4048 303.8457 632.3862 Q 303.8457 631.3677 303.41504 630.5029 Q 302.98438 629.6382 302.0205 629.6382 Q 301.53516 629.6382 301.0703 629.93555 Q 300.60547 630.2329 300.60547 630.6909 L 300.60547 634.17725 Q 300.667 634.5327 301.13867 634.6865 Z M 311.34473 631.93506 Q 310.5039 632.0923 310.10742 632.3179 Q 309.417 632.7212 309.417 633.5073 L 309.40332 635.6128 Q 309.40332 636.7202 308.583 637.1953 Q 307.7627 637.6704 306.36816 637.6704 L 306.36816 637.3628 Q 307.2295 637.1919 307.61914 636.95264 Q 308.3164 636.5288 308.3164 635.68115 L 308.33008 633.7534 Q 308.33008 632.8237 308.99316 632.33154 Q 309.65625 631.83936 310.9414 631.73 L 310.9414 631.6958 Q 309.458 631.40186 309.0205 631.1079 Q 308.33008 630.64307 308.33008 629.4946 L 308.33008 627.8198 Q 308.33008 626.8423 307.5166 626.3706 Q 307.0586 626.104 306.36816 626.022 L 306.36816 625.71436 Q 308.125 625.71436 308.76416 626.2783 Q 309.40332 626.8423 309.40332 627.7925 L 309.417 629.67236 Q 309.417 630.6636 310.13477 631.09424 Q 310.54492 631.34717 311.34473 631.43604 L 311.34473 631.93506 Z"/>
    </g>
    <g>
        <path fill="#ffffff" stroke="#000000" d="M 129 384 L 167 384 L 167 408 L 129 408 Z"/>
    </g>
    <g>
        <path fill="#000000" stroke="none" d="M 142.14844 395.43604 Q 142.97559 395.34714 143.41309 395.0669 Q 144.08301 394.6294 144.08301 393.67236 L 144.09668 391.79248 Q 144.09668 390.52783 145.08789 390.06982 Q 145.66211 389.80322 147.125 389.71436 L 147.125 390.02197 Q 146.38672 390.10403 145.7749 390.5039 Q 145.16309 390.9038 145.16309 391.81982 L 145.16309 393.4946 Q 145.16309 394.57474 144.64355 394.97803 Q 144.12402 395.38135 142.79785 395.64795 L 142.5586 395.6958 L 142.5586 395.72995 Q 143.95996 395.83936 144.55469 396.36575 Q 145.14941 396.8921 145.16309 397.75342 L 145.1836 399.68115 Q 145.19043 400.5288 145.87402 400.95264 Q 146.26367 401.1919 147.125 401.3628 L 147.125 401.67038 Q 145.75098 401.67038 144.92383 401.19873 Q 144.09668 400.72705 144.09668 399.6128 L 144.08301 397.50732 Q 144.08301 396.71436 143.37207 396.311 Q 142.96875 396.08545 142.14844 395.93506 L 142.14844 395.43604 Z M 153.84473 395.93506 Q 153.0039 396.0923 152.60742 396.31787 Q 151.91699 396.7212 151.91699 397.50732 L 151.90332 399.6128 Q 151.90332 400.7202 151.08301 401.19528 Q 150.2627 401.67038 148.86816 401.67038 L 148.86816 401.3628 Q 149.72949 401.1919 150.11914 400.95264 Q 150.8164 400.5288 150.8164 399.68115 L 150.83008 397.75342 Q 150.83008 396.82373 151.49316 396.33154 Q 152.15625 395.83936 153.4414 395.72995 L 153.4414 395.6958 Q 151.95801 395.4019 151.52051 395.1079 Q 150.83008 394.64304 150.83008 393.4946 L 150.83008 391.81982 Q 150.83008 390.8423 150.0166 390.3706 Q 149.5586 390.10403 148.86816 390.02197 L 148.86816 389.71436 Q 150.625 389.71436 151.26416 390.27832 Q 151.90332 390.8423 151.90332 391.79248 L 151.91699 393.67236 Q 151.91699 394.66357 152.63477 395.0942 Q 153.04492 395.34714 153.84473 395.43604 L 153.84473 395.93506 Z"/>
    </g>
    <g>
        <path fill="#ffffff" stroke="#000000" d="M 276 738 L 328 738 L 328 762 L 276 762 Z"/>
    </g>
    <g>
        <path fill="#000000" stroke="none" d="M 292.64844 749.43604 Q 293.4756 749.34717 293.9131 749.0669 Q 294.583 748.62933 294.583 747.67236 L 294.59668 745.7925 Q 294.59668 744.5279 295.5879 744.0699 Q 296.1621 743.8032 297.625 743.7143 L 297.625 744.0219 Q 296.88672 744.104 296.2749 744.50385 Q 295.6631 744.9038 295.6631 745.8198 L 295.6631 747.4946 Q 295.6631 748.5747 295.14355 748.978 Q 294.62402 749.3814 293.29785 749.64795 L 293.0586 749.6958 L 293.0586 749.73 Q 294.45996 749.8393 295.0547 750.3657 Q 295.6494 750.8921 295.6631 751.75336 L 295.6836 753.6811 Q 295.69043 754.5288 296.37402 754.9526 Q 296.76367 755.1919 297.625 755.3628 L 297.625 755.6704 Q 296.25098 755.6704 295.42383 755.1988 Q 294.59668 754.72705 294.59668 753.6128 L 294.583 751.50726 Q 294.583 750.7144 293.87207 750.31104 Q 293.46875 750.0855 292.64844 749.93506 L 292.64844 749.43604 Z M 298.54785 744.4799 L 298.54785 744.24756 Q 299.32715 744.0699 299.94922 743.8511 Q 300.5713 743.6323 300.61914 743.6323 Q 300.6328 743.67334 300.6328 743.7143 L 300.6328 747.87744 Q 300.81055 747.5493 301.16602 747.2554 Q 301.79492 746.7427 302.61523 746.7427 Q 303.62012 746.7427 304.33105 747.5904 Q 305.042 748.438 305.042 749.7915 Q 305.042 751.2407 304.11914 752.2729 Q 303.1963 753.3052 301.69238 753.3052 Q 300.9336 753.3052 300.20215 753.0044 Q 299.4707 752.7037 299.4707 752.40283 L 299.4707 745.17725 Q 299.4707 744.78076 299.36133 744.61334 Q 299.25195 744.4458 298.85547 744.4458 L 298.54785 744.4799 Z M 301.13867 752.6865 Q 301.61035 752.8403 301.96582 752.8403 Q 302.92285 752.8403 303.38428 752.1226 Q 303.8457 751.4048 303.8457 750.3862 Q 303.8457 749.3677 303.41504 748.5029 Q 302.98438 747.6382 302.0205 747.6382 Q 301.53516 747.6382 301.0703 747.9356 Q 300.60547 748.233 300.60547 748.69086 L 300.60547 752.17725 Q 300.667 752.5327 301.13867 752.6865 Z M 311.34473 749.93506 Q 310.5039 750.0923 310.10742 750.3179 Q 309.417 750.7212 309.417 751.50726 L 309.40332 753.6128 Q 309.40332 754.7202 308.583 755.1953 Q 307.7627 755.6704 306.36816 755.6704 L 306.36816 755.3628 Q 307.2295 755.1919 307.61914 754.9526 Q 308.3164 754.5288 308.3164 753.6811 L 308.33008 751.75336 Q 308.33008 750.8237 308.99316 750.3316 Q 309.65625 749.8393 310.9414 749.73 L 310.9414 749.6958 Q 309.458 749.40186 309.0205 749.1079 Q 308.33008 748.64307 308.33008 747.4946 L 308.33008 745.8198 Q 308.33008 744.8423 307.5166 744.3706 Q 307.0586 744.104 306.36816 744.0219 L 306.36816 743.7143 Q 308.125 743.7143 308.76416 744.2783 Q 309.40332 744.8423 309.40332 745.7925 L 309.417 747.67236 Q 309.417 748.6636 310.13477 749.09424 Q 310.54492 749.34717 311.34473 749.43604 L 311.34473 749.93506 Z"/>
    </g>
    <g>
        <path fill="#ffffff" stroke="#000000" d="M 129 502 L 167 502 L 167 526 L 129 526 Z"/>
    </g>
    <g>
        <path fill="#000000" stroke="none" d="M 142.14844 513.43604 Q 142.97559 513.34717 143.41309 513.0669 Q 144.08301 512.6294 144.08301 511.67236 L 144.09668 509.79245 Q 144.09668 508.52783 145.08789 508.0698 Q 145.66211 507.80325 147.125 507.71436 L 147.125 508.02197 Q 146.38672 508.104 145.7749 508.5039 Q 145.16309 508.90378 145.16309 509.81982 L 145.16309 511.49463 Q 145.16309 512.5747 144.64355 512.978 Q 144.12402 513.38135 142.79785 513.64795 L 142.5586 513.6958 L 142.5586 513.73 Q 143.95996 513.83936 144.55469 514.3657 Q 145.14941 514.8921 145.16309 515.7534 L 145.1836 517.68115 Q 145.19043 518.5288 145.87402 518.95264 Q 146.26367 519.1919 147.125 519.3628 L 147.125 519.6704 Q 145.75098 519.6704 144.92383 519.1987 Q 144.09668 518.72705 144.09668 517.6128 L 144.08301 515.5073 Q 144.08301 514.71436 143.37207 514.31104 Q 142.96875 514.08545 142.14844 513.93506 L 142.14844 513.43604 Z M 153.84473 513.93506 Q 153.0039 514.0923 152.60742 514.3179 Q 151.91699 514.7212 151.91699 515.5073 L 151.90332 517.6128 Q 151.90332 518.7202 151.08301 519.1953 Q 150.2627 519.6704 148.86816 519.6704 L 148.86816 519.3628 Q 149.72949 519.1919 150.11914 518.95264 Q 150.8164 518.5288 150.8164 517.68115 L 150.83008 515.7534 Q 150.83008 514.8237 151.49316 514.33154 Q 152.15625 513.83936 153.4414 513.73 L 153.4414 513.6958 Q 151.95801 513.40186 151.52051 513.1079 Q 150.83008 512.64307 150.83008 511.49463 L 150.83008 509.81982 Q 150.83008 508.8423 150.0166 508.3706 Q 149.5586 508.104 148.86816 508.02197 L 148.86816 507.71436 Q 150.625 507.71436 151.26416 508.27832 Q 151.90332 508.8423 151.90332 509.79245 L 151.91699 511.67236 Q 151.91699 512.6636 152.63477 513.09424 Q 153.04492 513.34717 153.84473 513.43604 L 153.84473 513.93506 Z"/>
    </g>
    <g>
        <path fill="#ffffff" stroke="#000000" d="M 80 620 L 118 620 L 118 644 L 80 644 Z"/>
    </g>
    <g>
        <path fill="#000000" stroke="none" d="M 93.14844 631.43604 Q 93.975586 631.34717 94.413086 631.0669 Q 95.08301 630.6294 95.08301 629.67236 L 95.09668 627.7925 Q 95.09668 626.52783 96.08789 626.0698 Q 96.66211 625.8032 98.12501 625.71436 L 98.12501 626.022 Q 97.38672 626.104 96.7749 626.5039 Q 96.163086 626.9038 96.163086 627.8198 L 96.163086 629.4946 Q 96.163086 630.5747 95.643555 630.978 Q 95.124016 631.38135 93.797844 631.64795 L 93.558586 631.6958 L 93.558586 631.73 Q 94.95996 631.83936 95.55468 632.3657 Q 96.149414 632.8921 96.163086 633.7534 L 96.18359 635.68115 Q 96.19043 636.5288 96.87402 636.95264 Q 97.263664 637.1919 98.12501 637.3628 L 98.12501 637.6704 Q 96.750984 637.6704 95.92383 637.1987 Q 95.09668 636.72705 95.09668 635.6128 L 95.08301 633.5073 Q 95.08301 632.71436 94.37206 632.31104 Q 93.96875 632.08545 93.14844 631.93506 L 93.14844 631.43604 Z M 104.84473 631.93506 Q 104.0039 632.0923 103.60742 632.3179 Q 102.917 632.7212 102.917 633.5073 L 102.90331 635.6128 Q 102.90331 636.7202 102.08301 637.1953 Q 101.262695 637.6704 99.86816 637.6704 L 99.86816 637.3628 Q 100.729485 637.1919 101.11914 636.95264 Q 101.8164 636.5288 101.8164 635.68115 L 101.830086 633.7534 Q 101.830086 632.8237 102.493164 632.33154 Q 103.15626 631.83936 104.44141 631.73 L 104.44141 631.6958 Q 102.95801 631.40186 102.52051 631.1079 Q 101.830086 630.64307 101.830086 629.4946 L 101.830086 627.8198 Q 101.830086 626.8423 101.016594 626.3706 Q 100.55859 626.104 99.86816 626.022 L 99.86816 625.71436 Q 101.62499 625.71436 102.26415 626.2783 Q 102.90331 626.8423 102.90331 627.7925 L 102.917 629.67236 Q 102.917 630.6636 103.63477 631.09424 Q 104.04492 631.34717 104.84473 631.43604 L 104.84473 631.93506 Z"/>
    </g>
    <g>
        <path fill="#ffffff" stroke="#000000" d="M 178 620 L 216 620 L 216 644 L 178 644 Z"/>
    </g>
    <g>
        <path fill="#000000" stroke="none" d="M 191.14844 631.43604 Q 191.97559 631.34717 192.41309 631.0669 Q 193.08301 630.6294 193.08301 629.67236 L 193.09668 627.7925 Q 193.09668 626.52783 194.08789 626.0698 Q 194.66211 625.8032 196.125 625.71436 L 196.125 626.022 Q 195.38672 626.104 194.7749 626.5039 Q 194.16307 626.9038 194.16307 627.8198 L 194.16307 629.4946 Q 194.16307 630.5747 193.64355 630.978 Q 193.12402 631.38135 191.79784 631.64795 L 191.5586 631.6958 L 191.5586 631.73 Q 192.95996 631.83936 193.55467 632.3657 Q 194.14941 632.8921 194.16307 633.7534 L 194.1836 635.68115 Q 194.19044 636.5288 194.87402 636.95264 Q 195.26367 637.1919 196.125 637.3628 L 196.125 637.6704 Q 194.75098 637.6704 193.92383 637.1987 Q 193.09668 636.72705 193.09668 635.6128 L 193.08301 633.5073 Q 193.08301 632.71436 192.37206 632.31104 Q 191.96875 632.08545 191.14844 631.93506 L 191.14844 631.43604 Z M 202.84473 631.93506 Q 202.0039 632.0923 201.6074 632.3179 Q 200.91699 632.7212 200.91699 633.5073 L 200.9033 635.6128 Q 200.9033 636.7202 200.08301 637.1953 Q 199.2627 637.6704 197.86815 637.6704 L 197.86815 637.3628 Q 198.72948 637.1919 199.11914 636.95264 Q 199.81639 636.5288 199.81639 635.68115 L 199.83008 633.7534 Q 199.83008 632.8237 200.49316 632.33154 Q 201.15627 631.83936 202.4414 631.73 L 202.4414 631.6958 Q 200.95801 631.40186 200.5205 631.1079 Q 199.83008 630.64307 199.83008 629.4946 L 199.83008 627.8198 Q 199.83008 626.8423 199.01659 626.3706 Q 198.5586 626.104 197.86815 626.022 L 197.86815 625.71436 Q 199.62498 625.71436 200.26414 626.2783 Q 200.9033 626.8423 200.9033 627.7925 L 200.91699 629.67236 Q 200.91699 630.6636 201.63478 631.09424 Q 202.04492 631.34717 202.84473 631.43604 L 202.84473 631.93506 Z"/>
    </g>
    <g>
        <path fill="#000000" stroke="none" d="M 111.291504 100.43604 Q 112.11865 100.34717 112.55615 100.066895 Q 113.226074 99.629395 113.226074 98.67236 L 113.239746 96.79248 Q 113.239746 95.52783 114.23096 95.06983 Q 114.805176 94.80322 116.26807 94.714355 L 116.26807 95.02198 Q 115.52979 95.104 114.91797 95.50391 Q 114.30615 95.90381 114.30615 96.819824 L 114.30615 98.49463 Q 114.30615 99.5747 113.78662 99.97803 Q 113.26709 100.38135 111.94092 100.64795 L 111.70166 100.6958 L 111.70166 100.72998 Q 113.103035 100.839355 113.697754 101.36572 Q 114.29248 101.89208 114.30615 102.75341 L 114.32666 104.68115 Q 114.33349 105.52881 115.01709 105.95264 Q 115.40674 106.191895 116.26807 106.3628 L 116.26807 106.67041 Q 114.894035 106.67041 114.066895 106.19873 Q 113.239746 105.72705 113.239746 104.61279 L 113.226074 102.507324 Q 113.226074 101.71436 112.51514 101.311035 Q 112.111824 101.08545 111.291504 100.93506 L 111.291504 100.43604 Z M 121.15576 100.38819 Q 120.36964 100.64795 119.85693 100.96241 Q 118.87256 101.57081 118.87256 102.34326 Q 118.87256 102.96533 119.28272 103.25928 Q 119.54932 103.45068 119.87743 103.45068 Q 120.32861 103.45068 120.74219 103.197754 Q 121.15576 102.94482 121.15576 102.555176 L 121.15576 100.38819 Z M 118.646965 101.160645 Q 119.27588 100.75049 121.15576 100.04639 L 121.15576 99.46533 Q 121.15576 98.76807 121.01904 98.49463 Q 120.78661 98.03662 120.055176 98.03662 Q 119.70654 98.03662 119.39209 98.214355 Q 119.07763 98.398926 119.07763 98.720215 Q 119.07763 98.802246 119.11182 98.99707 Q 119.145996 99.19189 119.145996 99.24658 Q 119.145996 99.629395 118.89307 99.779785 Q 118.74951 99.86865 118.55126 99.86865 Q 118.24365 99.86865 118.07959 99.66699 Q 117.91553 99.46533 117.91553 99.21924 Q 117.91553 98.74072 118.506836 98.217766 Q 119.098145 97.694824 120.239746 97.694824 Q 121.56592 97.694824 122.0376 98.55615 Q 122.29053 99.02783 122.29053 99.930176 L 122.29053 102.671394 Q 122.29053 103.06787 122.345215 103.21826 Q 122.43408 103.48486 122.714355 103.48486 Q 122.87158 103.48486 122.97413 103.43701 Q 123.07666 103.38916 123.32959 103.20459 L 123.32959 103.56006 Q 123.11084 103.82666 122.85791 103.99757 Q 122.4751 104.257324 122.07862 104.257324 Q 121.61377 104.257324 121.40527 103.95654 Q 121.19678 103.65576 121.17627 103.23877 Q 120.656746 103.68994 120.2876 103.90869 Q 119.66553 104.27783 119.10498 104.27783 Q 118.5171 104.27783 118.08643 103.86426 Q 117.655754 103.45068 117.655754 102.81495 Q 117.655754 101.82373 118.646965 101.160645 Z M 120.26025 97.694824 L 120.26025 97.694824 Z M 126.28955 105.316895 Q 125.79053 105.91162 125.21631 106.17138 L 125.086426 105.89796 Q 125.742676 105.52881 125.992195 105.098145 Q 126.2417 104.66748 126.2417 104.38038 Q 126.2417 104.284676 126.180176 104.257324 Q 126.11865 104.22998 126.05029 104.22998 L 125.59229 104.27783 Q 125.30518 104.27783 125.065926 104.08984 Q 124.82667 103.90186 124.82667 103.54639 Q 124.82667 103.27295 125.0249 103.01318 Q 125.223145 102.75341 125.67431 102.75341 Q 126.10497 102.75341 126.44678 103.0918 Q 126.788574 103.430176 126.788574 104.03173 Q 126.788574 104.72217 126.28955 105.316895 Z M 130.40479 95.47998 L 130.40479 95.24755 Q 131.18408 95.06983 131.80615 94.851074 Q 132.42822 94.632324 132.47607 94.632324 Q 132.48975 94.67334 132.48975 94.714355 L 132.48975 98.87744 Q 132.66748 98.54932 133.02295 98.25537 Q 133.65186 97.742676 134.47217 97.742676 Q 135.47705 97.742676 136.18799 98.59033 Q 136.89893 99.43799 136.89893 100.791504 Q 136.89893 102.24073 135.97607 103.27295 Q 135.05322 104.305176 133.54932 104.305176 Q 132.79053 104.305176 132.05908 104.004395 Q 131.32764 103.70361 131.32764 103.40283 L 131.32764 96.177246 Q 131.32764 95.78076 131.21826 95.61327 Q 131.10889 95.4458 130.7124 95.4458 L 130.40479 95.47998 Z M 132.9956 103.68652 Q 133.46729 103.840324 133.82275 103.840324 Q 134.77979 103.840324 135.24121 103.12256 Q 135.70264 102.404785 135.70264 101.38623 Q 135.70264 100.367676 135.27197 99.50293 Q 134.84131 98.63818 133.87744 98.63818 Q 133.39209 98.63818 132.92725 98.93554 Q 132.4624 99.23291 132.4624 99.69092 L 132.4624 103.177246 Q 132.52393 103.532715 132.9956 103.68652 Z M 143.20166 100.93506 Q 142.36084 101.09228 141.96436 101.31787 Q 141.27393 101.72119 141.27393 102.507324 L 141.26025 104.61279 Q 141.26025 105.720215 140.43994 106.19531 Q 139.61963 106.67041 138.2251 106.67041 L 138.2251 106.3628 Q 139.08643 106.191895 139.47607 105.95264 Q 140.17334 105.52881 140.17334 104.68115 L 140.18701 102.75341 Q 140.18701 101.82373 140.8501 101.331535 Q 141.51318 100.839355 142.79834 100.72998 L 142.79834 100.6958 Q 141.31494 100.401855 140.87744 100.10791 Q 140.18701 99.64307 140.18701 98.49463 L 140.18701 96.819824 Q 140.18701 95.842285 139.37354 95.370605 Q 138.91553 95.104 138.2251 95.02198 L 138.2251 94.714355 Q 139.98193 94.714355 140.6211 95.27831 Q 141.26025 95.842285 141.26025 96.79248 L 141.27393 98.67236 Q 141.27393 99.663574 141.9917 100.09424 Q 142.40186 100.34717 143.20166 100.43604 L 143.20166 100.93506 Z"/>
    </g>
    <g>
        <path fill="#000000" stroke="none" d="M 239.04149 454.43604 Q 239.86867 454.34717 240.30615 454.06693 Q 240.97607 453.62936 240.97607 452.67236 L 240.98973 450.79248 Q 240.98973 449.52786 241.98094 449.06982 Q 242.55516 448.80322 244.01807 448.71436 L 244.01807 449.022 Q 243.27979 449.104 242.66797 449.50388 Q 242.05615 449.9038 242.05615 450.81982 L 242.05615 452.49463 Q 242.05615 453.5747 241.53662 453.97803 Q 241.0171 454.38138 239.69092 454.64792 L 239.45168 454.6958 L 239.45168 454.72998 Q 240.85303 454.83932 241.44775 455.36572 Q 242.04247 455.8921 242.05615 456.7534 L 242.07664 458.68115 Q 242.0835 459.5288 242.76709 459.9526 Q 243.15675 460.1919 244.01807 460.3628 L 244.01807 460.6704 Q 242.64404 460.6704 241.81691 460.19876 Q 240.98973 459.72705 240.98973 458.61276 L 240.97607 456.50732 Q 240.97607 455.71436 240.26514 455.31104 Q 239.86182 455.08548 239.04149 454.93506 L 239.04149 454.43604 Z M 248.90576 454.3882 Q 248.11963 454.64792 247.60693 454.96243 Q 246.62256 455.5708 246.62256 456.34326 Q 246.62256 456.96533 247.03271 457.2593 Q 247.29932 457.4507 247.62744 457.4507 Q 248.07863 457.4507 248.4922 457.19778 Q 248.90576 456.9448 248.90576 456.5552 L 248.90576 454.3882 Z M 246.39697 455.1606 Q 247.02586 454.7505 248.90576 454.0464 L 248.90576 453.46533 Q 248.90576 452.76807 248.76904 452.49463 Q 248.53662 452.03662 247.80518 452.03662 Q 247.45654 452.03662 247.14209 452.2144 Q 246.82764 452.39893 246.82764 452.72025 Q 246.82764 452.80225 246.86182 452.99707 Q 246.89601 453.1919 246.89601 453.24655 Q 246.89601 453.62936 246.64305 453.7798 Q 246.49951 453.86865 246.30127 453.86865 Q 245.99365 453.86865 245.82959 453.667 Q 245.66553 453.46533 245.66553 453.21924 Q 245.66553 452.74072 246.25685 452.21777 Q 246.84814 451.69482 247.98975 451.69482 Q 249.31592 451.69482 249.7876 452.55615 Q 250.04053 453.02783 250.04053 453.93018 L 250.04053 456.6714 Q 250.04053 457.0679 250.0952 457.21826 Q 250.18408 457.48486 250.46436 457.48486 Q 250.62158 457.48486 250.72412 457.437 Q 250.82668 457.3892 251.0796 457.20456 L 251.0796 457.56006 Q 250.86082 457.82666 250.60791 457.99756 Q 250.2251 458.25732 249.82861 458.25732 Q 249.36377 458.25732 249.15527 457.95654 Q 248.94678 457.65576 248.92627 457.23877 Q 248.40674 457.68994 248.0376 457.90866 Q 247.41553 458.27783 246.85498 458.27783 Q 246.26709 458.27783 245.83643 457.8643 Q 245.40576 457.4507 245.40576 456.81497 Q 245.40576 455.82373 246.39697 455.1606 Z M 248.01025 451.69482 L 248.01025 451.69482 Z M 254.03955 459.3169 Q 253.54054 459.91162 252.96632 460.1714 L 252.83644 459.89795 Q 253.49268 459.5288 253.74219 459.09814 Q 253.99168 458.6675 253.99168 458.38037 Q 253.99168 458.2847 253.93018 458.25732 Q 253.86865 458.22995 253.80028 458.22995 L 253.34229 458.27783 Q 253.05518 458.27783 252.81592 458.08984 Q 252.57666 457.9019 252.57666 457.5464 Q 252.57666 457.27295 252.77492 457.01315 Q 252.97314 456.7534 253.42432 456.7534 Q 253.85498 456.7534 254.19678 457.0918 Q 254.53857 457.43018 254.53857 458.0317 Q 254.53857 458.72217 254.03955 459.3169 Z M 258.1548 449.47998 L 258.1548 449.24756 Q 258.93408 449.06982 259.55615 448.85107 Q 260.17822 448.63235 260.22607 448.63235 Q 260.23975 448.67334 260.23975 448.71436 L 260.23975 452.87744 Q 260.41748 452.54932 260.77295 452.25537 Q 261.40186 451.74268 262.22217 451.74268 Q 263.22705 451.74268 263.938 452.59033 Q 264.64893 453.43796 264.64893 454.7915 Q 264.64893 456.24075 263.72607 457.27295 Q 262.80322 458.30518 261.29932 458.30518 Q 260.54053 458.30518 259.80908 458.0044 Q 259.07764 457.70364 259.07764 457.40283 L 259.07764 450.17722 Q 259.07764 449.78076 258.96826 449.61328 Q 258.8589 449.4458 258.4624 449.4458 L 258.1548 449.47998 Z M 260.7456 457.6865 Q 261.2173 457.8403 261.57275 457.8403 Q 262.5298 457.8403 262.9912 457.12256 Q 263.45264 456.4048 263.45264 455.38623 Q 263.45264 454.36768 263.02197 453.50293 Q 262.5913 452.63818 261.62744 452.63818 Q 261.1421 452.63818 260.67725 452.93555 Q 260.2124 453.23294 260.2124 453.6909 L 260.2124 457.17725 Q 260.27393 457.5327 260.7456 457.6865 Z M 270.95166 454.93506 Q 270.11084 455.09225 269.71436 455.31787 Q 269.02393 455.7212 269.02393 456.50732 L 269.01025 458.61276 Q 269.01025 459.7202 268.18994 460.1953 Q 267.36963 460.6704 265.9751 460.6704 L 265.9751 460.3628 Q 266.83643 460.1919 267.22607 459.9526 Q 267.92334 459.5288 267.92334 458.68115 L 267.937 456.7534 Q 267.937 455.82373 268.6001 455.33154 Q 269.26318 454.83932 270.54834 454.72998 L 270.54834 454.6958 Q 269.06494 454.40186 268.62744 454.1079 Q 267.937 453.64307 267.937 452.49463 L 267.937 450.81982 Q 267.937 449.8423 267.12354 449.3706 Q 266.66553 449.104 265.9751 449.022 L 265.9751 448.71436 Q 267.73193 448.71436 268.3711 449.27832 Q 269.01025 449.8423 269.01025 450.79248 L 269.02393 452.67236 Q 269.02393 453.66357 269.7417 454.09424 Q 270.15186 454.34717 270.95166 454.43604 L 270.95166 454.93506 Z"/>
    </g>
    <g>
        <path fill="#000000" stroke="none" d="M 113.041504 218.43604 Q 113.86866 218.34717 114.30615 218.06691 Q 114.976074 217.6294 114.976074 216.67236 L 114.98974 214.79248 Q 114.98974 213.52783 115.98096 213.06982 Q 116.55517 212.80322 118.01807 212.71436 L 118.01807 213.02199 Q 117.279785 213.104 116.66797 213.50389 Q 116.05616 213.90381 116.05616 214.81982 L 116.05616 216.49463 Q 116.05616 217.5747 115.53662 217.97803 Q 115.01709 218.38135 113.69092 218.64793 L 113.45166 218.6958 L 113.45166 218.72998 Q 114.85303 218.83934 115.447754 219.36572 Q 116.04247 219.89207 116.05616 220.7534 L 116.07666 222.68115 Q 116.083496 223.52882 116.76709 223.95264 Q 117.15674 224.1919 118.01807 224.36281 L 118.01807 224.67041 Q 116.64404 224.67041 115.8169 224.19873 Q 114.98974 223.72704 114.98974 222.6128 L 114.976074 220.50732 Q 114.976074 219.71436 114.26514 219.31104 Q 113.86182 219.08545 113.041504 218.93504 L 113.041504 218.43604 Z M 122.90576 218.3882 Q 122.11963 218.64793 121.60693 218.96242 Q 120.62256 219.57082 120.62256 220.34326 Q 120.62256 220.96533 121.032715 221.25928 Q 121.29932 221.45068 121.62744 221.45068 Q 122.07862 221.45068 122.49219 221.19777 Q 122.90576 220.94481 122.90576 220.55518 L 122.90576 218.3882 Z M 120.39697 219.16064 Q 121.02587 218.75049 122.90576 218.04639 L 122.90576 217.46532 Q 122.90576 216.76807 122.76904 216.49463 Q 122.53662 216.03662 121.805176 216.03662 Q 121.45655 216.03662 121.14209 216.21437 Q 120.82764 216.39893 120.82764 216.72021 Q 120.82764 216.80225 120.86182 216.99707 Q 120.896 217.1919 120.896 217.24658 Q 120.896 217.6294 120.64306 217.7798 Q 120.499504 217.86865 120.30127 217.86865 Q 119.99365 217.86865 119.82958 217.66699 Q 119.66553 217.46532 119.66553 217.21924 Q 119.66553 216.74072 120.256836 216.21776 Q 120.84815 215.69482 121.989746 215.69482 Q 123.31592 215.69482 123.787605 216.55615 Q 124.04053 217.02783 124.04053 217.93018 L 124.04053 220.67139 Q 124.04053 221.06787 124.095215 221.21826 Q 124.18408 221.48488 124.464355 221.48488 Q 124.62158 221.48488 124.72412 221.43701 Q 124.82667 221.38918 125.07959 221.20459 L 125.07959 221.56006 Q 124.86083 221.82666 124.60791 221.99757 Q 124.2251 222.25731 123.82861 222.25731 Q 123.36377 222.25731 123.15527 221.95654 Q 122.94678 221.65576 122.92628 221.23877 Q 122.40674 221.68994 122.0376 221.90869 Q 121.41553 222.27783 120.85498 222.27783 Q 120.26709 222.27783 119.836426 221.86426 Q 119.40576 221.45068 119.40576 220.81496 Q 119.40576 219.82375 120.39697 219.16064 Z M 122.010254 215.69482 L 122.010254 215.69482 Z M 130.95166 218.93504 Q 130.11084 219.09227 129.71436 219.31786 Q 129.02393 219.72119 129.02393 220.50732 L 129.01025 222.6128 Q 129.01025 223.72023 128.18994 224.19531 Q 127.36963 224.67041 125.9751 224.67041 L 125.9751 224.36281 Q 126.836426 224.1919 127.226074 223.95264 Q 127.92334 223.52882 127.92334 222.68115 L 127.93701 220.7534 Q 127.93701 219.82375 128.6001 219.33154 Q 129.26318 218.83934 130.54834 218.72998 L 130.54834 218.6958 Q 129.06494 218.40186 128.62744 218.10791 Q 127.93701 217.64307 127.93701 216.49463 L 127.93701 214.81982 Q 127.93701 213.84229 127.123535 213.37062 Q 126.66552 213.104 125.9751 213.02199 L 125.9751 212.71436 Q 127.73193 212.71436 128.3711 213.2783 Q 129.01025 213.84229 129.01025 214.79248 L 129.02393 216.67236 Q 129.02393 217.66357 129.7417 218.09424 Q 130.15186 218.34717 130.95166 218.43604 L 130.95166 218.93504 Z"/>
    </g>
    <g>
        <path fill="#000000" stroke="none" d="M 267.0415 572.43604 Q 267.86865 572.34717 268.30615 572.0669 Q 268.97607 571.6294 268.97607 570.67236 L 268.98975 568.7925 Q 268.98975 567.52783 269.98096 567.0698 Q 270.55518 566.8032 272.01807 566.71436 L 272.01807 567.022 Q 271.2798 567.104 270.66797 567.5039 Q 270.05615 567.9038 270.05615 568.8198 L 270.05615 570.4946 Q 270.05615 571.5747 269.53662 571.978 Q 269.0171 572.38135 267.69092 572.64795 L 267.45166 572.6958 L 267.45166 572.73 Q 268.85303 572.83936 269.44775 573.3657 Q 270.04248 573.8921 270.05615 574.7534 L 270.07666 576.68115 Q 270.0835 577.5288 270.7671 577.95264 Q 271.15674 578.1919 272.01807 578.3628 L 272.01807 578.6704 Q 270.64404 578.6704 269.8169 578.1987 Q 268.98975 577.72705 268.98975 576.6128 L 268.97607 574.5073 Q 268.97607 573.71436 268.26514 573.31104 Q 267.86182 573.08545 267.0415 572.93506 L 267.0415 572.43604 Z M 276.90576 572.3882 Q 276.11963 572.64795 275.60693 572.9624 Q 274.62256 573.5708 274.62256 574.34326 Q 274.62256 574.96533 275.0327 575.2593 Q 275.29932 575.4507 275.62744 575.4507 Q 276.0786 575.4507 276.4922 575.19775 Q 276.90576 574.9448 276.90576 574.5552 L 276.90576 572.3882 Z M 274.39697 573.16064 Q 275.02588 572.7505 276.90576 572.0464 L 276.90576 571.46533 Q 276.90576 570.76807 276.76904 570.4946 Q 276.53662 570.0366 275.80518 570.0366 Q 275.45654 570.0366 275.1421 570.21436 Q 274.82764 570.3989 274.82764 570.7202 Q 274.82764 570.80225 274.86182 570.9971 Q 274.896 571.1919 274.896 571.2466 Q 274.896 571.6294 274.64307 571.7798 Q 274.4995 571.86865 274.30127 571.86865 Q 273.99365 571.86865 273.8296 571.667 Q 273.66553 571.46533 273.66553 571.21924 Q 273.66553 570.7407 274.25684 570.2178 Q 274.84814 569.6948 275.98975 569.6948 Q 277.31592 569.6948 277.7876 570.55615 Q 278.04053 571.02783 278.04053 571.9302 L 278.04053 574.6714 Q 278.04053 575.0679 278.0952 575.21826 Q 278.18408 575.48486 278.46436 575.48486 Q 278.62158 575.48486 278.72412 575.437 Q 278.82666 575.38916 279.0796 575.2046 L 279.0796 575.56006 Q 278.86084 575.82666 278.6079 575.99756 Q 278.2251 576.2573 277.8286 576.2573 Q 277.36377 576.2573 277.15527 575.95654 Q 276.94678 575.65576 276.92627 575.2388 Q 276.40674 575.68994 276.0376 575.9087 Q 275.41553 576.27783 274.85498 576.27783 Q 274.2671 576.27783 273.83643 575.86426 Q 273.40576 575.4507 273.40576 574.81494 Q 273.40576 573.8237 274.39697 573.16064 Z M 276.01025 569.6948 L 276.01025 569.6948 Z M 284.95166 572.93506 Q 284.11084 573.0923 283.71436 573.3179 Q 283.02393 573.7212 283.02393 574.5073 L 283.01025 576.6128 Q 283.01025 577.7202 282.18994 578.1953 Q 281.36963 578.6704 279.9751 578.6704 L 279.9751 578.3628 Q 280.83643 578.1919 281.22607 577.95264 Q 281.92334 577.5288 281.92334 576.68115 L 281.937 574.7534 Q 281.937 573.8237 282.6001 573.33154 Q 283.26318 572.83936 284.54834 572.73 L 284.54834 572.6958 Q 283.06494 572.40186 282.62744 572.1079 Q 281.937 571.64307 281.937 570.4946 L 281.937 568.8198 Q 281.937 567.8423 281.12354 567.3706 Q 280.66553 567.104 279.9751 567.022 L 279.9751 566.71436 Q 281.73193 566.71436 282.3711 567.2783 Q 283.01025 567.8423 283.01025 568.7925 L 283.02393 570.67236 Q 283.02393 571.6636 283.7417 572.09424 Q 284.15186 572.34717 284.95166 572.43604 L 284.95166 572.93506 Z"/>
    </g>
    <g>
        <path fill="#000000" stroke="none" d="M 85.43457 336.43604 Q 86.26172 336.34717 86.69923 336.0669 Q 87.36914 335.6294 87.36914 334.67236 L 87.38281 332.79248 Q 87.38281 331.52783 88.37402 331.06982 Q 88.94824 330.80322 90.41113 330.71436 L 90.41113 331.02197 Q 89.672844 331.104 89.061035 331.5039 Q 88.44922 331.9038 88.44922 332.81982 L 88.44922 334.49463 Q 88.44922 335.5747 87.929695 335.97803 Q 87.41016 336.38135 86.083984 336.64795 L 85.84473 336.6958 L 85.84473 336.72998 Q 87.24609 336.83936 87.84082 337.36572 Q 88.43555 337.8921 88.44922 338.75342 L 88.46973 340.68115 Q 88.47656 341.5288 89.160164 341.95264 Q 89.549805 342.1919 90.41113 342.3628 L 90.41113 342.6704 Q 89.03711 342.6704 88.20996 342.19873 Q 87.38281 341.72705 87.38281 340.6128 L 87.36914 338.50732 Q 87.36914 337.71436 86.6582 337.31104 Q 86.254875 337.08545 85.43457 336.93506 L 85.43457 336.43604 Z M 95.29883 336.38818 Q 94.51269 336.64795 94 336.9624 Q 93.015625 337.5708 93.015625 338.34326 Q 93.015625 338.96533 93.42577 339.25928 Q 93.69238 339.45068 94.02051 339.45068 Q 94.47168 339.45068 94.885254 339.19775 Q 95.29883 338.94482 95.29883 338.55518 L 95.29883 336.38818 Z M 92.79004 337.16064 Q 93.418945 336.7505 95.29883 336.0464 L 95.29883 335.46533 Q 95.29883 334.76807 95.16211 334.49463 Q 94.92969 334.03662 94.19824 334.03662 Q 93.84961 334.03662 93.535164 334.21436 Q 93.2207 334.39893 93.2207 334.7202 Q 93.2207 334.80225 93.25488 334.99707 Q 93.28906 335.1919 93.28906 335.24658 Q 93.28906 335.6294 93.03613 335.7798 Q 92.89258 335.86865 92.694336 335.86865 Q 92.38673 335.86865 92.22266 335.667 Q 92.05859 335.46533 92.05859 335.21924 Q 92.05859 334.74072 92.6499 334.21777 Q 93.24121 333.69482 94.38282 333.69482 Q 95.70899 333.69482 96.180664 334.55615 Q 96.43359 335.02783 96.43359 335.93018 L 96.43359 338.6714 Q 96.43359 339.06787 96.48828 339.21826 Q 96.57715 339.48486 96.85743 339.48486 Q 97.01465 339.48486 97.11719 339.437 Q 97.21973 339.38916 97.47266 339.2046 L 97.47266 339.56006 Q 97.25391 339.82666 97.000984 339.99756 Q 96.61817 340.25732 96.22167 340.25732 Q 95.75684 340.25732 95.54835 339.95654 Q 95.33985 339.65576 95.319336 339.23877 Q 94.7998 339.68994 94.43067 339.9087 Q 93.808586 340.27783 93.248055 340.27783 Q 92.66015 340.27783 92.22949 339.86426 Q 91.79883 339.45068 91.79883 338.81494 Q 91.79883 337.82373 92.79004 337.16064 Z M 94.40332 333.69482 L 94.40332 333.69482 Z M 100.43262 341.3169 Q 99.93359 341.91162 99.359375 342.1714 L 99.22949 341.89795 Q 99.88574 341.5288 100.13525 341.09814 Q 100.384766 340.66748 100.384766 340.38037 Q 100.384766 340.28467 100.32325 340.25732 Q 100.26171 340.22998 100.19336 340.22998 L 99.735344 340.27783 Q 99.448235 340.27783 99.20898 340.08984 Q 98.96973 339.90186 98.96973 339.5464 Q 98.96973 339.27295 99.16797 339.01318 Q 99.36622 338.75342 99.81738 338.75342 Q 100.24805 338.75342 100.58984 339.0918 Q 100.93165 339.43018 100.93165 340.03174 Q 100.93165 340.72217 100.43262 341.3169 Z M 109.45264 334.16992 Q 110.07129 334.61084 110.07129 335.1372 Q 110.07129 335.3628 109.91406 335.55762 Q 109.756836 335.75244 109.42872 335.75244 Q 109.18946 335.75244 109.0083 335.58838 Q 108.82715 335.42432 108.74512 335.10986 L 108.66308 334.78174 Q 108.57422 334.41943 108.35547 334.26904 Q 108.12988 334.1255 107.76074 334.1255 Q 106.981445 334.1255 106.444824 334.80566 Q 105.9082 335.48584 105.9082 336.61377 Q 105.9082 337.646 106.49951 338.4663 Q 107.09082 339.28662 108.0957 339.28662 Q 108.80663 339.28662 109.36035 338.82178 Q 109.674805 338.55518 110.07129 337.97412 L 110.262695 338.09033 Q 109.87305 338.91064 109.44238 339.38916 Q 108.61523 340.30518 107.52833 340.30518 Q 106.461914 340.30518 105.6416 339.46436 Q 104.82129 338.62354 104.82129 337.18115 Q 104.82129 335.7661 105.7168 334.74756 Q 106.612305 333.729 107.97949 333.729 Q 108.833984 333.729 109.45264 334.16992 Z M 107.67871 333.729 L 107.67871 333.729 Z M 116.55859 336.93506 Q 115.71777 337.0923 115.32129 337.31787 Q 114.63086 337.7212 114.63086 338.50732 L 114.61719 340.6128 Q 114.61719 341.7202 113.796875 342.1953 Q 112.976555 342.6704 111.58203 342.6704 L 111.58203 342.3628 Q 112.44336 342.1919 112.833 341.95264 Q 113.53027 341.5288 113.53027 340.68115 L 113.543945 338.75342 Q 113.543945 337.82373 114.20702 337.33154 Q 114.87012 336.83936 116.155266 336.72998 L 116.155266 336.6958 Q 114.671875 336.40186 114.234375 336.1079 Q 113.543945 335.64307 113.543945 334.49463 L 113.543945 332.81982 Q 113.543945 331.8423 112.73047 331.3706 Q 112.27247 331.104 111.58203 331.02197 L 111.58203 330.71436 Q 113.33887 330.71436 113.97803 331.27832 Q 114.61719 331.8423 114.61719 332.79248 L 114.63086 334.67236 Q 114.63086 335.66357 115.34863 336.09424 Q 115.75879 336.34717 116.55859 336.43604 L 116.55859 336.93506 Z"/>
    </g>
    <g>
        <path fill="#000000" stroke="none" d="M 267.0415 690.43604 Q 267.86865 690.3471 268.30615 690.0669 Q 268.97607 689.62946 268.97607 688.67236 L 268.98975 686.7925 Q 268.98975 685.52783 269.98096 685.0698 Q 270.55518 684.8032 272.01807 684.71436 L 272.01807 685.022 Q 271.2798 685.104 270.66797 685.5039 Q 270.05615 685.9038 270.05615 686.8198 L 270.05615 688.49457 Q 270.05615 689.5747 269.53662 689.978 Q 269.0171 690.38135 267.69092 690.64795 L 267.45166 690.6958 L 267.45166 690.7299 Q 268.85303 690.8394 269.44775 691.3657 Q 270.04248 691.8921 270.05615 692.7535 L 270.07666 694.6812 Q 270.0835 695.5288 270.7671 695.9527 Q 271.15674 696.1919 272.01807 696.36273 L 272.01807 696.67035 Q 270.64404 696.67035 269.8169 696.1987 Q 268.98975 695.72705 268.98975 694.6128 L 268.97607 692.5074 Q 268.97607 691.71436 268.26514 691.311 Q 267.86182 691.08545 267.0415 690.93506 L 267.0415 690.43604 Z M 276.90576 690.3882 Q 276.11963 690.64795 275.60693 690.9624 Q 274.62256 691.57074 274.62256 692.34326 Q 274.62256 692.9653 275.0327 693.2593 Q 275.29932 693.4507 275.62744 693.4507 Q 276.0786 693.4507 276.4922 693.19775 Q 276.90576 692.9448 276.90576 692.5552 L 276.90576 690.3882 Z M 274.39697 691.1607 Q 275.02588 690.7505 276.90576 690.0464 L 276.90576 689.46533 Q 276.90576 688.76807 276.76904 688.49457 Q 276.53662 688.0367 275.80518 688.0367 Q 275.45654 688.0367 275.1421 688.21436 Q 274.82764 688.3989 274.82764 688.7202 Q 274.82764 688.8023 274.86182 688.9971 Q 274.896 689.1919 274.896 689.24664 Q 274.896 689.62946 274.64307 689.7797 Q 274.4995 689.86865 274.30127 689.86865 Q 273.99365 689.86865 273.8296 689.66705 Q 273.66553 689.46533 273.66553 689.21924 Q 273.66553 688.7408 274.25684 688.2178 Q 274.84814 687.6948 275.98975 687.6948 Q 277.31592 687.6948 277.7876 688.5561 Q 278.04053 689.02783 278.04053 689.9302 L 278.04053 692.6714 Q 278.04053 693.0679 278.0952 693.21826 Q 278.18408 693.4848 278.46436 693.4848 Q 278.62158 693.4848 278.72412 693.437 Q 278.82666 693.38916 279.0796 693.2046 L 279.0796 693.56006 Q 278.86084 693.82666 278.6079 693.99756 Q 278.2251 694.2573 277.8286 694.2573 Q 277.36377 694.2573 277.15527 693.95654 Q 276.94678 693.6558 276.92627 693.2388 Q 276.40674 693.68994 276.0376 693.9087 Q 275.41553 694.27783 274.85498 694.27783 Q 274.2671 694.27783 273.83643 693.86426 Q 273.40576 693.4507 273.40576 692.81494 Q 273.40576 691.8237 274.39697 691.1607 Z M 276.01025 687.6948 L 276.01025 687.6948 Z M 284.95166 690.93506 Q 284.11084 691.0923 283.71436 691.3179 Q 283.02393 691.7212 283.02393 692.5074 L 283.01025 694.6128 Q 283.01025 695.72015 282.18994 696.1953 Q 281.36963 696.67035 279.9751 696.67035 L 279.9751 696.36273 Q 280.83643 696.1919 281.22607 695.9527 Q 281.92334 695.5288 281.92334 694.6812 L 281.937 692.7535 Q 281.937 691.8237 282.6001 691.33154 Q 283.26318 690.8394 284.54834 690.7299 L 284.54834 690.6958 Q 283.06494 690.40186 282.62744 690.1079 Q 281.937 689.643 281.937 688.49457 L 281.937 686.8198 Q 281.937 685.8423 281.12354 685.3706 Q 280.66553 685.104 279.9751 685.022 L 279.9751 684.71436 Q 281.73193 684.71436 282.3711 685.2783 Q 283.01025 685.8423 283.01025 686.7925 L 283.02393 688.67236 Q 283.02393 689.6636 283.7417 690.09424 Q 284.15186 690.3471 284.95166 690.43604 L 284.95166 690.93506 Z"/>
    </g>
    <g>
        <path fill="#000000" stroke="none" d="M 113.041504 454.43604 Q 113.86866 454.34717 114.30615 454.06693 Q 114.976074 453.62936 114.976074 452.67236 L 114.98974 450.79248 Q 114.98974 449.52786 115.98096 449.06982 Q 116.55517 448.80322 118.01807 448.71436 L 118.01807 449.022 Q 117.279785 449.104 116.66797 449.50388 Q 116.05616 449.9038 116.05616 450.81982 L 116.05616 452.49463 Q 116.05616 453.5747 115.53662 453.97803 Q 115.01709 454.38138 113.69092 454.64792 L 113.45166 454.6958 L 113.45166 454.72998 Q 114.85303 454.83932 115.447754 455.36572 Q 116.04247 455.8921 116.05616 456.7534 L 116.07666 458.68115 Q 116.083496 459.5288 116.76709 459.9526 Q 117.15674 460.1919 118.01807 460.3628 L 118.01807 460.6704 Q 116.64404 460.6704 115.8169 460.19876 Q 114.98974 459.72705 114.98974 458.61276 L 114.976074 456.50732 Q 114.976074 455.71436 114.26514 455.31104 Q 113.86182 455.08548 113.041504 454.93506 L 113.041504 454.43604 Z M 122.90576 454.3882 Q 122.11963 454.64792 121.60693 454.96243 Q 120.62256 455.5708 120.62256 456.34326 Q 120.62256 456.96533 121.032715 457.2593 Q 121.29932 457.4507 121.62744 457.4507 Q 122.07862 457.4507 122.49219 457.19778 Q 122.90576 456.9448 122.90576 456.5552 L 122.90576 454.3882 Z M 120.39697 455.1606 Q 121.02587 454.7505 122.90576 454.0464 L 122.90576 453.46533 Q 122.90576 452.76807 122.76904 452.49463 Q 122.53662 452.03662 121.805176 452.03662 Q 121.45655 452.03662 121.14209 452.2144 Q 120.82764 452.39893 120.82764 452.72025 Q 120.82764 452.80225 120.86182 452.99707 Q 120.896 453.1919 120.896 453.24655 Q 120.896 453.62936 120.64306 453.7798 Q 120.499504 453.86865 120.30127 453.86865 Q 119.99365 453.86865 119.82958 453.667 Q 119.66553 453.46533 119.66553 453.21924 Q 119.66553 452.74072 120.256836 452.21777 Q 120.84815 451.69482 121.989746 451.69482 Q 123.31592 451.69482 123.787605 452.55615 Q 124.04053 453.02783 124.04053 453.93018 L 124.04053 456.6714 Q 124.04053 457.0679 124.095215 457.21826 Q 124.18408 457.48486 124.464355 457.48486 Q 124.62158 457.48486 124.72412 457.437 Q 124.82667 457.3892 125.07959 457.20456 L 125.07959 457.56006 Q 124.86083 457.82666 124.60791 457.99756 Q 124.2251 458.25732 123.82861 458.25732 Q 123.36377 458.25732 123.15527 457.95654 Q 122.94678 457.65576 122.92628 457.23877 Q 122.40674 457.68994 122.0376 457.90866 Q 121.41553 458.27783 120.85498 458.27783 Q 120.26709 458.27783 119.836426 457.8643 Q 119.40576 457.4507 119.40576 456.81497 Q 119.40576 455.82373 120.39697 455.1606 Z M 122.010254 451.69482 L 122.010254 451.69482 Z M 130.95166 454.93506 Q 130.11084 455.09225 129.71436 455.31787 Q 129.02393 455.7212 129.02393 456.50732 L 129.01025 458.61276 Q 129.01025 459.7202 128.18994 460.1953 Q 127.36963 460.6704 125.9751 460.6704 L 125.9751 460.3628 Q 126.836426 460.1919 127.226074 459.9526 Q 127.92334 459.5288 127.92334 458.68115 L 127.93701 456.7534 Q 127.93701 455.82373 128.6001 455.33154 Q 129.26318 454.83932 130.54834 454.72998 L 130.54834 454.6958 Q 129.06494 454.40186 128.62744 454.1079 Q 127.93701 453.64307 127.93701 452.49463 L 127.93701 450.81982 Q 127.93701 449.8423 127.123535 449.3706 Q 126.66552 449.104 125.9751 449.022 L 125.9751 448.71436 Q 127.73193 448.71436 128.3711 449.27832 Q 129.01025 449.8423 129.01025 450.79248 L 129.02393 452.67236 Q 129.02393 453.66357 129.7417 454.09424 Q 130.15186 454.34717 130.95166 454.43604 L 130.95166 454.93506 Z"/>
    </g>
    <g>
        <path fill="#000000" stroke="none" d="M 88.541504 572.43604 Q 89.368645 572.34717 89.80615 572.0669 Q 90.476074 571.6294 90.476074 570.67236 L 90.489746 568.7925 Q 90.489746 567.52783 91.48096 567.0698 Q 92.055176 566.8032 93.51807 566.71436 L 93.51807 567.022 Q 92.779785 567.104 92.16797 567.5039 Q 91.55616 567.9038 91.55616 568.8198 L 91.55616 570.4946 Q 91.55616 571.5747 91.03662 571.978 Q 90.5171 572.38135 89.190926 572.64795 L 88.95167 572.6958 L 88.95167 572.73 Q 90.35303 572.83936 90.94776 573.3657 Q 91.54248 573.8921 91.55616 574.7534 L 91.57666 576.68115 Q 91.583496 577.5288 92.26709 577.95264 Q 92.656746 578.1919 93.51807 578.3628 L 93.51807 578.6704 Q 92.14404 578.6704 91.31689 578.1987 Q 90.489746 577.72705 90.489746 576.6128 L 90.476074 574.5073 Q 90.476074 573.71436 89.76514 573.31104 Q 89.36182 573.08545 88.541504 572.93506 L 88.541504 572.43604 Z M 98.40576 572.3882 Q 97.61963 572.64795 97.10693 572.9624 Q 96.12257 573.5708 96.12257 574.34326 Q 96.12257 574.96533 96.532715 575.2593 Q 96.79932 575.4507 97.12744 575.4507 Q 97.578606 575.4507 97.992195 575.19775 Q 98.40576 574.9448 98.40576 574.5552 L 98.40576 572.3882 Z M 95.89697 573.16064 Q 96.52588 572.7505 98.40576 572.0464 L 98.40576 571.46533 Q 98.40576 570.76807 98.26904 570.4946 Q 98.03662 570.0366 97.30518 570.0366 Q 96.956535 570.0366 96.64209 570.21436 Q 96.32764 570.3989 96.32764 570.7202 Q 96.32764 570.80225 96.36182 570.9971 Q 96.39599 571.1919 96.39599 571.2466 Q 96.39599 571.6294 96.14307 571.7798 Q 95.99951 571.86865 95.80127 571.86865 Q 95.49365 571.86865 95.32959 571.667 Q 95.165535 571.46533 95.165535 571.21924 Q 95.165535 570.7407 95.75684 570.2178 Q 96.34814 569.6948 97.489746 569.6948 Q 98.81592 569.6948 99.28759 570.55615 Q 99.540535 571.02783 99.540535 571.9302 L 99.540535 574.6714 Q 99.540535 575.0679 99.595215 575.21826 Q 99.68408 575.48486 99.964355 575.48486 Q 100.12158 575.48486 100.22412 575.437 Q 100.32665 575.38916 100.5796 575.2046 L 100.5796 575.56006 Q 100.36084 575.82666 100.10791 575.99756 Q 99.7251 576.2573 99.32861 576.2573 Q 98.86377 576.2573 98.65527 575.95654 Q 98.44678 575.65576 98.42626 575.2388 Q 97.90674 575.68994 97.5376 575.9087 Q 96.91553 576.27783 96.35498 576.27783 Q 95.76709 576.27783 95.336426 575.86426 Q 94.90576 575.4507 94.90576 574.81494 Q 94.90576 573.8237 95.89697 573.16064 Z M 97.510254 569.6948 L 97.510254 569.6948 Z M 106.45166 572.93506 Q 105.61085 573.0923 105.21435 573.3179 Q 104.52393 573.7212 104.52393 574.5073 L 104.51025 576.6128 Q 104.51025 577.7202 103.68994 578.1953 Q 102.86963 578.6704 101.475105 578.6704 L 101.475105 578.3628 Q 102.33643 578.1919 102.726074 577.95264 Q 103.42335 577.5288 103.42335 576.68115 L 103.43701 574.7534 Q 103.43701 573.8237 104.1001 573.33154 Q 104.76318 572.83936 106.04834 572.73 L 106.04834 572.6958 Q 104.56494 572.40186 104.12743 572.1079 Q 103.43701 571.64307 103.43701 570.4946 L 103.43701 568.8198 Q 103.43701 567.8423 102.62354 567.3706 Q 102.16553 567.104 101.475105 567.022 L 101.475105 566.71436 Q 103.23194 566.71436 103.871086 567.2783 Q 104.51025 567.8423 104.51025 568.7925 L 104.52393 570.67236 Q 104.52393 571.6636 105.2417 572.09424 Q 105.651855 572.34717 106.45166 572.43604 L 106.45166 572.93506 Z"/>
    </g>
    <g>
        <path fill="#000000" stroke="none" d="M 161.64844 572.43604 Q 162.47559 572.34717 162.91309 572.0669 Q 163.58301 571.6294 163.58301 570.67236 L 163.59668 568.7925 Q 163.59668 567.52783 164.58789 567.0698 Q 165.16211 566.8032 166.625 566.71436 L 166.625 567.022 Q 165.88672 567.104 165.2749 567.5039 Q 164.66309 567.9038 164.66309 568.8198 L 164.66309 570.4946 Q 164.66309 571.5747 164.14355 571.978 Q 163.62402 572.38135 162.29785 572.64795 L 162.0586 572.6958 L 162.0586 572.73 Q 163.45996 572.83936 164.05469 573.3657 Q 164.64941 573.8921 164.66309 574.7534 L 164.6836 576.68115 Q 164.69043 577.5288 165.37402 577.95264 Q 165.76367 578.1919 166.625 578.3628 L 166.625 578.6704 Q 165.25098 578.6704 164.42383 578.1987 Q 163.59668 577.72705 163.59668 576.6128 L 163.58301 574.5073 Q 163.58301 573.71436 162.87207 573.31104 Q 162.46875 573.08545 161.64844 572.93506 L 161.64844 572.43604 Z M 167.54785 567.48 L 167.54785 567.24756 Q 168.32715 567.0698 168.94922 566.8511 Q 169.57129 566.6323 169.61914 566.6323 Q 169.63281 566.67334 169.63281 566.71436 L 169.63281 570.87744 Q 169.81055 570.5493 170.16602 570.2554 Q 170.79492 569.7427 171.61523 569.7427 Q 172.62012 569.7427 173.33104 570.59033 Q 174.04199 571.438 174.04199 572.7915 Q 174.04199 574.2407 173.11914 575.27295 Q 172.19629 576.3052 170.69238 576.3052 Q 169.9336 576.3052 169.20215 576.0044 Q 168.4707 575.7036 168.4707 575.40283 L 168.4707 568.17725 Q 168.4707 567.78076 168.36133 567.6133 Q 168.25195 567.4458 167.85547 567.4458 L 167.54785 567.48 Z M 170.13867 575.6865 Q 170.61035 575.84033 170.96582 575.84033 Q 171.92284 575.84033 172.38428 575.12256 Q 172.84572 574.4048 172.84572 573.3862 Q 172.84572 572.3677 172.41504 571.5029 Q 171.98439 570.6382 171.02051 570.6382 Q 170.53516 570.6382 170.07031 570.93555 Q 169.60547 571.2329 169.60547 571.6909 L 169.60547 575.17725 Q 169.66699 575.5327 170.13867 575.6865 Z M 180.34473 572.93506 Q 179.5039 573.0923 179.10744 573.3179 Q 178.41699 573.7212 178.41699 574.5073 L 178.40334 576.6128 Q 178.40334 577.7202 177.58301 578.1953 Q 176.7627 578.6704 175.36816 578.6704 L 175.36816 578.3628 Q 176.22949 578.1919 176.61913 577.95264 Q 177.3164 577.5288 177.3164 576.68115 L 177.33008 574.7534 Q 177.33008 573.8237 177.99315 573.33154 Q 178.65625 572.83936 179.94139 572.73 L 179.94139 572.6958 Q 178.45801 572.40186 178.02052 572.1079 Q 177.33008 571.64307 177.33008 570.4946 L 177.33008 568.8198 Q 177.33008 567.8423 176.5166 567.3706 Q 176.0586 567.104 175.36816 567.022 L 175.36816 566.71436 Q 177.125 566.71436 177.76416 567.2783 Q 178.40334 567.8423 178.40334 568.7925 L 178.41699 570.67236 Q 178.41699 571.6636 179.13477 572.09424 Q 179.54492 572.34717 180.34473 572.43604 L 180.34473 572.93506 Z"/>
    </g>
    <g>
        <path fill="#000000" stroke="none" d="M 137.5415 690.43604 Q 138.36865 690.3471 138.80615 690.0669 Q 139.47607 689.62946 139.47607 688.67236 L 139.48975 686.7925 Q 139.48975 685.52783 140.48096 685.0698 Q 141.05518 684.8032 142.51807 684.71436 L 142.51807 685.022 Q 141.77979 685.104 141.16797 685.5039 Q 140.55615 685.9038 140.55615 686.8198 L 140.55615 688.49457 Q 140.55615 689.5747 140.03662 689.978 Q 139.51709 690.38135 138.19092 690.64795 L 137.95166 690.6958 L 137.95166 690.7299 Q 139.35303 690.8394 139.94775 691.3657 Q 140.54248 691.8921 140.55615 692.7535 L 140.57666 694.6812 Q 140.5835 695.5288 141.26709 695.9527 Q 141.65674 696.1919 142.51807 696.36273 L 142.51807 696.67035 Q 141.14404 696.67035 140.3169 696.1987 Q 139.48975 695.72705 139.48975 694.6128 L 139.47607 692.5074 Q 139.47607 691.71436 138.76514 691.311 Q 138.36182 691.08545 137.5415 690.93506 L 137.5415 690.43604 Z M 147.40576 690.3882 Q 146.61963 690.64795 146.10693 690.9624 Q 145.12256 691.57074 145.12256 692.34326 Q 145.12256 692.9653 145.53271 693.2593 Q 145.79932 693.4507 146.12744 693.4507 Q 146.57861 693.4507 146.99219 693.19775 Q 147.40576 692.9448 147.40576 692.5552 L 147.40576 690.3882 Z M 144.89697 691.1607 Q 145.52588 690.7505 147.40576 690.0464 L 147.40576 689.46533 Q 147.40576 688.76807 147.26904 688.49457 Q 147.03662 688.0367 146.30518 688.0367 Q 145.95654 688.0367 145.64209 688.21436 Q 145.32764 688.3989 145.32764 688.7202 Q 145.32764 688.8023 145.36182 688.9971 Q 145.396 689.1919 145.396 689.24664 Q 145.396 689.62946 145.14307 689.7797 Q 144.99951 689.86865 144.80127 689.86865 Q 144.49365 689.86865 144.32959 689.66705 Q 144.16553 689.46533 144.16553 689.21924 Q 144.16553 688.7408 144.75684 688.2178 Q 145.34814 687.6948 146.48975 687.6948 Q 147.81592 687.6948 148.2876 688.5561 Q 148.54053 689.02783 148.54053 689.9302 L 148.54053 692.6714 Q 148.54053 693.0679 148.59521 693.21826 Q 148.68408 693.4848 148.96436 693.4848 Q 149.12158 693.4848 149.22412 693.437 Q 149.32666 693.38916 149.57959 693.2046 L 149.57959 693.56006 Q 149.36084 693.82666 149.10791 693.99756 Q 148.7251 694.2573 148.32861 694.2573 Q 147.86377 694.2573 147.65527 693.95654 Q 147.44678 693.6558 147.42627 693.2388 Q 146.90674 693.68994 146.5376 693.9087 Q 145.91553 694.27783 145.35498 694.27783 Q 144.76709 694.27783 144.33643 693.86426 Q 143.90576 693.4507 143.90576 692.81494 Q 143.90576 691.8237 144.89697 691.1607 Z M 146.51025 687.6948 L 146.51025 687.6948 Z M 152.53955 695.3169 Q 152.04053 695.9116 151.46631 696.1714 L 151.33643 695.89795 Q 151.99268 695.5288 152.24219 695.09814 Q 152.4917 694.6675 152.4917 694.3804 Q 152.4917 694.28467 152.43018 694.2573 Q 152.36865 694.23 152.3003 694.23 L 151.84229 694.27783 Q 151.55518 694.27783 151.31592 694.0898 Q 151.07666 693.90186 151.07666 693.5463 Q 151.07666 693.273 151.2749 693.01324 Q 151.47314 692.7535 151.92432 692.7535 Q 152.35498 692.7535 152.69678 693.0918 Q 153.03857 693.4302 153.03857 694.03174 Q 153.03857 694.72217 152.53955 695.3169 Z M 156.65479 685.48 L 156.65479 685.24756 Q 157.43408 685.0698 158.05615 684.8511 Q 158.67822 684.6323 158.72607 684.6323 Q 158.73975 684.67334 158.73975 684.71436 L 158.73975 688.8774 Q 158.91748 688.5493 159.27295 688.2554 Q 159.90186 687.7427 160.72217 687.7427 Q 161.72705 687.7427 162.43799 688.59033 Q 163.14893 689.438 163.14893 690.79144 Q 163.14893 692.2407 162.22607 693.273 Q 161.30322 694.3052 159.79932 694.3052 Q 159.04053 694.3052 158.30908 694.0044 Q 157.57764 693.7036 157.57764 693.40283 L 157.57764 686.17725 Q 157.57764 685.78076 157.46826 685.6133 Q 157.35889 685.4458 156.9624 685.4458 L 156.65479 685.48 Z M 159.2456 693.6865 Q 159.71729 693.8404 160.07275 693.8404 Q 161.02979 693.8404 161.49121 693.12256 Q 161.95264 692.4048 161.95264 691.3862 Q 161.95264 690.3677 161.52197 689.5029 Q 161.09131 688.6382 160.12744 688.6382 Q 159.64209 688.6382 159.17725 688.93555 Q 158.7124 689.2329 158.7124 689.691 L 158.7124 693.17725 Q 158.77393 693.5328 159.2456 693.6865 Z M 169.45166 690.93506 Q 168.61084 691.0923 168.21436 691.3179 Q 167.52393 691.7212 167.52393 692.5074 L 167.51025 694.6128 Q 167.51025 695.72015 166.68994 696.1953 Q 165.86963 696.67035 164.4751 696.67035 L 164.4751 696.36273 Q 165.33643 696.1919 165.72607 695.9527 Q 166.42334 695.5288 166.42334 694.6812 L 166.43701 692.7535 Q 166.43701 691.8237 167.1001 691.33154 Q 167.76318 690.8394 169.04834 690.7299 L 169.04834 690.6958 Q 167.56494 690.40186 167.12744 690.1079 Q 166.43701 689.643 166.43701 688.49457 L 166.43701 686.8198 Q 166.43701 685.8423 165.62354 685.3706 Q 165.16553 685.104 164.4751 685.022 L 164.4751 684.71436 Q 166.23193 684.71436 166.8711 685.2783 Q 167.51025 685.8423 167.51025 686.7925 L 167.52393 688.67236 Q 167.52393 689.6636 168.2417 690.09424 Q 168.65186 690.3471 169.45166 690.43604 L 169.45166 690.93506 Z"/>
    </g>
    <g>
        <path id="arrow0" fill="#000000" fill-opacity="0" stroke="#000000" d="M 195.16101 54 C 182.9661 81.40955 186.44492 73.59045 174.25 101 C 162.05507 128.40956 170.26848 118.729065 163.69492 148"/>
        <g>
            <g clip-path="url(#clipPath1)" transform="matrix(-0.21911876 0.9756982 -0.9756982 -0.21911876 169.30104 139.00993)">
                <path fill="#000000" stroke="none" d="M 0 0 L 10 3.5 L 0 7 Z"/>
            </g>
        </g>
    </g>
    <g>
        <path id="arrow1" fill="#000000" fill-opacity="0" stroke="#000000" d="M 239.8644 54 C 263.7906 72.09801 302 71 302 101 C 302 131 302 130 302 160 C 302 190 302 189 302 219 C 302 249 302 248 302 278 C 302 308 302 307 302 337 C 302 367 302 366 302 396 C 302 426 302 425 302 455 C 302 485 302 472 302 502"/>
        <g>
            <g clip-path="url(#clipPath2)" transform="matrix(-0.00000004 1 -1 -0.00000004 305.5 492)">
                <path fill="#000000" stroke="none" d="M 0 0 L 10 3.5 L 0 7 Z"/>
            </g>
        </g>
    </g>
    <g>
        <path id="arrow2" fill="#000000" fill-opacity="0" stroke="#000000" d="M 148 172 C 148 202 148 189 148 219 C 148 249 148 236 148 266"/>
        <g>
            <g clip-path="url(#clipPath3)" transform="matrix(-0.00000004 1 -1 -0.00000004 151.5 256)">
                <path fill="#000000" stroke="none" d="M 0 0 L 10 3.5 L 0 7 Z"/>
            </g>
        </g>
    </g>
    <g>
        <path id="arrow3" fill="#000000" fill-opacity="0" stroke="#000000" d="M 302 526 C 302 556 302 543 302 573 C 302 603 302 590 302 620"/>
        <g>
            <g clip-path="url(#clipPath4)" transform="matrix(-0.00000004 1 -1 -0.00000004 305.5 610)">
                <path fill="#000000" stroke="none" d="M 0 0 L 10 3.5 L 0 7 Z"/>
            </g>
        </g>
    </g>
    <g>
        <path id="arrow4" fill="#000000" fill-opacity="0" stroke="#000000" d="M 148 290 C 148 320 148 307 148 337 C 148 367 148 354 148 384"/>
        <g>
            <g clip-path="url(#clipPath5)" transform="matrix(-0.00000004 1 -1 -0.00000004 151.5 374)">
                <path fill="#000000" stroke="none" d="M 0 0 L 10 3.5 L 0 7 Z"/>
            </g>
        </g>
    </g>
    <g>
        <path id="arrow5" fill="#000000" fill-opacity="0" stroke="#000000" d="M 302 644 C 302 674 302 661 302 691 C 302 721 302 708 302 738"/>
        <g>
            <g clip-path="url(#clipPath6)" transform="matrix(-0.00000004 1 -1 -0.00000004 305.5 728)">
                <path fill="#000000" stroke="none" d="M 0 0 L 10 3.5 L 0 7 Z"/>
            </g>
        </g>
    </g>
    <g>
        <path id="arrow6" fill="#000000" fill-opacity="0" stroke="#000000" d="M 148 408 C 148 438 148 425 148 455 C 148 485 148 472 148 502"/>
        <g>
            <g clip-path="url(#clipPath7)" transform="matrix(-0.00000004 1 -1 -0.00000004 151.5 492)">
                <path fill="#000000" stroke="none" d="M 0 0 L 10 3.5 L 0 7 Z"/>
            </g>
        </g>
    </g>
    <g>
        <path id="arrow7" fill="#000000" fill-opacity="0" stroke="#000000" d="M 135.44916 526 C 128.05719 555.0751 132.6669 544.5156 123.5 573 C 114.33309 601.4844 118.94281 590.9249 111.55085 620"/>
        <g>
            <g clip-path="url(#clipPath8)" transform="matrix(-0.24639852 0.96916866 -0.96916866 -0.24639852 117.40692 611.1707)">
                <path fill="#000000" stroke="none" d="M 0 0 L 10 3.5 L 0 7 Z"/>
            </g>
        </g>
    </g>
    <g>
        <path id="arrow8" fill="#000000" fill-opacity="0" stroke="#000000" d="M 165.5339 526 C 182.22363 550.92896 197 543 197 573 C 197 603 197 590 197 620"/>
        <g>
            <g clip-path="url(#clipPath9)" transform="matrix(-0.00000004 1 -1 -0.00000004 200.5 610)">
                <path fill="#000000" stroke="none" d="M 0 0 L 10 3.5 L 0 7 Z"/>
            </g>
        </g>
    </g>
    <g>
        <path id="arrow9" fill="#000000" fill-opacity="0" stroke="#000000" d="M 118 638.0924 C 143.25317 654.28735 174.93591 675.31396 200.5 691 C 226.06407 706.6861 251.0385 724.6923 276 741.3333"/>
        <g>
            <g clip-path="url(#clipPath10)" transform="matrix(0.8320505 0.55469996 -0.55469996 0.8320505 269.62094 732.8742)">
                <path fill="#000000" stroke="none" d="M 0 0 L 10 3.5 L 0 7 Z"/>
            </g>
        </g>
    </g>
</svg>
