<svg width="200" height="698" xmlns="http://www.w3.org/2000/svg">
    <defs>
        <clipPath id="clipPath1">
            <path fill="#000000" stroke="none" d="M 0 0 L 10 0 L 10 7 L 0 7 Z"/>
        </clipPath>
        <clipPath id="clipPath2">
            <path fill="#000000" stroke="none" d="M 0 0 L 10 0 L 10 7 L 0 7 Z"/>
        </clipPath>
        <clipPath id="clipPath3">
            <path fill="#000000" stroke="none" d="M 0 0 L 10 0 L 10 7 L 0 7 Z"/>
        </clipPath>
        <clipPath id="clipPath4">
            <path fill="#000000" stroke="none" d="M 0 0 L 10 0 L 10 7 L 0 7 Z"/>
        </clipPath>
        <clipPath id="clipPath5">
            <path fill="#000000" stroke="none" d="M 0 0 L 10 0 L 10 7 L 0 7 Z"/>
        </clipPath>
    </defs>
    <g>
        <path fill="#ff6a6a" stroke="#000000" d="M 171 30 L 195 30 L 195 54 L 171 54 Z"/>
    </g>
    <g>
        <path fill="#ff6a6a" stroke="#000000" d="M 171 148 L 195 148 L 195 172 L 171 172 Z"/>
    </g>
    <g>
        <path fill="#90ee90" stroke="#000000" d="M 171 266 L 195 266 L 195 290 L 171 290 Z"/>
    </g>
    <g>
        <path fill="#ff6a6a" stroke="#000000" d="M 171 384 L 195 384 L 195 408 L 171 408 Z"/>
    </g>
    <g>
        <path fill="#90ee90" stroke="#000000" d="M 171 502 L 195 502 L 195 526 L 171 526 Z"/>
    </g>
    <g>
        <path fill="#ff6a6a" stroke="#000000" d="M 171 620 L 195 620 L 195 644 L 171 644 Z"/>
    </g>
    <g>
        <path fill="#000000" stroke="none" d="M 98.64843 100.43604 Q 99.475586 100.34717 99.913086 100.066895 Q 100.58301 99.629395 100.58301 98.67236 L 100.59669 96.79248 Q 100.59669 95.52783 101.58788 95.06983 Q 102.1621 94.80322 103.625 94.714355 L 103.625 95.02198 Q 102.88672 95.104 102.274895 95.50391 Q 101.663086 95.90381 101.663086 96.819824 L 101.663086 98.49463 Q 101.663086 99.5747 101.143555 99.97803 Q 100.62402 100.38135 99.29785 100.64795 L 99.05859 100.6958 L 99.05859 100.72998 Q 100.45996 100.839355 101.05469 101.36572 Q 101.64942 101.89208 101.663086 102.75341 L 101.683586 104.68115 Q 101.69043 105.52881 102.37402 105.95264 Q 102.76367 106.191895 103.625 106.3628 L 103.625 106.67041 Q 102.25098 106.67041 101.42383 106.19873 Q 100.59669 105.72705 100.59669 104.61279 L 100.58301 102.507324 Q 100.58301 101.71436 99.87207 101.311035 Q 99.46875 101.08545 98.64843 100.93506 L 98.64843 100.43604 Z M 107.26514 103.61133 Q 107.61719 103.840324 108.0957 103.840324 Q 108.833984 103.840324 109.35693 103.10546 Q 109.87988 102.3706 109.87988 101.05811 Q 109.87988 99.80029 109.336426 99.17822 Q 108.79297 98.55615 108.075195 98.55615 Q 107.569336 98.55615 107.15234 98.86719 Q 106.73535 99.17822 106.73535 99.479 L 106.73535 102.91748 Q 106.913086 103.382324 107.26514 103.61133 Z M 104.56152 106.998535 Q 105.2041 106.95752 105.37842 106.7251 Q 105.552734 106.492676 105.552734 105.99366 L 105.552734 99.431145 Q 105.552734 98.91162 105.42627 98.76465 Q 105.299805 98.61767 104.95117 98.61767 Q 104.875984 98.61767 104.811035 98.62451 Q 104.74609 98.631355 104.62304 98.651855 L 104.62304 98.42626 L 105.27246 98.214355 Q 105.30665 98.20752 106.646484 97.742676 Q 106.68067 97.742676 106.69776 97.77344 Q 106.714836 97.8042 106.714836 97.845215 L 106.714836 98.76807 Q 107.166016 98.316895 107.50781 98.098145 Q 108.12305 97.71533 108.77246 97.71533 Q 109.71583 97.71533 110.395996 98.51856 Q 111.076164 99.32178 111.076164 100.71631 Q 111.076164 102.08349 110.259285 103.197754 Q 109.44238 104.31201 108.20508 104.31201 Q 107.822266 104.31201 107.54199 104.21631 Q 107.10449 104.072754 106.73535 103.68994 L 106.73535 105.92529 Q 106.73535 106.61572 106.96094 106.77295 Q 107.18652 106.930176 107.945305 106.98487 L 107.945305 107.22413 L 104.56152 107.22413 L 104.56152 106.998535 Z M 115.67335 94.833984 Q 115.67675 94.851074 115.67675 94.9126 L 115.67675 103.14307 Q 115.67675 103.66943 115.95703 103.81299 Q 116.237305 103.95654 117.00293 103.98388 L 117.00293 104.175285 L 113.14746 104.175285 L 113.14746 103.970215 Q 113.97461 103.9292 114.22754 103.74462 Q 114.48047 103.56006 114.48047 102.94482 L 114.48047 96.614746 Q 114.48047 96.28662 114.39843 96.11572 Q 114.316414 95.944824 114.04297 95.944824 Q 113.865234 95.944824 113.58155 96.04395 Q 113.29785 96.14307 113.05176 96.25243 L 113.05176 96.06103 L 115.56055 94.78271 L 115.642586 94.78271 Q 115.66992 94.816895 115.67335 94.833984 Z M 121.43262 105.316895 Q 120.93359 105.91162 120.359375 106.17138 L 120.22949 105.89796 Q 120.88574 105.52881 121.135254 105.098145 Q 121.384766 104.66748 121.384766 104.38038 Q 121.384766 104.284676 121.32324 104.257324 Q 121.26172 104.22998 121.19336 104.22998 L 120.73535 104.27783 Q 120.44824 104.27783 120.208984 104.08984 Q 119.969734 103.90186 119.969734 103.54639 Q 119.969734 103.27295 120.16797 103.01318 Q 120.36621 102.75341 120.81739 102.75341 Q 121.248055 102.75341 121.58984 103.0918 Q 121.93164 103.430176 121.93164 104.03173 Q 121.93164 104.72217 121.43262 105.316895 Z M 128.26514 103.61133 Q 128.61719 103.840324 129.0957 103.840324 Q 129.83398 103.840324 130.35693 103.10546 Q 130.87988 102.3706 130.87988 101.05811 Q 130.87988 99.80029 130.33643 99.17822 Q 129.79297 98.55615 129.0752 98.55615 Q 128.56934 98.55615 128.15234 98.86719 Q 127.735344 99.17822 127.735344 99.479 L 127.735344 102.91748 Q 127.913086 103.382324 128.26514 103.61133 Z M 125.56153 106.998535 Q 126.2041 106.95752 126.37841 106.7251 Q 126.55273 106.492676 126.55273 105.99366 L 126.55273 99.431145 Q 126.55273 98.91162 126.42626 98.76465 Q 126.299805 98.61767 125.95117 98.61767 Q 125.87598 98.61767 125.811035 98.62451 Q 125.74609 98.631355 125.62305 98.651855 L 125.62305 98.42626 L 126.27246 98.214355 Q 126.30664 98.20752 127.646484 97.742676 Q 127.680664 97.742676 127.697754 97.77344 Q 127.71484 97.8042 127.71484 97.845215 L 127.71484 98.76807 Q 128.16602 98.316895 128.50781 98.098145 Q 129.12305 97.71533 129.77246 97.71533 Q 130.71582 97.71533 131.396 98.51856 Q 132.07617 99.32178 132.07617 100.71631 Q 132.07617 102.08349 131.25928 103.197754 Q 130.44238 104.31201 129.20508 104.31201 Q 128.82227 104.31201 128.54199 104.21631 Q 128.10449 104.072754 127.735344 103.68994 L 127.735344 105.92529 Q 127.735344 106.61572 127.96094 106.77295 Q 128.18652 106.930176 128.94531 106.98487 L 128.94531 107.22413 L 125.56153 107.22413 L 125.56153 106.998535 Z M 134.58154 103.375496 Q 135.2002 103.76514 135.63086 103.76514 Q 136.58789 103.76514 137.05273 103.11915 Q 137.51758 102.473145 137.51758 101.71436 Q 137.51758 100.98291 137.1416 100.4292 Q 136.50586 99.49268 134.99512 99.49268 Q 134.90625 99.49268 134.82422 99.496086 Q 134.74219 99.49951 134.63281 99.51318 L 134.61914 99.33544 Q 135.71289 98.938965 136.3418 98.42626 Q 136.9707 97.91357 136.9707 97.072754 Q 136.9707 96.32764 136.4751 95.93799 Q 135.97949 95.54835 135.34375 95.54835 Q 134.5918 95.54835 134.01758 96.10205 Q 133.70313 96.40283 133.34082 97.03174 L 133.1289 96.98389 Q 133.40234 95.944824 134.14746 95.322754 Q 134.89258 94.70068 135.87012 94.70068 Q 136.91602 94.70068 137.48682 95.2749 Q 138.05762 95.84912 138.05762 96.601074 Q 138.05762 97.26416 137.58594 97.81786 Q 137.31934 98.132324 136.75879 98.521965 Q 137.41504 98.802246 137.81152 99.17822 Q 138.55664 99.895996 138.55664 100.996574 Q 138.55664 102.29541 137.53467 103.28662 Q 136.5127 104.27783 134.62598 104.27783 Q 133.78516 104.27783 133.44678 104.02832 Q 133.1084 103.77881 133.1084 103.4917 Q 133.1084 103.31396 133.22119 103.1499 Q 133.33398 102.98584 133.58691 102.98584 Q 133.96289 102.98584 134.58154 103.375496 Z M 145.34473 100.93506 Q 144.5039 101.09228 144.10742 101.31787 Q 143.41699 101.72119 143.41699 102.507324 L 143.40332 104.61279 Q 143.40332 105.720215 142.58301 106.19531 Q 141.7627 106.67041 140.36816 106.67041 L 140.36816 106.3628 Q 141.22949 106.191895 141.61914 105.95264 Q 142.3164 105.52881 142.3164 104.68115 L 142.33008 102.75341 Q 142.33008 101.82373 142.99316 101.331535 Q 143.65625 100.839355 144.9414 100.72998 L 144.9414 100.6958 Q 143.45801 100.401855 143.02051 100.10791 Q 142.33008 99.64307 142.33008 98.49463 L 142.33008 96.819824 Q 142.33008 95.842285 141.5166 95.370605 Q 141.0586 95.104 140.36816 95.02198 L 140.36816 94.714355 Q 142.125 94.714355 142.76416 95.27831 Q 143.40332 95.842285 143.40332 96.79248 L 143.41699 98.67236 Q 143.41699 99.663574 144.13477 100.09424 Q 144.54492 100.34717 145.34473 100.43604 L 145.34473 100.93506 Z"/>
    </g>
    <g>
        <path fill="#000000" stroke="none" d="M 98.64843 218.43604 Q 99.475586 218.34717 99.913086 218.06691 Q 100.58301 217.6294 100.58301 216.67236 L 100.59669 214.79248 Q 100.59669 213.52783 101.58788 213.06982 Q 102.1621 212.80322 103.625 212.71436 L 103.625 213.02199 Q 102.88672 213.104 102.274895 213.50389 Q 101.663086 213.90381 101.663086 214.81982 L 101.663086 216.49463 Q 101.663086 217.5747 101.143555 217.97803 Q 100.62402 218.38135 99.29785 218.64793 L 99.05859 218.6958 L 99.05859 218.72998 Q 100.45996 218.83934 101.05469 219.36572 Q 101.64942 219.89207 101.663086 220.7534 L 101.683586 222.68115 Q 101.69043 223.52882 102.37402 223.95264 Q 102.76367 224.1919 103.625 224.36281 L 103.625 224.67041 Q 102.25098 224.67041 101.42383 224.19873 Q 100.59669 223.72704 100.59669 222.6128 L 100.58301 220.50732 Q 100.58301 219.71436 99.87207 219.31104 Q 99.46875 219.08545 98.64843 218.93504 L 98.64843 218.43604 Z M 107.26514 221.61133 Q 107.61719 221.84032 108.0957 221.84032 Q 108.833984 221.84032 109.35693 221.10545 Q 109.87988 220.37059 109.87988 219.05812 Q 109.87988 217.8003 109.336426 217.1782 Q 108.79297 216.55615 108.075195 216.55615 Q 107.569336 216.55615 107.15234 216.86719 Q 106.73535 217.1782 106.73535 217.479 L 106.73535 220.91748 Q 106.913086 221.38232 107.26514 221.61133 Z M 104.56152 224.99855 Q 105.2041 224.95752 105.37842 224.7251 Q 105.552734 224.49266 105.552734 223.99365 L 105.552734 217.43114 Q 105.552734 216.91162 105.42627 216.76465 Q 105.299805 216.61768 104.95117 216.61768 Q 104.875984 216.61768 104.811035 216.62451 Q 104.74609 216.63136 104.62304 216.65186 L 104.62304 216.42627 L 105.27246 216.21437 Q 105.30665 216.20752 106.646484 215.74268 Q 106.68067 215.74268 106.69776 215.77342 Q 106.714836 215.80418 106.714836 215.84521 L 106.714836 216.76807 Q 107.166016 216.3169 107.50781 216.09814 Q 108.12305 215.71533 108.77246 215.71533 Q 109.71583 215.71533 110.395996 216.51855 Q 111.076164 217.32178 111.076164 218.71631 Q 111.076164 220.08348 110.259285 221.19777 Q 109.44238 222.31201 108.20508 222.31201 Q 107.822266 222.31201 107.54199 222.21631 Q 107.10449 222.07275 106.73535 221.68994 L 106.73535 223.9253 Q 106.73535 224.61574 106.96094 224.77295 Q 107.18652 224.93018 107.945305 224.98486 L 107.945305 225.22414 L 104.56152 225.22414 L 104.56152 224.99855 Z M 115.67335 212.83397 Q 115.67675 212.85107 115.67675 212.9126 L 115.67675 221.14307 Q 115.67675 221.66943 115.95703 221.81299 Q 116.237305 221.95654 117.00293 221.98389 L 117.00293 222.1753 L 113.14746 222.1753 L 113.14746 221.9702 Q 113.97461 221.9292 114.22754 221.74461 Q 114.48047 221.56006 114.48047 220.94481 L 114.48047 214.61475 Q 114.48047 214.28662 114.39843 214.11572 Q 114.316414 213.94484 114.04297 213.94484 Q 113.865234 213.94484 113.58155 214.04396 Q 113.29785 214.14305 113.05176 214.25244 L 113.05176 214.06104 L 115.56055 212.78271 L 115.642586 212.78271 Q 115.66992 212.8169 115.67335 212.83397 Z M 121.43262 223.3169 Q 120.93359 223.91164 120.359375 224.17137 L 120.22949 223.89795 Q 120.88574 223.52882 121.135254 223.09814 Q 121.384766 222.6675 121.384766 222.38039 Q 121.384766 222.28468 121.32324 222.25731 Q 121.26172 222.22998 121.19336 222.22998 L 120.73535 222.27783 Q 120.44824 222.27783 120.208984 222.08984 Q 119.969734 221.90187 119.969734 221.54639 Q 119.969734 221.27295 120.16797 221.01318 Q 120.36621 220.7534 120.81739 220.7534 Q 121.248055 220.7534 121.58984 221.0918 Q 121.93164 221.43018 121.93164 222.03172 Q 121.93164 222.72217 121.43262 223.3169 Z M 128.26514 221.61133 Q 128.61719 221.84032 129.0957 221.84032 Q 129.83398 221.84032 130.35693 221.10545 Q 130.87988 220.37059 130.87988 219.05812 Q 130.87988 217.8003 130.33643 217.1782 Q 129.79297 216.55615 129.0752 216.55615 Q 128.56934 216.55615 128.15234 216.86719 Q 127.735344 217.1782 127.735344 217.479 L 127.735344 220.91748 Q 127.913086 221.38232 128.26514 221.61133 Z M 125.56153 224.99855 Q 126.2041 224.95752 126.37841 224.7251 Q 126.55273 224.49266 126.55273 223.99365 L 126.55273 217.43114 Q 126.55273 216.91162 126.42626 216.76465 Q 126.299805 216.61768 125.95117 216.61768 Q 125.87598 216.61768 125.811035 216.62451 Q 125.74609 216.63136 125.62305 216.65186 L 125.62305 216.42627 L 126.27246 216.21437 Q 126.30664 216.20752 127.646484 215.74268 Q 127.680664 215.74268 127.697754 215.77342 Q 127.71484 215.80418 127.71484 215.84521 L 127.71484 216.76807 Q 128.16602 216.3169 128.50781 216.09814 Q 129.12305 215.71533 129.77246 215.71533 Q 130.71582 215.71533 131.396 216.51855 Q 132.07617 217.32178 132.07617 218.71631 Q 132.07617 220.08348 131.25928 221.19777 Q 130.44238 222.31201 129.20508 222.31201 Q 128.82227 222.31201 128.54199 222.21631 Q 128.10449 222.07275 127.735344 221.68994 L 127.735344 223.9253 Q 127.735344 224.61574 127.96094 224.77295 Q 128.18652 224.93018 128.94531 224.98486 L 128.94531 225.22414 L 125.56153 225.22414 L 125.56153 224.99855 Z M 134.58154 221.37549 Q 135.2002 221.76514 135.63086 221.76514 Q 136.58789 221.76514 137.05273 221.11914 Q 137.51758 220.47314 137.51758 219.71436 Q 137.51758 218.98291 137.1416 218.4292 Q 136.50586 217.49269 134.99512 217.49269 Q 134.90625 217.49269 134.82422 217.49608 Q 134.74219 217.49951 134.63281 217.51318 L 134.61914 217.33543 Q 135.71289 216.93896 136.3418 216.42627 Q 136.9707 215.91357 136.9707 215.07275 Q 136.9707 214.32764 136.4751 213.93799 Q 135.97949 213.54834 135.34375 213.54834 Q 134.5918 213.54834 134.01758 214.10205 Q 133.70313 214.40283 133.34082 215.03175 L 133.1289 214.98389 Q 133.40234 213.94484 134.14746 213.32275 Q 134.89258 212.7007 135.87012 212.7007 Q 136.91602 212.7007 137.48682 213.27492 Q 138.05762 213.84914 138.05762 214.60107 Q 138.05762 215.26416 137.58594 215.81787 Q 137.31934 216.13232 136.75879 216.52197 Q 137.41504 216.80225 137.81152 217.1782 Q 138.55664 217.896 138.55664 218.99657 Q 138.55664 220.29541 137.53467 221.28662 Q 136.5127 222.27783 134.62598 222.27783 Q 133.78516 222.27783 133.44678 222.02834 Q 133.1084 221.7788 133.1084 221.49168 Q 133.1084 221.31396 133.22119 221.1499 Q 133.33398 220.98584 133.58691 220.98584 Q 133.96289 220.98584 134.58154 221.37549 Z M 145.34473 218.93504 Q 144.5039 219.09227 144.10742 219.31786 Q 143.41699 219.72119 143.41699 220.50732 L 143.40332 222.6128 Q 143.40332 223.72023 142.58301 224.19531 Q 141.7627 224.67041 140.36816 224.67041 L 140.36816 224.36281 Q 141.22949 224.1919 141.61914 223.95264 Q 142.3164 223.52882 142.3164 222.68115 L 142.33008 220.7534 Q 142.33008 219.82375 142.99316 219.33154 Q 143.65625 218.83934 144.9414 218.72998 L 144.9414 218.6958 Q 143.45801 218.40186 143.02051 218.10791 Q 142.33008 217.64307 142.33008 216.49463 L 142.33008 214.81982 Q 142.33008 213.84229 141.5166 213.37062 Q 141.0586 213.104 140.36816 213.02199 L 140.36816 212.71436 Q 142.125 212.71436 142.76416 213.2783 Q 143.40332 213.84229 143.40332 214.79248 L 143.41699 216.67236 Q 143.41699 217.66357 144.13477 218.09424 Q 144.54492 218.34717 145.34473 218.43604 L 145.34473 218.93504 Z"/>
    </g>
    <g>
        <path fill="#000000" stroke="none" d="M 60.148438 336.43604 Q 60.975586 336.34717 61.413086 336.0669 Q 62.083004 335.6294 62.083004 334.67236 L 62.09668 332.79248 Q 62.09668 331.52783 63.08789 331.06982 Q 63.66211 330.80322 65.125 330.71436 L 65.125 331.02197 Q 64.38672 331.104 63.774906 331.5039 Q 63.163086 331.9038 63.163086 332.81982 L 63.163086 334.49463 Q 63.163086 335.5747 62.643555 335.97803 Q 62.124023 336.38135 60.797848 336.64795 L 60.558594 336.6958 L 60.558594 336.72998 Q 61.95996 336.83936 62.554684 337.36572 Q 63.149414 337.8921 63.163086 338.75342 L 63.183594 340.68115 Q 63.19043 341.5288 63.874023 341.95264 Q 64.26367 342.1919 65.125 342.3628 L 65.125 342.6704 Q 63.75098 342.6704 62.92383 342.19873 Q 62.09668 341.72705 62.09668 340.6128 L 62.083004 338.50732 Q 62.083004 337.71436 61.372066 337.31104 Q 60.96875 337.08545 60.148438 336.93506 L 60.148438 336.43604 Z M 68.76514 339.61133 Q 69.11719 339.84033 69.5957 339.84033 Q 70.333984 339.84033 70.85693 339.10547 Q 71.37988 338.3706 71.37988 337.0581 Q 71.37988 335.8003 70.836426 335.17822 Q 70.29297 334.55615 69.575195 334.55615 Q 69.069336 334.55615 68.65234 334.8672 Q 68.23535 335.17822 68.23535 335.479 L 68.23535 338.91748 Q 68.413086 339.38232 68.76514 339.61133 Z M 66.06152 342.99854 Q 66.7041 342.95752 66.87842 342.7251 Q 67.052734 342.49268 67.052734 341.99365 L 67.052734 335.43115 Q 67.052734 334.91162 66.92627 334.76465 Q 66.799805 334.61768 66.45117 334.61768 Q 66.37598 334.61768 66.311035 334.6245 Q 66.24609 334.63135 66.12305 334.65186 L 66.12305 334.42627 L 66.77246 334.21436 Q 66.80664 334.20752 68.146484 333.74268 Q 68.180664 333.74268 68.197754 333.77344 Q 68.21484 333.8042 68.21484 333.8452 L 68.21484 334.76807 Q 68.666016 334.3169 69.00781 334.09814 Q 69.62305 333.71533 70.27246 333.71533 Q 71.21582 333.71533 71.895996 334.51855 Q 72.57617 335.32178 72.57617 336.7163 Q 72.57617 338.0835 71.75928 339.19775 Q 70.94238 340.312 69.70508 340.312 Q 69.322266 340.312 69.04199 340.2163 Q 68.60449 340.07275 68.23535 339.68994 L 68.23535 341.9253 Q 68.23535 342.61572 68.46094 342.77295 Q 68.68652 342.93018 69.44531 342.98486 L 69.44531 343.22412 L 66.06152 343.22412 L 66.06152 342.99854 Z M 77.73047 338.82178 Q 78.106445 337.7212 78.106445 335.63623 Q 78.106445 333.9751 77.88086 332.9839 Q 77.45703 331.13818 76.29492 331.13818 Q 75.13281 331.13818 74.70215 333.03857 Q 74.47656 334.0503 74.47656 335.7046 Q 74.47656 337.25635 74.708984 338.18604 Q 75.146484 339.92236 76.34961 339.92236 Q 77.35449 339.92236 77.73047 338.82178 Z M 78.76953 332.4165 Q 79.45996 333.7495 79.45996 335.479 Q 79.45996 336.83936 79.03613 338.04248 Q 78.23633 340.30518 76.26758 340.30518 Q 74.9209 340.30518 74.052734 339.08154 Q 73.12305 337.77588 73.12305 335.5337 Q 73.12305 333.77002 73.74512 332.49854 Q 74.58594 330.76904 76.3291 330.76904 Q 77.90137 330.76904 78.76953 332.4165 Z M 82.93262 341.3169 Q 82.43359 341.91162 81.859375 342.1714 L 81.72949 341.89795 Q 82.38574 341.5288 82.635254 341.09814 Q 82.884766 340.66748 82.884766 340.38037 Q 82.884766 340.28467 82.82324 340.25732 Q 82.76172 340.22998 82.69336 340.22998 L 82.23535 340.27783 Q 81.94824 340.27783 81.708984 340.08984 Q 81.46973 339.90186 81.46973 339.5464 Q 81.46973 339.27295 81.66797 339.01318 Q 81.86621 338.75342 82.31738 338.75342 Q 82.74805 338.75342 83.08984 339.0918 Q 83.43164 339.43018 83.43164 340.03174 Q 83.43164 340.72217 82.93262 341.3169 Z M 89.76514 339.61133 Q 90.117195 339.84033 90.5957 339.84033 Q 91.33398 339.84033 91.85693 339.10547 Q 92.37988 338.3706 92.37988 337.0581 Q 92.37988 335.8003 91.836426 335.17822 Q 91.29297 334.55615 90.575195 334.55615 Q 90.06934 334.55615 89.65234 334.8672 Q 89.23535 335.17822 89.23535 335.479 L 89.23535 338.91748 Q 89.413086 339.38232 89.76514 339.61133 Z M 87.06152 342.99854 Q 87.7041 342.95752 87.87842 342.7251 Q 88.052734 342.49268 88.052734 341.99365 L 88.052734 335.43115 Q 88.052734 334.91162 87.92627 334.76465 Q 87.799805 334.61768 87.45118 334.61768 Q 87.37598 334.61768 87.311035 334.6245 Q 87.24609 334.63135 87.12305 334.65186 L 87.12305 334.42627 L 87.77245 334.21436 Q 87.80664 334.20752 89.146484 333.74268 Q 89.180664 333.74268 89.197754 333.77344 Q 89.21484 333.8042 89.21484 333.8452 L 89.21484 334.76807 Q 89.666016 334.3169 90.007805 334.09814 Q 90.62305 333.71533 91.27246 333.71533 Q 92.21582 333.71533 92.896 334.51855 Q 93.57617 335.32178 93.57617 336.7163 Q 93.57617 338.0835 92.75928 339.19775 Q 91.94238 340.312 90.70508 340.312 Q 90.322266 340.312 90.04199 340.2163 Q 89.60449 340.07275 89.23535 339.68994 L 89.23535 341.9253 Q 89.23535 342.61572 89.46094 342.77295 Q 89.68653 342.93018 90.44531 342.98486 L 90.44531 343.22412 L 87.06152 343.22412 L 87.06152 342.99854 Z M 98.17334 330.83398 Q 98.17676 330.85107 98.17676 330.9126 L 98.17676 339.14307 Q 98.17676 339.66943 98.45702 339.813 Q 98.737305 339.95654 99.50293 339.9839 L 99.50293 340.1753 L 95.64746 340.1753 L 95.64746 339.9702 Q 96.47462 339.9292 96.72754 339.74463 Q 96.98047 339.56006 96.98047 338.94482 L 96.98047 332.61475 Q 96.98047 332.28662 96.89844 332.11572 Q 96.81641 331.94482 96.54297 331.94482 Q 96.36523 331.94482 96.08154 332.04395 Q 95.79785 332.14307 95.55176 332.25244 L 95.55176 332.06104 L 98.06055 330.7827 L 98.14258 330.7827 Q 98.169914 330.8169 98.17334 330.83398 Z M 103.93262 341.3169 Q 103.43359 341.91162 102.859375 342.1714 L 102.72949 341.89795 Q 103.38574 341.5288 103.635254 341.09814 Q 103.884766 340.66748 103.884766 340.38037 Q 103.884766 340.28467 103.823235 340.25732 Q 103.76172 340.22998 103.69337 340.22998 L 103.23535 340.27783 Q 102.94824 340.27783 102.708984 340.08984 Q 102.46973 339.90186 102.46973 339.5464 Q 102.46973 339.27295 102.66797 339.01318 Q 102.8662 338.75342 103.31738 338.75342 Q 103.74805 338.75342 104.08984 339.0918 Q 104.43163 339.43018 104.43163 340.03174 Q 104.43163 340.72217 103.93262 341.3169 Z M 110.76514 339.61133 Q 111.11719 339.84033 111.5957 339.84033 Q 112.333984 339.84033 112.85693 339.10547 Q 113.37988 338.3706 113.37988 337.0581 Q 113.37988 335.8003 112.836426 335.17822 Q 112.29297 334.55615 111.575195 334.55615 Q 111.069336 334.55615 110.65234 334.8672 Q 110.23535 335.17822 110.23535 335.479 L 110.23535 338.91748 Q 110.413086 339.38232 110.76514 339.61133 Z M 108.06152 342.99854 Q 108.7041 342.95752 108.87842 342.7251 Q 109.052734 342.49268 109.052734 341.99365 L 109.052734 335.43115 Q 109.052734 334.91162 108.92627 334.76465 Q 108.799805 334.61768 108.45117 334.61768 Q 108.37597 334.61768 108.31104 334.6245 Q 108.2461 334.63135 108.12305 334.65186 L 108.12305 334.42627 L 108.77246 334.21436 Q 108.80663 334.20752 110.14649 333.74268 Q 110.18066 333.74268 110.19775 333.77344 Q 110.21484 333.8042 110.21484 333.8452 L 110.21484 334.76807 Q 110.666016 334.3169 111.00781 334.09814 Q 111.62305 333.71533 112.27247 333.71533 Q 113.21581 333.71533 113.895996 334.51855 Q 114.57617 335.32178 114.57617 336.7163 Q 114.57617 338.0835 113.75927 339.19775 Q 112.94239 340.312 111.70508 340.312 Q 111.322266 340.312 111.042 340.2163 Q 110.60449 340.07275 110.23535 339.68994 L 110.23535 341.9253 Q 110.23535 342.61572 110.46094 342.77295 Q 110.68652 342.93018 111.44531 342.98486 L 111.44531 343.22412 L 108.06152 343.22412 L 108.06152 342.99854 Z M 117.081535 339.3755 Q 117.700195 339.76514 118.13086 339.76514 Q 119.08789 339.76514 119.552734 339.11914 Q 120.017586 338.47314 120.017586 337.71436 Q 120.017586 336.9829 119.6416 336.4292 Q 119.00586 335.49268 117.495125 335.49268 Q 117.40625 335.49268 117.32422 335.4961 Q 117.24218 335.4995 117.13281 335.51318 L 117.11914 335.33545 Q 118.2129 334.93896 118.8418 334.42627 Q 119.4707 333.91357 119.4707 333.07275 Q 119.4707 332.32764 118.9751 331.938 Q 118.47949 331.54834 117.84375 331.54834 Q 117.0918 331.54834 116.51758 332.10205 Q 116.20312 332.40283 115.84082 333.03174 L 115.6289 332.9839 Q 115.90234 331.94482 116.64747 331.32275 Q 117.39258 330.70068 118.37012 330.70068 Q 119.416016 330.70068 119.986824 331.2749 Q 120.55762 331.84912 120.55762 332.60107 Q 120.55762 333.26416 120.08594 333.81787 Q 119.819336 334.13232 119.25879 334.52197 Q 119.91504 334.80225 120.31152 335.17822 Q 121.05665 335.896 121.05665 336.99658 Q 121.05665 338.2954 120.034676 339.28662 Q 119.0127 340.27783 117.12598 340.27783 Q 116.28516 340.27783 115.94677 340.02832 Q 115.6084 339.7788 115.6084 339.4917 Q 115.6084 339.31396 115.7212 339.1499 Q 115.83399 338.98584 116.086914 338.98584 Q 116.46289 338.98584 117.081535 339.3755 Z M 127.844734 336.93506 Q 127.00391 337.0923 126.60742 337.31787 Q 125.91699 337.7212 125.91699 338.50732 L 125.90332 340.6128 Q 125.90332 341.7202 125.083 342.1953 Q 124.262695 342.6704 122.868164 342.6704 L 122.868164 342.3628 Q 123.72949 342.1919 124.11914 341.95264 Q 124.81641 341.5288 124.81641 340.68115 L 124.83008 338.75342 Q 124.83008 337.82373 125.493164 337.33154 Q 126.15625 336.83936 127.44141 336.72998 L 127.44141 336.6958 Q 125.95801 336.40186 125.52051 336.1079 Q 124.83008 335.64307 124.83008 334.49463 L 124.83008 332.81982 Q 124.83008 331.8423 124.0166 331.3706 Q 123.55859 331.104 122.868164 331.02197 L 122.868164 330.71436 Q 124.625 330.71436 125.26416 331.27832 Q 125.90332 331.8423 125.90332 332.79248 L 125.91699 334.67236 Q 125.91699 335.66357 126.634766 336.09424 Q 127.04492 336.34717 127.844734 336.43604 L 127.844734 336.93506 Z"/>
    </g>
    <g>
        <path fill="#000000" stroke="none" d="M 98.64843 454.43604 Q 99.475586 454.34717 99.913086 454.06693 Q 100.58301 453.62936 100.58301 452.67236 L 100.59669 450.79248 Q 100.59669 449.52786 101.58788 449.06982 Q 102.1621 448.80322 103.625 448.71436 L 103.625 449.022 Q 102.88672 449.104 102.274895 449.50388 Q 101.663086 449.9038 101.663086 450.81982 L 101.663086 452.49463 Q 101.663086 453.5747 101.143555 453.97803 Q 100.62402 454.38138 99.29785 454.64792 L 99.05859 454.6958 L 99.05859 454.72998 Q 100.45996 454.83932 101.05469 455.36572 Q 101.64942 455.8921 101.663086 456.7534 L 101.683586 458.68115 Q 101.69043 459.5288 102.37402 459.9526 Q 102.76367 460.1919 103.625 460.3628 L 103.625 460.6704 Q 102.25098 460.6704 101.42383 460.19876 Q 100.59669 459.72705 100.59669 458.61276 L 100.58301 456.50732 Q 100.58301 455.71436 99.87207 455.31104 Q 99.46875 455.08548 98.64843 454.93506 L 98.64843 454.43604 Z M 107.26514 457.61136 Q 107.61719 457.8403 108.0957 457.8403 Q 108.833984 457.8403 109.35693 457.10544 Q 109.87988 456.37057 109.87988 455.0581 Q 109.87988 453.8003 109.336426 453.1782 Q 108.79297 452.55615 108.075195 452.55615 Q 107.569336 452.55615 107.15234 452.8672 Q 106.73535 453.1782 106.73535 453.479 L 106.73535 456.91748 Q 106.913086 457.38232 107.26514 457.61136 Z M 104.56152 460.99854 Q 105.2041 460.95752 105.37842 460.7251 Q 105.552734 460.49268 105.552734 459.99365 L 105.552734 453.43112 Q 105.552734 452.91165 105.42627 452.76462 Q 105.299805 452.61768 104.95117 452.61768 Q 104.875984 452.61768 104.811035 452.6245 Q 104.74609 452.63135 104.62304 452.65186 L 104.62304 452.42627 L 105.27246 452.2144 Q 105.30665 452.20752 106.646484 451.74268 Q 106.68067 451.74268 106.69776 451.77344 Q 106.714836 451.8042 106.714836 451.8452 L 106.714836 452.76807 Q 107.166016 452.3169 107.50781 452.09814 Q 108.12305 451.71533 108.77246 451.71533 Q 109.71583 451.71533 110.395996 452.51855 Q 111.076164 453.32178 111.076164 454.71628 Q 111.076164 456.0835 110.259285 457.19778 Q 109.44238 458.312 108.20508 458.312 Q 107.822266 458.312 107.54199 458.21634 Q 107.10449 458.07275 106.73535 457.68994 L 106.73535 459.9253 Q 106.73535 460.61572 106.96094 460.77298 Q 107.18652 460.93018 107.945305 460.98486 L 107.945305 461.22415 L 104.56152 461.22415 L 104.56152 460.99854 Z M 113.58155 457.3755 Q 114.200195 457.76514 114.63086 457.76514 Q 115.58789 457.76514 116.052734 457.11914 Q 116.51758 456.47314 116.51758 455.71436 Q 116.51758 454.9829 116.1416 454.4292 Q 115.50586 453.4927 113.99512 453.4927 Q 113.90625 453.4927 113.82422 453.4961 Q 113.74218 453.49948 113.63281 453.51318 L 113.61914 453.33545 Q 114.71289 452.93896 115.3418 452.42627 Q 115.9707 451.91357 115.9707 451.07272 Q 115.9707 450.32764 115.4751 449.938 Q 114.97949 449.54834 114.34375 449.54834 Q 113.5918 449.54834 113.01758 450.10208 Q 112.70313 450.40283 112.34082 451.03174 L 112.128914 450.9839 Q 112.402336 449.94482 113.14746 449.32275 Q 113.89258 448.7007 114.87012 448.7007 Q 115.91601 448.7007 116.48682 449.27493 Q 117.05762 449.84915 117.05762 450.60107 Q 117.05762 451.26413 116.58593 451.81787 Q 116.319336 452.13232 115.75879 452.52197 Q 116.41504 452.80225 116.81152 453.1782 Q 117.55664 453.896 117.55664 454.99658 Q 117.55664 456.2954 116.53467 457.28662 Q 115.512695 458.27783 113.62598 458.27783 Q 112.78515 458.27783 112.446785 458.02832 Q 112.1084 457.77878 112.1084 457.4917 Q 112.1084 457.31396 112.22119 457.1499 Q 112.333984 456.98584 112.586914 456.98584 Q 112.96289 456.98584 113.58155 457.3755 Z M 121.43262 459.3169 Q 120.93359 459.91162 120.359375 460.1714 L 120.22949 459.89795 Q 120.88574 459.5288 121.135254 459.09814 Q 121.384766 458.6675 121.384766 458.38037 Q 121.384766 458.2847 121.32324 458.25732 Q 121.26172 458.22995 121.19336 458.22995 L 120.73535 458.27783 Q 120.44824 458.27783 120.208984 458.08984 Q 119.969734 457.9019 119.969734 457.5464 Q 119.969734 457.27295 120.16797 457.01315 Q 120.36621 456.7534 120.81739 456.7534 Q 121.248055 456.7534 121.58984 457.0918 Q 121.93164 457.43018 121.93164 458.0317 Q 121.93164 458.72217 121.43262 459.3169 Z M 128.26514 457.61136 Q 128.61719 457.8403 129.0957 457.8403 Q 129.83398 457.8403 130.35693 457.10544 Q 130.87988 456.37057 130.87988 455.0581 Q 130.87988 453.8003 130.33643 453.1782 Q 129.79297 452.55615 129.0752 452.55615 Q 128.56934 452.55615 128.15234 452.8672 Q 127.735344 453.1782 127.735344 453.479 L 127.735344 456.91748 Q 127.913086 457.38232 128.26514 457.61136 Z M 125.56153 460.99854 Q 126.2041 460.95752 126.37841 460.7251 Q 126.55273 460.49268 126.55273 459.99365 L 126.55273 453.43112 Q 126.55273 452.91165 126.42626 452.76462 Q 126.299805 452.61768 125.95117 452.61768 Q 125.87598 452.61768 125.811035 452.6245 Q 125.74609 452.63135 125.62305 452.65186 L 125.62305 452.42627 L 126.27246 452.2144 Q 126.30664 452.20752 127.646484 451.74268 Q 127.680664 451.74268 127.697754 451.77344 Q 127.71484 451.8042 127.71484 451.8452 L 127.71484 452.76807 Q 128.16602 452.3169 128.50781 452.09814 Q 129.12305 451.71533 129.77246 451.71533 Q 130.71582 451.71533 131.396 452.51855 Q 132.07617 453.32178 132.07617 454.71628 Q 132.07617 456.0835 131.25928 457.19778 Q 130.44238 458.312 129.20508 458.312 Q 128.82227 458.312 128.54199 458.21634 Q 128.10449 458.07275 127.735344 457.68994 L 127.735344 459.9253 Q 127.735344 460.61572 127.96094 460.77298 Q 128.18652 460.93018 128.94531 460.98486 L 128.94531 461.22415 L 125.56153 461.22415 L 125.56153 460.99854 Z M 132.91699 458.01807 Q 135.41895 455.4204 136.31445 454.20358 Q 137.20996 452.9868 137.20996 451.83157 Q 137.20996 450.81982 136.66309 450.29004 Q 136.11621 449.76025 135.35742 449.76025 Q 134.4209 449.76025 133.83984 450.44385 Q 133.51855 450.81982 133.22461 451.59912 L 132.93066 451.5376 Q 133.27246 449.96533 134.08936 449.35352 Q 134.90625 448.7417 135.84277 448.7417 Q 136.99805 448.7417 137.7124 449.46973 Q 138.42676 450.19775 138.42676 451.25052 Q 138.42676 452.37158 137.6543 453.41064 Q 136.88184 454.44974 134.29785 457.1089 L 137.43555 457.1089 Q 138.0918 457.1089 138.3584 456.95163 Q 138.625 456.79443 138.95996 456.186 L 139.1377 456.26807 L 138.3789 458.1753 L 132.91699 458.1753 L 132.91699 458.01807 Z M 145.34473 454.93506 Q 144.5039 455.09225 144.10742 455.31787 Q 143.41699 455.7212 143.41699 456.50732 L 143.40332 458.61276 Q 143.40332 459.7202 142.58301 460.1953 Q 141.7627 460.6704 140.36816 460.6704 L 140.36816 460.3628 Q 141.22949 460.1919 141.61914 459.9526 Q 142.3164 459.5288 142.3164 458.68115 L 142.33008 456.7534 Q 142.33008 455.82373 142.99316 455.33154 Q 143.65625 454.83932 144.9414 454.72998 L 144.9414 454.6958 Q 143.45801 454.40186 143.02051 454.1079 Q 142.33008 453.64307 142.33008 452.49463 L 142.33008 450.81982 Q 142.33008 449.8423 141.5166 449.3706 Q 141.0586 449.104 140.36816 449.022 L 140.36816 448.71436 Q 142.125 448.71436 142.76416 449.27832 Q 143.40332 449.8423 143.40332 450.79248 L 143.41699 452.67236 Q 143.41699 453.66357 144.13477 454.09424 Q 144.54492 454.34717 145.34473 454.43604 L 145.34473 454.93506 Z"/>
    </g>
    <g>
        <path fill="#000000" stroke="none" d="M 60.148438 572.43604 Q 60.975586 572.34717 61.413086 572.0669 Q 62.083004 571.6294 62.083004 570.67236 L 62.09668 568.7925 Q 62.09668 567.52783 63.08789 567.0698 Q 63.66211 566.8032 65.125 566.71436 L 65.125 567.022 Q 64.38672 567.104 63.774906 567.5039 Q 63.163086 567.9038 63.163086 568.8198 L 63.163086 570.4946 Q 63.163086 571.5747 62.643555 571.978 Q 62.124023 572.38135 60.797848 572.64795 L 60.558594 572.6958 L 60.558594 572.73 Q 61.95996 572.83936 62.554684 573.3657 Q 63.149414 573.8921 63.163086 574.7534 L 63.183594 576.68115 Q 63.19043 577.5288 63.874023 577.95264 Q 64.26367 578.1919 65.125 578.3628 L 65.125 578.6704 Q 63.75098 578.6704 62.92383 578.1987 Q 62.09668 577.72705 62.09668 576.6128 L 62.083004 574.5073 Q 62.083004 573.71436 61.372066 573.31104 Q 60.96875 573.08545 60.148438 572.93506 L 60.148438 572.43604 Z M 68.76514 575.6113 Q 69.11719 575.84033 69.5957 575.84033 Q 70.333984 575.84033 70.85693 575.10547 Q 71.37988 574.3706 71.37988 573.0581 Q 71.37988 571.8003 70.836426 571.1782 Q 70.29297 570.55615 69.575195 570.55615 Q 69.069336 570.55615 68.65234 570.8672 Q 68.23535 571.1782 68.23535 571.479 L 68.23535 574.9175 Q 68.413086 575.3823 68.76514 575.6113 Z M 66.06152 578.99854 Q 66.7041 578.9575 66.87842 578.7251 Q 67.052734 578.4927 67.052734 577.99365 L 67.052734 571.43115 Q 67.052734 570.9116 66.92627 570.76465 Q 66.799805 570.6177 66.45117 570.6177 Q 66.37598 570.6177 66.311035 570.6245 Q 66.24609 570.63135 66.12305 570.65186 L 66.12305 570.4263 L 66.77246 570.21436 Q 66.80664 570.2075 68.146484 569.7427 Q 68.180664 569.7427 68.197754 569.77344 Q 68.21484 569.8042 68.21484 569.8452 L 68.21484 570.76807 Q 68.666016 570.3169 69.00781 570.09814 Q 69.62305 569.71533 70.27246 569.71533 Q 71.21582 569.71533 71.895996 570.51855 Q 72.57617 571.3218 72.57617 572.7163 Q 72.57617 574.0835 71.75928 575.19775 Q 70.94238 576.312 69.70508 576.312 Q 69.322266 576.312 69.04199 576.2163 Q 68.60449 576.07275 68.23535 575.68994 L 68.23535 577.9253 Q 68.23535 578.6157 68.46094 578.77295 Q 68.68652 578.9302 69.44531 578.98486 L 69.44531 579.2241 L 66.06152 579.2241 L 66.06152 578.99854 Z M 77.73047 574.8218 Q 78.106445 573.7212 78.106445 571.6362 Q 78.106445 569.9751 77.88086 568.9839 Q 77.45703 567.1382 76.29492 567.1382 Q 75.13281 567.1382 74.70215 569.0386 Q 74.47656 570.0503 74.47656 571.7046 Q 74.47656 573.25635 74.708984 574.18604 Q 75.146484 575.92236 76.34961 575.92236 Q 77.35449 575.92236 77.73047 574.8218 Z M 78.76953 568.4165 Q 79.45996 569.7495 79.45996 571.479 Q 79.45996 572.83936 79.03613 574.0425 Q 78.23633 576.3052 76.26758 576.3052 Q 74.9209 576.3052 74.052734 575.08154 Q 73.12305 573.7759 73.12305 571.5337 Q 73.12305 569.77 73.74512 568.49854 Q 74.58594 566.76904 76.3291 566.76904 Q 77.90137 566.76904 78.76953 568.4165 Z M 82.93262 577.3169 Q 82.43359 577.9116 81.859375 578.1714 L 81.72949 577.89795 Q 82.38574 577.5288 82.635254 577.09814 Q 82.884766 576.6675 82.884766 576.3804 Q 82.884766 576.28467 82.82324 576.2573 Q 82.76172 576.23 82.69336 576.23 L 82.23535 576.27783 Q 81.94824 576.27783 81.708984 576.08984 Q 81.46973 575.90186 81.46973 575.5464 Q 81.46973 575.27295 81.66797 575.0132 Q 81.86621 574.7534 82.31738 574.7534 Q 82.74805 574.7534 83.08984 575.0918 Q 83.43164 575.4302 83.43164 576.03174 Q 83.43164 576.72217 82.93262 577.3169 Z M 89.76514 575.6113 Q 90.117195 575.84033 90.5957 575.84033 Q 91.33398 575.84033 91.85693 575.10547 Q 92.37988 574.3706 92.37988 573.0581 Q 92.37988 571.8003 91.836426 571.1782 Q 91.29297 570.55615 90.575195 570.55615 Q 90.06934 570.55615 89.65234 570.8672 Q 89.23535 571.1782 89.23535 571.479 L 89.23535 574.9175 Q 89.413086 575.3823 89.76514 575.6113 Z M 87.06152 578.99854 Q 87.7041 578.9575 87.87842 578.7251 Q 88.052734 578.4927 88.052734 577.99365 L 88.052734 571.43115 Q 88.052734 570.9116 87.92627 570.76465 Q 87.799805 570.6177 87.45118 570.6177 Q 87.37598 570.6177 87.311035 570.6245 Q 87.24609 570.63135 87.12305 570.65186 L 87.12305 570.4263 L 87.77245 570.21436 Q 87.80664 570.2075 89.146484 569.7427 Q 89.180664 569.7427 89.197754 569.77344 Q 89.21484 569.8042 89.21484 569.8452 L 89.21484 570.76807 Q 89.666016 570.3169 90.007805 570.09814 Q 90.62305 569.71533 91.27246 569.71533 Q 92.21582 569.71533 92.896 570.51855 Q 93.57617 571.3218 93.57617 572.7163 Q 93.57617 574.0835 92.75928 575.19775 Q 91.94238 576.312 90.70508 576.312 Q 90.322266 576.312 90.04199 576.2163 Q 89.60449 576.07275 89.23535 575.68994 L 89.23535 577.9253 Q 89.23535 578.6157 89.46094 578.77295 Q 89.68653 578.9302 90.44531 578.98486 L 90.44531 579.2241 L 87.06152 579.2241 L 87.06152 578.99854 Z M 98.17334 566.834 Q 98.17676 566.8511 98.17676 566.9126 L 98.17676 575.14307 Q 98.17676 575.66943 98.45702 575.813 Q 98.737305 575.95654 99.50293 575.9839 L 99.50293 576.1753 L 95.64746 576.1753 L 95.64746 575.9702 Q 96.47462 575.9292 96.72754 575.7446 Q 96.98047 575.56006 96.98047 574.9448 L 96.98047 568.61475 Q 96.98047 568.2866 96.89844 568.1157 Q 96.81641 567.9448 96.54297 567.9448 Q 96.36523 567.9448 96.08154 568.04395 Q 95.79785 568.14307 95.55176 568.25244 L 95.55176 568.06104 L 98.06055 566.7827 L 98.14258 566.7827 Q 98.169914 566.8169 98.17334 566.834 Z M 103.93262 577.3169 Q 103.43359 577.9116 102.859375 578.1714 L 102.72949 577.89795 Q 103.38574 577.5288 103.635254 577.09814 Q 103.884766 576.6675 103.884766 576.3804 Q 103.884766 576.28467 103.823235 576.2573 Q 103.76172 576.23 103.69337 576.23 L 103.23535 576.27783 Q 102.94824 576.27783 102.708984 576.08984 Q 102.46973 575.90186 102.46973 575.5464 Q 102.46973 575.27295 102.66797 575.0132 Q 102.8662 574.7534 103.31738 574.7534 Q 103.74805 574.7534 104.08984 575.0918 Q 104.43163 575.4302 104.43163 576.03174 Q 104.43163 576.72217 103.93262 577.3169 Z M 110.76514 575.6113 Q 111.11719 575.84033 111.5957 575.84033 Q 112.333984 575.84033 112.85693 575.10547 Q 113.37988 574.3706 113.37988 573.0581 Q 113.37988 571.8003 112.836426 571.1782 Q 112.29297 570.55615 111.575195 570.55615 Q 111.069336 570.55615 110.65234 570.8672 Q 110.23535 571.1782 110.23535 571.479 L 110.23535 574.9175 Q 110.413086 575.3823 110.76514 575.6113 Z M 108.06152 578.99854 Q 108.7041 578.9575 108.87842 578.7251 Q 109.052734 578.4927 109.052734 577.99365 L 109.052734 571.43115 Q 109.052734 570.9116 108.92627 570.76465 Q 108.799805 570.6177 108.45117 570.6177 Q 108.37597 570.6177 108.31104 570.6245 Q 108.2461 570.63135 108.12305 570.65186 L 108.12305 570.4263 L 108.77246 570.21436 Q 108.80663 570.2075 110.14649 569.7427 Q 110.18066 569.7427 110.19775 569.77344 Q 110.21484 569.8042 110.21484 569.8452 L 110.21484 570.76807 Q 110.666016 570.3169 111.00781 570.09814 Q 111.62305 569.71533 112.27247 569.71533 Q 113.21581 569.71533 113.895996 570.51855 Q 114.57617 571.3218 114.57617 572.7163 Q 114.57617 574.0835 113.75927 575.19775 Q 112.94239 576.312 111.70508 576.312 Q 111.322266 576.312 111.042 576.2163 Q 110.60449 576.07275 110.23535 575.68994 L 110.23535 577.9253 Q 110.23535 578.6157 110.46094 578.77295 Q 110.68652 578.9302 111.44531 578.98486 L 111.44531 579.2241 L 108.06152 579.2241 L 108.06152 578.99854 Z M 117.081535 575.3755 Q 117.700195 575.76514 118.13086 575.76514 Q 119.08789 575.76514 119.552734 575.11914 Q 120.017586 574.47314 120.017586 573.71436 Q 120.017586 572.9829 119.6416 572.4292 Q 119.00586 571.4927 117.495125 571.4927 Q 117.40625 571.4927 117.32422 571.4961 Q 117.24218 571.4995 117.13281 571.5132 L 117.11914 571.33545 Q 118.2129 570.93896 118.8418 570.4263 Q 119.4707 569.9136 119.4707 569.07275 Q 119.4707 568.32764 118.9751 567.938 Q 118.47949 567.54834 117.84375 567.54834 Q 117.0918 567.54834 116.51758 568.10205 Q 116.20312 568.40283 115.84082 569.03174 L 115.6289 568.9839 Q 115.90234 567.9448 116.64747 567.32275 Q 117.39258 566.7007 118.37012 566.7007 Q 119.416016 566.7007 119.986824 567.2749 Q 120.55762 567.8491 120.55762 568.6011 Q 120.55762 569.26416 120.08594 569.8179 Q 119.819336 570.1323 119.25879 570.522 Q 119.91504 570.80225 120.31152 571.1782 Q 121.05665 571.896 121.05665 572.9966 Q 121.05665 574.2954 120.034676 575.2866 Q 119.0127 576.27783 117.12598 576.27783 Q 116.28516 576.27783 115.94677 576.0283 Q 115.6084 575.7788 115.6084 575.4917 Q 115.6084 575.31396 115.7212 575.1499 Q 115.83399 574.98584 116.086914 574.98584 Q 116.46289 574.98584 117.081535 575.3755 Z M 127.844734 572.93506 Q 127.00391 573.0923 126.60742 573.3179 Q 125.91699 573.7212 125.91699 574.5073 L 125.90332 576.6128 Q 125.90332 577.7202 125.083 578.1953 Q 124.262695 578.6704 122.868164 578.6704 L 122.868164 578.3628 Q 123.72949 578.1919 124.11914 577.95264 Q 124.81641 577.5288 124.81641 576.68115 L 124.83008 574.7534 Q 124.83008 573.8237 125.493164 573.33154 Q 126.15625 572.83936 127.44141 572.73 L 127.44141 572.6958 Q 125.95801 572.40186 125.52051 572.1079 Q 124.83008 571.64307 124.83008 570.4946 L 124.83008 568.8198 Q 124.83008 567.8423 124.0166 567.3706 Q 123.55859 567.104 122.868164 567.022 L 122.868164 566.71436 Q 124.625 566.71436 125.26416 567.2783 Q 125.90332 567.8423 125.90332 568.7925 L 125.91699 570.67236 Q 125.91699 571.6636 126.634766 572.09424 Q 127.04492 572.34717 127.844734 572.43604 L 127.844734 572.93506 Z"/>
    </g>
    <g>
        <path id="arrow0" fill="#000000" fill-opacity="0" stroke="#90ee90" d="M 183 54 C 183 84 183 71 183 101 C 183 131 183 118 183 148"/>
        <g>
            <g clip-path="url(#clipPath1)" transform="matrix(-0.00000004 1 -1 -0.00000004 186.5 138)">
                <path fill="#90ee90" stroke="none" d="M 0 0 L 10 3.5 L 0 7 Z"/>
            </g>
        </g>
    </g>
    <g>
        <path id="arrow1" fill="#000000" fill-opacity="0" stroke="#90ee90" d="M 183 172 C 183 202 183 189 183 219 C 183 249 183 236 183 266"/>
        <g>
            <g clip-path="url(#clipPath2)" transform="matrix(-0.00000004 1 -1 -0.00000004 186.5 256)">
                <path fill="#90ee90" stroke="none" d="M 0 0 L 10 3.5 L 0 7 Z"/>
            </g>
        </g>
    </g>
    <g>
        <path id="arrow2" fill="#000000" fill-opacity="0" stroke="#90ee90" d="M 183 290 C 183 320 183 307 183 337 C 183 367 183 354 183 384"/>
        <g>
            <g clip-path="url(#clipPath3)" transform="matrix(-0.00000004 1 -1 -0.00000004 186.5 374)">
                <path fill="#90ee90" stroke="none" d="M 0 0 L 10 3.5 L 0 7 Z"/>
            </g>
        </g>
    </g>
    <g>
        <path id="arrow3" fill="#000000" fill-opacity="0" stroke="#ff6a6a" d="M 183 408 C 183 438 183 425 183 455 C 183 485 183 472 183 502"/>
        <g>
            <g clip-path="url(#clipPath4)" transform="matrix(-0.00000004 1 -1 -0.00000004 186.5 492)">
                <path fill="#ff6a6a" stroke="none" d="M 0 0 L 10 3.5 L 0 7 Z"/>
            </g>
        </g>
    </g>
    <g>
        <path id="arrow4" fill="#000000" fill-opacity="0" stroke="#90ee90" d="M 183 526 C 183 556 183 543 183 573 C 183 603 183 590 183 620"/>
        <g>
            <g clip-path="url(#clipPath5)" transform="matrix(-0.00000004 1 -1 -0.00000004 186.5 610)">
                <path fill="#90ee90" stroke="none" d="M 0 0 L 10 3.5 L 0 7 Z"/>
            </g>
        </g>
    </g>
</svg>
